G04 #@! TF.GenerationSoftware,KiCad,Pcbnew,(5.1.0)-1*
G04 #@! TF.CreationDate,2020-02-18T23:46:36-06:00*
G04 #@! TF.ProjectId,USBMuxV1,5553424d-7578-4563-912e-6b696361645f,rev?*
G04 #@! TF.SameCoordinates,Original*
G04 #@! TF.FileFunction,Legend,Bot*
G04 #@! TF.FilePolarity,Positive*
%FSLAX46Y46*%
G04 Gerber Fmt 4.6, Leading zero omitted, Abs format (unit mm)*
G04 Created by KiCad (PCBNEW (5.1.0)-1) date 2020-02-18 23:46:36*
%MOMM*%
%LPD*%
G04 APERTURE LIST*
%ADD10C,0.127000*%
%ADD11C,0.120000*%
%ADD12C,0.015000*%
%ADD13C,0.150000*%
G04 APERTURE END LIST*
D10*
X134920709Y-97750000D02*
G75*
G03X134920709Y-97750000I-70709J0D01*
G01*
X134920709Y-118250000D02*
G75*
G03X134920709Y-118250000I-70709J0D01*
G01*
D11*
X134710000Y-115236252D02*
X134710000Y-114713748D01*
X133290000Y-115236252D02*
X133290000Y-114713748D01*
X134710000Y-94736252D02*
X134710000Y-94213748D01*
X133290000Y-94736252D02*
X133290000Y-94213748D01*
X131290000Y-94786252D02*
X131290000Y-94263748D01*
X132710000Y-94786252D02*
X132710000Y-94263748D01*
X132710000Y-115286252D02*
X132710000Y-114763748D01*
X131290000Y-115286252D02*
X131290000Y-114763748D01*
D12*
X134167455Y-97062622D02*
X134167455Y-97224598D01*
X134157927Y-97243654D01*
X134148399Y-97253182D01*
X134129343Y-97262710D01*
X134091231Y-97262710D01*
X134072175Y-97253182D01*
X134062647Y-97243654D01*
X134053119Y-97224598D01*
X134053119Y-97062622D01*
X133872087Y-97129318D02*
X133872087Y-97262710D01*
X133919727Y-97053094D02*
X133967367Y-97196014D01*
X133843503Y-97196014D01*
X134167455Y-117562622D02*
X134167455Y-117724598D01*
X134157927Y-117743654D01*
X134148399Y-117753182D01*
X134129343Y-117762710D01*
X134091231Y-117762710D01*
X134072175Y-117753182D01*
X134062647Y-117743654D01*
X134053119Y-117724598D01*
X134053119Y-117562622D01*
X133862559Y-117562622D02*
X133957839Y-117562622D01*
X133967367Y-117657902D01*
X133957839Y-117648374D01*
X133938783Y-117638846D01*
X133891143Y-117638846D01*
X133872087Y-117648374D01*
X133862559Y-117657902D01*
X133853031Y-117676958D01*
X133853031Y-117724598D01*
X133862559Y-117743654D01*
X133872087Y-117753182D01*
X133891143Y-117762710D01*
X133938783Y-117762710D01*
X133957839Y-117753182D01*
X133967367Y-117743654D01*
D13*
X134166666Y-112857142D02*
X134214285Y-112904761D01*
X134357142Y-112952380D01*
X134452380Y-112952380D01*
X134595238Y-112904761D01*
X134690476Y-112809523D01*
X134738095Y-112714285D01*
X134785714Y-112523809D01*
X134785714Y-112380952D01*
X134738095Y-112190476D01*
X134690476Y-112095238D01*
X134595238Y-112000000D01*
X134452380Y-111952380D01*
X134357142Y-111952380D01*
X134214285Y-112000000D01*
X134166666Y-112047619D01*
X133833333Y-111952380D02*
X133214285Y-111952380D01*
X133547619Y-112333333D01*
X133404761Y-112333333D01*
X133309523Y-112380952D01*
X133261904Y-112428571D01*
X133214285Y-112523809D01*
X133214285Y-112761904D01*
X133261904Y-112857142D01*
X133309523Y-112904761D01*
X133404761Y-112952380D01*
X133690476Y-112952380D01*
X133785714Y-112904761D01*
X133833333Y-112857142D01*
X134166666Y-92357142D02*
X134214285Y-92404761D01*
X134357142Y-92452380D01*
X134452380Y-92452380D01*
X134595238Y-92404761D01*
X134690476Y-92309523D01*
X134738095Y-92214285D01*
X134785714Y-92023809D01*
X134785714Y-91880952D01*
X134738095Y-91690476D01*
X134690476Y-91595238D01*
X134595238Y-91500000D01*
X134452380Y-91452380D01*
X134357142Y-91452380D01*
X134214285Y-91500000D01*
X134166666Y-91547619D01*
X133309523Y-91785714D02*
X133309523Y-92452380D01*
X133547619Y-91404761D02*
X133785714Y-92119047D01*
X133166666Y-92119047D01*
X132166666Y-92452380D02*
X132500000Y-91976190D01*
X132738095Y-92452380D02*
X132738095Y-91452380D01*
X132357142Y-91452380D01*
X132261904Y-91500000D01*
X132214285Y-91547619D01*
X132166666Y-91642857D01*
X132166666Y-91785714D01*
X132214285Y-91880952D01*
X132261904Y-91928571D01*
X132357142Y-91976190D01*
X132738095Y-91976190D01*
X131309523Y-91785714D02*
X131309523Y-92452380D01*
X131547619Y-91404761D02*
X131785714Y-92119047D01*
X131166666Y-92119047D01*
X132191666Y-112977380D02*
X132525000Y-112501190D01*
X132763095Y-112977380D02*
X132763095Y-111977380D01*
X132382142Y-111977380D01*
X132286904Y-112025000D01*
X132239285Y-112072619D01*
X132191666Y-112167857D01*
X132191666Y-112310714D01*
X132239285Y-112405952D01*
X132286904Y-112453571D01*
X132382142Y-112501190D01*
X132763095Y-112501190D01*
X131286904Y-111977380D02*
X131763095Y-111977380D01*
X131810714Y-112453571D01*
X131763095Y-112405952D01*
X131667857Y-112358333D01*
X131429761Y-112358333D01*
X131334523Y-112405952D01*
X131286904Y-112453571D01*
X131239285Y-112548809D01*
X131239285Y-112786904D01*
X131286904Y-112882142D01*
X131334523Y-112929761D01*
X131429761Y-112977380D01*
X131667857Y-112977380D01*
X131763095Y-112929761D01*
X131810714Y-112882142D01*
M02*
