G04 #@! TF.GenerationSoftware,KiCad,Pcbnew,(5.1.0)-1*
G04 #@! TF.CreationDate,2020-02-18T23:46:36-06:00*
G04 #@! TF.ProjectId,USBMuxV1,5553424d-7578-4563-912e-6b696361645f,rev?*
G04 #@! TF.SameCoordinates,Original*
G04 #@! TF.FileFunction,Copper,L1,Top*
G04 #@! TF.FilePolarity,Positive*
%FSLAX46Y46*%
G04 Gerber Fmt 4.6, Leading zero omitted, Abs format (unit mm)*
G04 Created by KiCad (PCBNEW (5.1.0)-1) date 2020-02-18 23:46:36*
%MOMM*%
%LPD*%
G04 APERTURE LIST*
%ADD10R,1.900000X1.900000*%
%ADD11C,0.100000*%
%ADD12C,2.000000*%
%ADD13R,0.400000X1.350000*%
%ADD14O,1.100000X1.300000*%
%ADD15R,0.580000X0.250000*%
%ADD16R,0.350000X0.630000*%
%ADD17C,1.150000*%
%ADD18R,1.250000X1.250000*%
%ADD19C,1.250000*%
%ADD20C,1.450000*%
%ADD21C,2.600000*%
%ADD22R,1.060000X0.650000*%
%ADD23C,0.800000*%
%ADD24C,0.250000*%
%ADD25C,0.200000*%
%ADD26C,0.500000*%
%ADD27C,0.150000*%
G04 APERTURE END LIST*
D10*
X137750000Y-137000000D03*
X140250000Y-137000000D03*
D11*
G36*
X135949009Y-136002408D02*
G01*
X135997545Y-136009607D01*
X136045142Y-136021530D01*
X136091342Y-136038060D01*
X136135698Y-136059039D01*
X136177785Y-136084265D01*
X136217197Y-136113495D01*
X136253553Y-136146447D01*
X136286505Y-136182803D01*
X136315735Y-136222215D01*
X136340961Y-136264302D01*
X136361940Y-136308658D01*
X136378470Y-136354858D01*
X136390393Y-136402455D01*
X136397592Y-136450991D01*
X136400000Y-136500000D01*
X136400000Y-137500000D01*
X136397592Y-137549009D01*
X136390393Y-137597545D01*
X136378470Y-137645142D01*
X136361940Y-137691342D01*
X136340961Y-137735698D01*
X136315735Y-137777785D01*
X136286505Y-137817197D01*
X136253553Y-137853553D01*
X136217197Y-137886505D01*
X136177785Y-137915735D01*
X136135698Y-137940961D01*
X136091342Y-137961940D01*
X136045142Y-137978470D01*
X135997545Y-137990393D01*
X135949009Y-137997592D01*
X135900000Y-138000000D01*
X134900000Y-138000000D01*
X134850991Y-137997592D01*
X134802455Y-137990393D01*
X134754858Y-137978470D01*
X134708658Y-137961940D01*
X134664302Y-137940961D01*
X134622215Y-137915735D01*
X134582803Y-137886505D01*
X134546447Y-137853553D01*
X134513495Y-137817197D01*
X134484265Y-137777785D01*
X134459039Y-137735698D01*
X134438060Y-137691342D01*
X134421530Y-137645142D01*
X134409607Y-137597545D01*
X134402408Y-137549009D01*
X134400000Y-137500000D01*
X134400000Y-136500000D01*
X134402408Y-136450991D01*
X134409607Y-136402455D01*
X134421530Y-136354858D01*
X134438060Y-136308658D01*
X134459039Y-136264302D01*
X134484265Y-136222215D01*
X134513495Y-136182803D01*
X134546447Y-136146447D01*
X134582803Y-136113495D01*
X134622215Y-136084265D01*
X134664302Y-136059039D01*
X134708658Y-136038060D01*
X134754858Y-136021530D01*
X134802455Y-136009607D01*
X134850991Y-136002408D01*
X134900000Y-136000000D01*
X135900000Y-136000000D01*
X135949009Y-136002408D01*
X135949009Y-136002408D01*
G37*
D12*
X135400000Y-137000000D03*
D11*
G36*
X143149009Y-136002408D02*
G01*
X143197545Y-136009607D01*
X143245142Y-136021530D01*
X143291342Y-136038060D01*
X143335698Y-136059039D01*
X143377785Y-136084265D01*
X143417197Y-136113495D01*
X143453553Y-136146447D01*
X143486505Y-136182803D01*
X143515735Y-136222215D01*
X143540961Y-136264302D01*
X143561940Y-136308658D01*
X143578470Y-136354858D01*
X143590393Y-136402455D01*
X143597592Y-136450991D01*
X143600000Y-136500000D01*
X143600000Y-137500000D01*
X143597592Y-137549009D01*
X143590393Y-137597545D01*
X143578470Y-137645142D01*
X143561940Y-137691342D01*
X143540961Y-137735698D01*
X143515735Y-137777785D01*
X143486505Y-137817197D01*
X143453553Y-137853553D01*
X143417197Y-137886505D01*
X143377785Y-137915735D01*
X143335698Y-137940961D01*
X143291342Y-137961940D01*
X143245142Y-137978470D01*
X143197545Y-137990393D01*
X143149009Y-137997592D01*
X143100000Y-138000000D01*
X142100000Y-138000000D01*
X142050991Y-137997592D01*
X142002455Y-137990393D01*
X141954858Y-137978470D01*
X141908658Y-137961940D01*
X141864302Y-137940961D01*
X141822215Y-137915735D01*
X141782803Y-137886505D01*
X141746447Y-137853553D01*
X141713495Y-137817197D01*
X141684265Y-137777785D01*
X141659039Y-137735698D01*
X141638060Y-137691342D01*
X141621530Y-137645142D01*
X141609607Y-137597545D01*
X141602408Y-137549009D01*
X141600000Y-137500000D01*
X141600000Y-136500000D01*
X141602408Y-136450991D01*
X141609607Y-136402455D01*
X141621530Y-136354858D01*
X141638060Y-136308658D01*
X141659039Y-136264302D01*
X141684265Y-136222215D01*
X141713495Y-136182803D01*
X141746447Y-136146447D01*
X141782803Y-136113495D01*
X141822215Y-136084265D01*
X141864302Y-136059039D01*
X141908658Y-136038060D01*
X141954858Y-136021530D01*
X142002455Y-136009607D01*
X142050991Y-136002408D01*
X142100000Y-136000000D01*
X143100000Y-136000000D01*
X143149009Y-136002408D01*
X143149009Y-136002408D01*
G37*
D12*
X142600000Y-137000000D03*
D13*
X139000000Y-134100000D03*
X139650000Y-134100000D03*
X140300000Y-134100000D03*
X138350000Y-134100000D03*
X137700000Y-134100000D03*
D14*
X136600000Y-134000000D03*
X141400000Y-134000000D03*
D15*
X124400000Y-98250000D03*
X124400000Y-98750000D03*
X124400000Y-99250000D03*
X124400000Y-99750000D03*
X125600000Y-98250000D03*
X125600000Y-98750000D03*
X125600000Y-99250000D03*
X125600000Y-99750000D03*
D16*
X125000000Y-98150000D03*
X125000000Y-99850000D03*
D15*
X124400000Y-118750000D03*
X124400000Y-119250000D03*
X124400000Y-119750000D03*
X124400000Y-120250000D03*
X125600000Y-118750000D03*
X125600000Y-119250000D03*
X125600000Y-119750000D03*
X125600000Y-120250000D03*
D16*
X125000000Y-118650000D03*
X125000000Y-120350000D03*
D11*
G36*
X125474505Y-92926204D02*
G01*
X125498773Y-92929804D01*
X125522572Y-92935765D01*
X125545671Y-92944030D01*
X125567850Y-92954520D01*
X125588893Y-92967132D01*
X125608599Y-92981747D01*
X125626777Y-92998223D01*
X125643253Y-93016401D01*
X125657868Y-93036107D01*
X125670480Y-93057150D01*
X125680970Y-93079329D01*
X125689235Y-93102428D01*
X125695196Y-93126227D01*
X125698796Y-93150495D01*
X125700000Y-93174999D01*
X125700000Y-93825001D01*
X125698796Y-93849505D01*
X125695196Y-93873773D01*
X125689235Y-93897572D01*
X125680970Y-93920671D01*
X125670480Y-93942850D01*
X125657868Y-93963893D01*
X125643253Y-93983599D01*
X125626777Y-94001777D01*
X125608599Y-94018253D01*
X125588893Y-94032868D01*
X125567850Y-94045480D01*
X125545671Y-94055970D01*
X125522572Y-94064235D01*
X125498773Y-94070196D01*
X125474505Y-94073796D01*
X125450001Y-94075000D01*
X124549999Y-94075000D01*
X124525495Y-94073796D01*
X124501227Y-94070196D01*
X124477428Y-94064235D01*
X124454329Y-94055970D01*
X124432150Y-94045480D01*
X124411107Y-94032868D01*
X124391401Y-94018253D01*
X124373223Y-94001777D01*
X124356747Y-93983599D01*
X124342132Y-93963893D01*
X124329520Y-93942850D01*
X124319030Y-93920671D01*
X124310765Y-93897572D01*
X124304804Y-93873773D01*
X124301204Y-93849505D01*
X124300000Y-93825001D01*
X124300000Y-93174999D01*
X124301204Y-93150495D01*
X124304804Y-93126227D01*
X124310765Y-93102428D01*
X124319030Y-93079329D01*
X124329520Y-93057150D01*
X124342132Y-93036107D01*
X124356747Y-93016401D01*
X124373223Y-92998223D01*
X124391401Y-92981747D01*
X124411107Y-92967132D01*
X124432150Y-92954520D01*
X124454329Y-92944030D01*
X124477428Y-92935765D01*
X124501227Y-92929804D01*
X124525495Y-92926204D01*
X124549999Y-92925000D01*
X125450001Y-92925000D01*
X125474505Y-92926204D01*
X125474505Y-92926204D01*
G37*
D17*
X125000000Y-93500000D03*
D11*
G36*
X125474505Y-94976204D02*
G01*
X125498773Y-94979804D01*
X125522572Y-94985765D01*
X125545671Y-94994030D01*
X125567850Y-95004520D01*
X125588893Y-95017132D01*
X125608599Y-95031747D01*
X125626777Y-95048223D01*
X125643253Y-95066401D01*
X125657868Y-95086107D01*
X125670480Y-95107150D01*
X125680970Y-95129329D01*
X125689235Y-95152428D01*
X125695196Y-95176227D01*
X125698796Y-95200495D01*
X125700000Y-95224999D01*
X125700000Y-95875001D01*
X125698796Y-95899505D01*
X125695196Y-95923773D01*
X125689235Y-95947572D01*
X125680970Y-95970671D01*
X125670480Y-95992850D01*
X125657868Y-96013893D01*
X125643253Y-96033599D01*
X125626777Y-96051777D01*
X125608599Y-96068253D01*
X125588893Y-96082868D01*
X125567850Y-96095480D01*
X125545671Y-96105970D01*
X125522572Y-96114235D01*
X125498773Y-96120196D01*
X125474505Y-96123796D01*
X125450001Y-96125000D01*
X124549999Y-96125000D01*
X124525495Y-96123796D01*
X124501227Y-96120196D01*
X124477428Y-96114235D01*
X124454329Y-96105970D01*
X124432150Y-96095480D01*
X124411107Y-96082868D01*
X124391401Y-96068253D01*
X124373223Y-96051777D01*
X124356747Y-96033599D01*
X124342132Y-96013893D01*
X124329520Y-95992850D01*
X124319030Y-95970671D01*
X124310765Y-95947572D01*
X124304804Y-95923773D01*
X124301204Y-95899505D01*
X124300000Y-95875001D01*
X124300000Y-95224999D01*
X124301204Y-95200495D01*
X124304804Y-95176227D01*
X124310765Y-95152428D01*
X124319030Y-95129329D01*
X124329520Y-95107150D01*
X124342132Y-95086107D01*
X124356747Y-95066401D01*
X124373223Y-95048223D01*
X124391401Y-95031747D01*
X124411107Y-95017132D01*
X124432150Y-95004520D01*
X124454329Y-94994030D01*
X124477428Y-94985765D01*
X124501227Y-94979804D01*
X124525495Y-94976204D01*
X124549999Y-94975000D01*
X125450001Y-94975000D01*
X125474505Y-94976204D01*
X125474505Y-94976204D01*
G37*
D17*
X125000000Y-95550000D03*
D11*
G36*
X125474505Y-113426204D02*
G01*
X125498773Y-113429804D01*
X125522572Y-113435765D01*
X125545671Y-113444030D01*
X125567850Y-113454520D01*
X125588893Y-113467132D01*
X125608599Y-113481747D01*
X125626777Y-113498223D01*
X125643253Y-113516401D01*
X125657868Y-113536107D01*
X125670480Y-113557150D01*
X125680970Y-113579329D01*
X125689235Y-113602428D01*
X125695196Y-113626227D01*
X125698796Y-113650495D01*
X125700000Y-113674999D01*
X125700000Y-114325001D01*
X125698796Y-114349505D01*
X125695196Y-114373773D01*
X125689235Y-114397572D01*
X125680970Y-114420671D01*
X125670480Y-114442850D01*
X125657868Y-114463893D01*
X125643253Y-114483599D01*
X125626777Y-114501777D01*
X125608599Y-114518253D01*
X125588893Y-114532868D01*
X125567850Y-114545480D01*
X125545671Y-114555970D01*
X125522572Y-114564235D01*
X125498773Y-114570196D01*
X125474505Y-114573796D01*
X125450001Y-114575000D01*
X124549999Y-114575000D01*
X124525495Y-114573796D01*
X124501227Y-114570196D01*
X124477428Y-114564235D01*
X124454329Y-114555970D01*
X124432150Y-114545480D01*
X124411107Y-114532868D01*
X124391401Y-114518253D01*
X124373223Y-114501777D01*
X124356747Y-114483599D01*
X124342132Y-114463893D01*
X124329520Y-114442850D01*
X124319030Y-114420671D01*
X124310765Y-114397572D01*
X124304804Y-114373773D01*
X124301204Y-114349505D01*
X124300000Y-114325001D01*
X124300000Y-113674999D01*
X124301204Y-113650495D01*
X124304804Y-113626227D01*
X124310765Y-113602428D01*
X124319030Y-113579329D01*
X124329520Y-113557150D01*
X124342132Y-113536107D01*
X124356747Y-113516401D01*
X124373223Y-113498223D01*
X124391401Y-113481747D01*
X124411107Y-113467132D01*
X124432150Y-113454520D01*
X124454329Y-113444030D01*
X124477428Y-113435765D01*
X124501227Y-113429804D01*
X124525495Y-113426204D01*
X124549999Y-113425000D01*
X125450001Y-113425000D01*
X125474505Y-113426204D01*
X125474505Y-113426204D01*
G37*
D17*
X125000000Y-114000000D03*
D11*
G36*
X125474505Y-115476204D02*
G01*
X125498773Y-115479804D01*
X125522572Y-115485765D01*
X125545671Y-115494030D01*
X125567850Y-115504520D01*
X125588893Y-115517132D01*
X125608599Y-115531747D01*
X125626777Y-115548223D01*
X125643253Y-115566401D01*
X125657868Y-115586107D01*
X125670480Y-115607150D01*
X125680970Y-115629329D01*
X125689235Y-115652428D01*
X125695196Y-115676227D01*
X125698796Y-115700495D01*
X125700000Y-115724999D01*
X125700000Y-116375001D01*
X125698796Y-116399505D01*
X125695196Y-116423773D01*
X125689235Y-116447572D01*
X125680970Y-116470671D01*
X125670480Y-116492850D01*
X125657868Y-116513893D01*
X125643253Y-116533599D01*
X125626777Y-116551777D01*
X125608599Y-116568253D01*
X125588893Y-116582868D01*
X125567850Y-116595480D01*
X125545671Y-116605970D01*
X125522572Y-116614235D01*
X125498773Y-116620196D01*
X125474505Y-116623796D01*
X125450001Y-116625000D01*
X124549999Y-116625000D01*
X124525495Y-116623796D01*
X124501227Y-116620196D01*
X124477428Y-116614235D01*
X124454329Y-116605970D01*
X124432150Y-116595480D01*
X124411107Y-116582868D01*
X124391401Y-116568253D01*
X124373223Y-116551777D01*
X124356747Y-116533599D01*
X124342132Y-116513893D01*
X124329520Y-116492850D01*
X124319030Y-116470671D01*
X124310765Y-116447572D01*
X124304804Y-116423773D01*
X124301204Y-116399505D01*
X124300000Y-116375001D01*
X124300000Y-115724999D01*
X124301204Y-115700495D01*
X124304804Y-115676227D01*
X124310765Y-115652428D01*
X124319030Y-115629329D01*
X124329520Y-115607150D01*
X124342132Y-115586107D01*
X124356747Y-115566401D01*
X124373223Y-115548223D01*
X124391401Y-115531747D01*
X124411107Y-115517132D01*
X124432150Y-115504520D01*
X124454329Y-115494030D01*
X124477428Y-115485765D01*
X124501227Y-115479804D01*
X124525495Y-115476204D01*
X124549999Y-115475000D01*
X125450001Y-115475000D01*
X125474505Y-115476204D01*
X125474505Y-115476204D01*
G37*
D17*
X125000000Y-116050000D03*
D18*
X130000000Y-134000000D03*
D19*
X128000000Y-134000000D03*
X126000000Y-134000000D03*
X124000000Y-134000000D03*
X122000000Y-134000000D03*
X120000000Y-134000000D03*
X118000000Y-134000000D03*
X116000000Y-134000000D03*
X116000000Y-132000000D03*
X118000000Y-132000000D03*
X120000000Y-132000000D03*
X122000000Y-132000000D03*
X124000000Y-132000000D03*
X126000000Y-132000000D03*
X128000000Y-132000000D03*
X130000000Y-132000000D03*
D20*
X120920000Y-93980000D03*
X118920000Y-93980000D03*
X116920000Y-93980000D03*
X114920000Y-93980000D03*
D21*
X114420000Y-96730000D03*
X121420000Y-96730000D03*
X121420000Y-91230000D03*
X114420000Y-91230000D03*
D20*
X120920000Y-104140000D03*
X118920000Y-104140000D03*
X116920000Y-104140000D03*
X114920000Y-104140000D03*
D21*
X114420000Y-106890000D03*
X121420000Y-106890000D03*
X121420000Y-101390000D03*
X114420000Y-101390000D03*
D20*
X120920000Y-114300000D03*
X118920000Y-114300000D03*
X116920000Y-114300000D03*
X114920000Y-114300000D03*
D21*
X114420000Y-117050000D03*
X121420000Y-117050000D03*
X121420000Y-111550000D03*
X114420000Y-111550000D03*
D20*
X121000000Y-124460000D03*
X119000000Y-124460000D03*
X117000000Y-124460000D03*
X115000000Y-124460000D03*
D21*
X114500000Y-127210000D03*
X121500000Y-127210000D03*
X121500000Y-121710000D03*
X114500000Y-121710000D03*
D20*
X138160000Y-93980000D03*
X140160000Y-93980000D03*
X142160000Y-93980000D03*
X144160000Y-93980000D03*
D21*
X144660000Y-91230000D03*
X137660000Y-91230000D03*
X137660000Y-96730000D03*
X144660000Y-96730000D03*
D20*
X138160000Y-104140000D03*
X140160000Y-104140000D03*
X142160000Y-104140000D03*
X144160000Y-104140000D03*
D21*
X144660000Y-101390000D03*
X137660000Y-101390000D03*
X137660000Y-106890000D03*
X144660000Y-106890000D03*
D20*
X138160000Y-114300000D03*
X140160000Y-114300000D03*
X142160000Y-114300000D03*
X144160000Y-114300000D03*
D21*
X144660000Y-111550000D03*
X137660000Y-111550000D03*
X137660000Y-117050000D03*
X144660000Y-117050000D03*
D20*
X138160000Y-124460000D03*
X140160000Y-124460000D03*
X142160000Y-124460000D03*
X144160000Y-124460000D03*
D21*
X144660000Y-121710000D03*
X137660000Y-121710000D03*
X137660000Y-127210000D03*
X144660000Y-127210000D03*
D11*
G36*
X146974505Y-130876204D02*
G01*
X146998773Y-130879804D01*
X147022572Y-130885765D01*
X147045671Y-130894030D01*
X147067850Y-130904520D01*
X147088893Y-130917132D01*
X147108599Y-130931747D01*
X147126777Y-130948223D01*
X147143253Y-130966401D01*
X147157868Y-130986107D01*
X147170480Y-131007150D01*
X147180970Y-131029329D01*
X147189235Y-131052428D01*
X147195196Y-131076227D01*
X147198796Y-131100495D01*
X147200000Y-131124999D01*
X147200000Y-131775001D01*
X147198796Y-131799505D01*
X147195196Y-131823773D01*
X147189235Y-131847572D01*
X147180970Y-131870671D01*
X147170480Y-131892850D01*
X147157868Y-131913893D01*
X147143253Y-131933599D01*
X147126777Y-131951777D01*
X147108599Y-131968253D01*
X147088893Y-131982868D01*
X147067850Y-131995480D01*
X147045671Y-132005970D01*
X147022572Y-132014235D01*
X146998773Y-132020196D01*
X146974505Y-132023796D01*
X146950001Y-132025000D01*
X146049999Y-132025000D01*
X146025495Y-132023796D01*
X146001227Y-132020196D01*
X145977428Y-132014235D01*
X145954329Y-132005970D01*
X145932150Y-131995480D01*
X145911107Y-131982868D01*
X145891401Y-131968253D01*
X145873223Y-131951777D01*
X145856747Y-131933599D01*
X145842132Y-131913893D01*
X145829520Y-131892850D01*
X145819030Y-131870671D01*
X145810765Y-131847572D01*
X145804804Y-131823773D01*
X145801204Y-131799505D01*
X145800000Y-131775001D01*
X145800000Y-131124999D01*
X145801204Y-131100495D01*
X145804804Y-131076227D01*
X145810765Y-131052428D01*
X145819030Y-131029329D01*
X145829520Y-131007150D01*
X145842132Y-130986107D01*
X145856747Y-130966401D01*
X145873223Y-130948223D01*
X145891401Y-130931747D01*
X145911107Y-130917132D01*
X145932150Y-130904520D01*
X145954329Y-130894030D01*
X145977428Y-130885765D01*
X146001227Y-130879804D01*
X146025495Y-130876204D01*
X146049999Y-130875000D01*
X146950001Y-130875000D01*
X146974505Y-130876204D01*
X146974505Y-130876204D01*
G37*
D17*
X146500000Y-131450000D03*
D11*
G36*
X146974505Y-132926204D02*
G01*
X146998773Y-132929804D01*
X147022572Y-132935765D01*
X147045671Y-132944030D01*
X147067850Y-132954520D01*
X147088893Y-132967132D01*
X147108599Y-132981747D01*
X147126777Y-132998223D01*
X147143253Y-133016401D01*
X147157868Y-133036107D01*
X147170480Y-133057150D01*
X147180970Y-133079329D01*
X147189235Y-133102428D01*
X147195196Y-133126227D01*
X147198796Y-133150495D01*
X147200000Y-133174999D01*
X147200000Y-133825001D01*
X147198796Y-133849505D01*
X147195196Y-133873773D01*
X147189235Y-133897572D01*
X147180970Y-133920671D01*
X147170480Y-133942850D01*
X147157868Y-133963893D01*
X147143253Y-133983599D01*
X147126777Y-134001777D01*
X147108599Y-134018253D01*
X147088893Y-134032868D01*
X147067850Y-134045480D01*
X147045671Y-134055970D01*
X147022572Y-134064235D01*
X146998773Y-134070196D01*
X146974505Y-134073796D01*
X146950001Y-134075000D01*
X146049999Y-134075000D01*
X146025495Y-134073796D01*
X146001227Y-134070196D01*
X145977428Y-134064235D01*
X145954329Y-134055970D01*
X145932150Y-134045480D01*
X145911107Y-134032868D01*
X145891401Y-134018253D01*
X145873223Y-134001777D01*
X145856747Y-133983599D01*
X145842132Y-133963893D01*
X145829520Y-133942850D01*
X145819030Y-133920671D01*
X145810765Y-133897572D01*
X145804804Y-133873773D01*
X145801204Y-133849505D01*
X145800000Y-133825001D01*
X145800000Y-133174999D01*
X145801204Y-133150495D01*
X145804804Y-133126227D01*
X145810765Y-133102428D01*
X145819030Y-133079329D01*
X145829520Y-133057150D01*
X145842132Y-133036107D01*
X145856747Y-133016401D01*
X145873223Y-132998223D01*
X145891401Y-132981747D01*
X145911107Y-132967132D01*
X145932150Y-132954520D01*
X145954329Y-132944030D01*
X145977428Y-132935765D01*
X146001227Y-132929804D01*
X146025495Y-132926204D01*
X146049999Y-132925000D01*
X146950001Y-132925000D01*
X146974505Y-132926204D01*
X146974505Y-132926204D01*
G37*
D17*
X146500000Y-133500000D03*
D11*
G36*
X142549505Y-130801204D02*
G01*
X142573773Y-130804804D01*
X142597572Y-130810765D01*
X142620671Y-130819030D01*
X142642850Y-130829520D01*
X142663893Y-130842132D01*
X142683599Y-130856747D01*
X142701777Y-130873223D01*
X142718253Y-130891401D01*
X142732868Y-130911107D01*
X142745480Y-130932150D01*
X142755970Y-130954329D01*
X142764235Y-130977428D01*
X142770196Y-131001227D01*
X142773796Y-131025495D01*
X142775000Y-131049999D01*
X142775000Y-131950001D01*
X142773796Y-131974505D01*
X142770196Y-131998773D01*
X142764235Y-132022572D01*
X142755970Y-132045671D01*
X142745480Y-132067850D01*
X142732868Y-132088893D01*
X142718253Y-132108599D01*
X142701777Y-132126777D01*
X142683599Y-132143253D01*
X142663893Y-132157868D01*
X142642850Y-132170480D01*
X142620671Y-132180970D01*
X142597572Y-132189235D01*
X142573773Y-132195196D01*
X142549505Y-132198796D01*
X142525001Y-132200000D01*
X141874999Y-132200000D01*
X141850495Y-132198796D01*
X141826227Y-132195196D01*
X141802428Y-132189235D01*
X141779329Y-132180970D01*
X141757150Y-132170480D01*
X141736107Y-132157868D01*
X141716401Y-132143253D01*
X141698223Y-132126777D01*
X141681747Y-132108599D01*
X141667132Y-132088893D01*
X141654520Y-132067850D01*
X141644030Y-132045671D01*
X141635765Y-132022572D01*
X141629804Y-131998773D01*
X141626204Y-131974505D01*
X141625000Y-131950001D01*
X141625000Y-131049999D01*
X141626204Y-131025495D01*
X141629804Y-131001227D01*
X141635765Y-130977428D01*
X141644030Y-130954329D01*
X141654520Y-130932150D01*
X141667132Y-130911107D01*
X141681747Y-130891401D01*
X141698223Y-130873223D01*
X141716401Y-130856747D01*
X141736107Y-130842132D01*
X141757150Y-130829520D01*
X141779329Y-130819030D01*
X141802428Y-130810765D01*
X141826227Y-130804804D01*
X141850495Y-130801204D01*
X141874999Y-130800000D01*
X142525001Y-130800000D01*
X142549505Y-130801204D01*
X142549505Y-130801204D01*
G37*
D17*
X142200000Y-131500000D03*
D11*
G36*
X144599505Y-130801204D02*
G01*
X144623773Y-130804804D01*
X144647572Y-130810765D01*
X144670671Y-130819030D01*
X144692850Y-130829520D01*
X144713893Y-130842132D01*
X144733599Y-130856747D01*
X144751777Y-130873223D01*
X144768253Y-130891401D01*
X144782868Y-130911107D01*
X144795480Y-130932150D01*
X144805970Y-130954329D01*
X144814235Y-130977428D01*
X144820196Y-131001227D01*
X144823796Y-131025495D01*
X144825000Y-131049999D01*
X144825000Y-131950001D01*
X144823796Y-131974505D01*
X144820196Y-131998773D01*
X144814235Y-132022572D01*
X144805970Y-132045671D01*
X144795480Y-132067850D01*
X144782868Y-132088893D01*
X144768253Y-132108599D01*
X144751777Y-132126777D01*
X144733599Y-132143253D01*
X144713893Y-132157868D01*
X144692850Y-132170480D01*
X144670671Y-132180970D01*
X144647572Y-132189235D01*
X144623773Y-132195196D01*
X144599505Y-132198796D01*
X144575001Y-132200000D01*
X143924999Y-132200000D01*
X143900495Y-132198796D01*
X143876227Y-132195196D01*
X143852428Y-132189235D01*
X143829329Y-132180970D01*
X143807150Y-132170480D01*
X143786107Y-132157868D01*
X143766401Y-132143253D01*
X143748223Y-132126777D01*
X143731747Y-132108599D01*
X143717132Y-132088893D01*
X143704520Y-132067850D01*
X143694030Y-132045671D01*
X143685765Y-132022572D01*
X143679804Y-131998773D01*
X143676204Y-131974505D01*
X143675000Y-131950001D01*
X143675000Y-131049999D01*
X143676204Y-131025495D01*
X143679804Y-131001227D01*
X143685765Y-130977428D01*
X143694030Y-130954329D01*
X143704520Y-130932150D01*
X143717132Y-130911107D01*
X143731747Y-130891401D01*
X143748223Y-130873223D01*
X143766401Y-130856747D01*
X143786107Y-130842132D01*
X143807150Y-130829520D01*
X143829329Y-130819030D01*
X143852428Y-130810765D01*
X143876227Y-130804804D01*
X143900495Y-130801204D01*
X143924999Y-130800000D01*
X144575001Y-130800000D01*
X144599505Y-130801204D01*
X144599505Y-130801204D01*
G37*
D17*
X144250000Y-131500000D03*
D11*
G36*
X127474505Y-92926204D02*
G01*
X127498773Y-92929804D01*
X127522572Y-92935765D01*
X127545671Y-92944030D01*
X127567850Y-92954520D01*
X127588893Y-92967132D01*
X127608599Y-92981747D01*
X127626777Y-92998223D01*
X127643253Y-93016401D01*
X127657868Y-93036107D01*
X127670480Y-93057150D01*
X127680970Y-93079329D01*
X127689235Y-93102428D01*
X127695196Y-93126227D01*
X127698796Y-93150495D01*
X127700000Y-93174999D01*
X127700000Y-93825001D01*
X127698796Y-93849505D01*
X127695196Y-93873773D01*
X127689235Y-93897572D01*
X127680970Y-93920671D01*
X127670480Y-93942850D01*
X127657868Y-93963893D01*
X127643253Y-93983599D01*
X127626777Y-94001777D01*
X127608599Y-94018253D01*
X127588893Y-94032868D01*
X127567850Y-94045480D01*
X127545671Y-94055970D01*
X127522572Y-94064235D01*
X127498773Y-94070196D01*
X127474505Y-94073796D01*
X127450001Y-94075000D01*
X126549999Y-94075000D01*
X126525495Y-94073796D01*
X126501227Y-94070196D01*
X126477428Y-94064235D01*
X126454329Y-94055970D01*
X126432150Y-94045480D01*
X126411107Y-94032868D01*
X126391401Y-94018253D01*
X126373223Y-94001777D01*
X126356747Y-93983599D01*
X126342132Y-93963893D01*
X126329520Y-93942850D01*
X126319030Y-93920671D01*
X126310765Y-93897572D01*
X126304804Y-93873773D01*
X126301204Y-93849505D01*
X126300000Y-93825001D01*
X126300000Y-93174999D01*
X126301204Y-93150495D01*
X126304804Y-93126227D01*
X126310765Y-93102428D01*
X126319030Y-93079329D01*
X126329520Y-93057150D01*
X126342132Y-93036107D01*
X126356747Y-93016401D01*
X126373223Y-92998223D01*
X126391401Y-92981747D01*
X126411107Y-92967132D01*
X126432150Y-92954520D01*
X126454329Y-92944030D01*
X126477428Y-92935765D01*
X126501227Y-92929804D01*
X126525495Y-92926204D01*
X126549999Y-92925000D01*
X127450001Y-92925000D01*
X127474505Y-92926204D01*
X127474505Y-92926204D01*
G37*
D17*
X127000000Y-93500000D03*
D11*
G36*
X127474505Y-94976204D02*
G01*
X127498773Y-94979804D01*
X127522572Y-94985765D01*
X127545671Y-94994030D01*
X127567850Y-95004520D01*
X127588893Y-95017132D01*
X127608599Y-95031747D01*
X127626777Y-95048223D01*
X127643253Y-95066401D01*
X127657868Y-95086107D01*
X127670480Y-95107150D01*
X127680970Y-95129329D01*
X127689235Y-95152428D01*
X127695196Y-95176227D01*
X127698796Y-95200495D01*
X127700000Y-95224999D01*
X127700000Y-95875001D01*
X127698796Y-95899505D01*
X127695196Y-95923773D01*
X127689235Y-95947572D01*
X127680970Y-95970671D01*
X127670480Y-95992850D01*
X127657868Y-96013893D01*
X127643253Y-96033599D01*
X127626777Y-96051777D01*
X127608599Y-96068253D01*
X127588893Y-96082868D01*
X127567850Y-96095480D01*
X127545671Y-96105970D01*
X127522572Y-96114235D01*
X127498773Y-96120196D01*
X127474505Y-96123796D01*
X127450001Y-96125000D01*
X126549999Y-96125000D01*
X126525495Y-96123796D01*
X126501227Y-96120196D01*
X126477428Y-96114235D01*
X126454329Y-96105970D01*
X126432150Y-96095480D01*
X126411107Y-96082868D01*
X126391401Y-96068253D01*
X126373223Y-96051777D01*
X126356747Y-96033599D01*
X126342132Y-96013893D01*
X126329520Y-95992850D01*
X126319030Y-95970671D01*
X126310765Y-95947572D01*
X126304804Y-95923773D01*
X126301204Y-95899505D01*
X126300000Y-95875001D01*
X126300000Y-95224999D01*
X126301204Y-95200495D01*
X126304804Y-95176227D01*
X126310765Y-95152428D01*
X126319030Y-95129329D01*
X126329520Y-95107150D01*
X126342132Y-95086107D01*
X126356747Y-95066401D01*
X126373223Y-95048223D01*
X126391401Y-95031747D01*
X126411107Y-95017132D01*
X126432150Y-95004520D01*
X126454329Y-94994030D01*
X126477428Y-94985765D01*
X126501227Y-94979804D01*
X126525495Y-94976204D01*
X126549999Y-94975000D01*
X127450001Y-94975000D01*
X127474505Y-94976204D01*
X127474505Y-94976204D01*
G37*
D17*
X127000000Y-95550000D03*
D11*
G36*
X127474505Y-115476204D02*
G01*
X127498773Y-115479804D01*
X127522572Y-115485765D01*
X127545671Y-115494030D01*
X127567850Y-115504520D01*
X127588893Y-115517132D01*
X127608599Y-115531747D01*
X127626777Y-115548223D01*
X127643253Y-115566401D01*
X127657868Y-115586107D01*
X127670480Y-115607150D01*
X127680970Y-115629329D01*
X127689235Y-115652428D01*
X127695196Y-115676227D01*
X127698796Y-115700495D01*
X127700000Y-115724999D01*
X127700000Y-116375001D01*
X127698796Y-116399505D01*
X127695196Y-116423773D01*
X127689235Y-116447572D01*
X127680970Y-116470671D01*
X127670480Y-116492850D01*
X127657868Y-116513893D01*
X127643253Y-116533599D01*
X127626777Y-116551777D01*
X127608599Y-116568253D01*
X127588893Y-116582868D01*
X127567850Y-116595480D01*
X127545671Y-116605970D01*
X127522572Y-116614235D01*
X127498773Y-116620196D01*
X127474505Y-116623796D01*
X127450001Y-116625000D01*
X126549999Y-116625000D01*
X126525495Y-116623796D01*
X126501227Y-116620196D01*
X126477428Y-116614235D01*
X126454329Y-116605970D01*
X126432150Y-116595480D01*
X126411107Y-116582868D01*
X126391401Y-116568253D01*
X126373223Y-116551777D01*
X126356747Y-116533599D01*
X126342132Y-116513893D01*
X126329520Y-116492850D01*
X126319030Y-116470671D01*
X126310765Y-116447572D01*
X126304804Y-116423773D01*
X126301204Y-116399505D01*
X126300000Y-116375001D01*
X126300000Y-115724999D01*
X126301204Y-115700495D01*
X126304804Y-115676227D01*
X126310765Y-115652428D01*
X126319030Y-115629329D01*
X126329520Y-115607150D01*
X126342132Y-115586107D01*
X126356747Y-115566401D01*
X126373223Y-115548223D01*
X126391401Y-115531747D01*
X126411107Y-115517132D01*
X126432150Y-115504520D01*
X126454329Y-115494030D01*
X126477428Y-115485765D01*
X126501227Y-115479804D01*
X126525495Y-115476204D01*
X126549999Y-115475000D01*
X127450001Y-115475000D01*
X127474505Y-115476204D01*
X127474505Y-115476204D01*
G37*
D17*
X127000000Y-116050000D03*
D11*
G36*
X127474505Y-113426204D02*
G01*
X127498773Y-113429804D01*
X127522572Y-113435765D01*
X127545671Y-113444030D01*
X127567850Y-113454520D01*
X127588893Y-113467132D01*
X127608599Y-113481747D01*
X127626777Y-113498223D01*
X127643253Y-113516401D01*
X127657868Y-113536107D01*
X127670480Y-113557150D01*
X127680970Y-113579329D01*
X127689235Y-113602428D01*
X127695196Y-113626227D01*
X127698796Y-113650495D01*
X127700000Y-113674999D01*
X127700000Y-114325001D01*
X127698796Y-114349505D01*
X127695196Y-114373773D01*
X127689235Y-114397572D01*
X127680970Y-114420671D01*
X127670480Y-114442850D01*
X127657868Y-114463893D01*
X127643253Y-114483599D01*
X127626777Y-114501777D01*
X127608599Y-114518253D01*
X127588893Y-114532868D01*
X127567850Y-114545480D01*
X127545671Y-114555970D01*
X127522572Y-114564235D01*
X127498773Y-114570196D01*
X127474505Y-114573796D01*
X127450001Y-114575000D01*
X126549999Y-114575000D01*
X126525495Y-114573796D01*
X126501227Y-114570196D01*
X126477428Y-114564235D01*
X126454329Y-114555970D01*
X126432150Y-114545480D01*
X126411107Y-114532868D01*
X126391401Y-114518253D01*
X126373223Y-114501777D01*
X126356747Y-114483599D01*
X126342132Y-114463893D01*
X126329520Y-114442850D01*
X126319030Y-114420671D01*
X126310765Y-114397572D01*
X126304804Y-114373773D01*
X126301204Y-114349505D01*
X126300000Y-114325001D01*
X126300000Y-113674999D01*
X126301204Y-113650495D01*
X126304804Y-113626227D01*
X126310765Y-113602428D01*
X126319030Y-113579329D01*
X126329520Y-113557150D01*
X126342132Y-113536107D01*
X126356747Y-113516401D01*
X126373223Y-113498223D01*
X126391401Y-113481747D01*
X126411107Y-113467132D01*
X126432150Y-113454520D01*
X126454329Y-113444030D01*
X126477428Y-113435765D01*
X126501227Y-113429804D01*
X126525495Y-113426204D01*
X126549999Y-113425000D01*
X127450001Y-113425000D01*
X127474505Y-113426204D01*
X127474505Y-113426204D01*
G37*
D17*
X127000000Y-114000000D03*
D22*
X134250000Y-108200000D03*
X134250000Y-107250000D03*
X134250000Y-106300000D03*
X132050000Y-106300000D03*
X132050000Y-108200000D03*
D23*
X125000000Y-101000000D03*
X124874990Y-121500000D03*
X134000000Y-101000000D03*
X134000000Y-121500000D03*
X134000000Y-117500000D03*
X134000000Y-97000000D03*
X125000000Y-117500000D03*
X130250000Y-108000000D03*
X125000000Y-97000000D03*
X134250000Y-105000000D03*
X134250000Y-109500000D03*
X130350000Y-119250000D03*
X129875010Y-98500009D03*
X128300000Y-119199999D03*
X130336501Y-120336501D03*
X128300000Y-120399994D03*
X128500000Y-99700000D03*
X131700000Y-120600000D03*
X131700000Y-118300000D03*
X126600000Y-97600000D03*
X126300000Y-121900000D03*
X126300000Y-117900000D03*
X125000000Y-122800000D03*
X126100000Y-112300000D03*
X127200000Y-100800000D03*
X127000000Y-92100000D03*
X133000000Y-121200000D03*
X131999998Y-112700000D03*
X132100000Y-100600000D03*
X132100000Y-92099996D03*
D24*
X141300000Y-134100000D02*
X141400000Y-134000000D01*
X140300000Y-134100000D02*
X141300000Y-134100000D01*
D25*
X125000000Y-99850000D02*
X125000000Y-101000000D01*
D24*
X124874990Y-120934315D02*
X124874990Y-121500000D01*
X125000000Y-120650002D02*
X124874990Y-120775012D01*
X124874990Y-120775012D02*
X124874990Y-120934315D01*
D26*
X121220000Y-114000000D02*
X120920000Y-114300000D01*
X125000000Y-114000000D02*
X121220000Y-114000000D01*
X121400000Y-93500000D02*
X120920000Y-93980000D01*
X125000000Y-93500000D02*
X121400000Y-93500000D01*
X142200000Y-133200000D02*
X141400000Y-134000000D01*
X142200000Y-131500000D02*
X142200000Y-133200000D01*
X137300000Y-107250000D02*
X137660000Y-106890000D01*
X134250000Y-107250000D02*
X137300000Y-107250000D01*
D25*
X125000000Y-118650000D02*
X125000000Y-117500000D01*
X125000000Y-117500000D02*
X125000000Y-116050000D01*
D26*
X127000000Y-95550000D02*
X125000000Y-95550000D01*
X127000000Y-116050000D02*
X125000000Y-116050000D01*
X131020000Y-108200000D02*
X130820000Y-108000000D01*
X132050000Y-108200000D02*
X131020000Y-108200000D01*
X130820000Y-108000000D02*
X130250000Y-108000000D01*
D25*
X125000000Y-98150000D02*
X125000000Y-97000000D01*
D24*
X125000000Y-97000000D02*
X125000000Y-95550000D01*
D26*
X144300000Y-131450000D02*
X144250000Y-131500000D01*
X146500000Y-131450000D02*
X144300000Y-131450000D01*
D24*
X137700000Y-135025000D02*
X137700000Y-134100000D01*
X130000000Y-135012000D02*
X130000000Y-134000000D01*
X130488000Y-135500000D02*
X130000000Y-135012000D01*
X137700000Y-135025000D02*
X137225000Y-135500000D01*
X137225000Y-135500000D02*
X130488000Y-135500000D01*
X137700000Y-135025000D02*
X138175000Y-135500000D01*
X138175000Y-135500000D02*
X146000000Y-135500000D01*
X146500000Y-135000000D02*
X146500000Y-133500000D01*
X146000000Y-135500000D02*
X146500000Y-135000000D01*
D26*
X134250000Y-106300000D02*
X134250000Y-105000000D01*
X134250000Y-108200000D02*
X134250000Y-109500000D01*
D24*
X129300000Y-99200000D02*
X128850000Y-98750000D01*
X128850000Y-98750000D02*
X125600000Y-98750000D01*
X129350011Y-99250011D02*
X129300000Y-99200000D01*
X129350011Y-109050011D02*
X129350011Y-99250011D01*
X139000000Y-133175000D02*
X137624989Y-131799989D01*
X139000000Y-134100000D02*
X139000000Y-133175000D01*
X129600000Y-109300000D02*
X129350011Y-109050011D01*
X133299989Y-131799989D02*
X129600000Y-128100000D01*
X137624989Y-131799989D02*
X133299989Y-131799989D01*
X130350000Y-119250000D02*
X129650000Y-119250000D01*
X129600000Y-128100000D02*
X129600000Y-119300000D01*
X129650000Y-119250000D02*
X129600000Y-119300000D01*
X129600000Y-119300000D02*
X129600000Y-109300000D01*
X129475011Y-98900008D02*
X129875010Y-98500009D01*
X129300000Y-99075019D02*
X129475011Y-98900008D01*
X129300000Y-99200000D02*
X129300000Y-99075019D01*
X128249999Y-119250000D02*
X128300000Y-119199999D01*
X125600000Y-119250000D02*
X128249999Y-119250000D01*
X138350000Y-133175000D02*
X137425000Y-132250000D01*
X138350000Y-134100000D02*
X138350000Y-133175000D01*
X137425000Y-132250000D02*
X133000000Y-132250000D01*
X133000000Y-132250000D02*
X129100000Y-128350000D01*
X129100000Y-128350000D02*
X129100000Y-120400000D01*
X128865685Y-120399994D02*
X128300000Y-120399994D01*
X129099994Y-120399994D02*
X128865685Y-120399994D01*
X129100000Y-120400000D02*
X129099994Y-120399994D01*
X127900001Y-119999995D02*
X128300000Y-120399994D01*
X125600000Y-119750000D02*
X127650006Y-119750000D01*
X127650006Y-119750000D02*
X127900001Y-119999995D01*
X128450000Y-99750000D02*
X128500000Y-99700000D01*
X128450000Y-118176996D02*
X128450000Y-99750000D01*
X129125003Y-118851999D02*
X128450000Y-118176996D01*
X129100000Y-120400000D02*
X129125002Y-120374998D01*
X129125002Y-120374998D02*
X129125003Y-118851999D01*
X128050000Y-99250000D02*
X128500000Y-99700000D01*
X125600000Y-99250000D02*
X128050000Y-99250000D01*
X117750000Y-98000000D02*
X117750000Y-95000000D01*
X124250000Y-98750000D02*
X124200010Y-98799990D01*
X116920000Y-94170000D02*
X116920000Y-93980000D01*
X124400000Y-98750000D02*
X124250000Y-98750000D01*
X124200010Y-98799990D02*
X123673600Y-98799990D01*
X123673600Y-98799990D02*
X123473590Y-99000000D01*
X123473590Y-99000000D02*
X118750000Y-99000000D01*
X117750000Y-95000000D02*
X116920000Y-94170000D01*
X118750000Y-99000000D02*
X117750000Y-98000000D01*
X118920000Y-94330000D02*
X118920000Y-93980000D01*
X123250000Y-98250000D02*
X123000000Y-98500000D01*
X124400000Y-98250000D02*
X123250000Y-98250000D01*
X123000000Y-98500000D02*
X119000000Y-98500000D01*
X119000000Y-98500000D02*
X118250000Y-97750000D01*
X118250000Y-97750000D02*
X118250000Y-95000000D01*
X118250000Y-95000000D02*
X118920000Y-94330000D01*
X118250000Y-108500000D02*
X118250000Y-105250000D01*
X123860000Y-99250000D02*
X123500000Y-99610000D01*
X124400000Y-99250000D02*
X123860000Y-99250000D01*
X118250000Y-105250000D02*
X118920000Y-104580000D01*
X123500000Y-99610000D02*
X123500000Y-107863590D01*
X123500000Y-107863590D02*
X122363590Y-109000000D01*
X122363590Y-109000000D02*
X118750000Y-109000000D01*
X118920000Y-104580000D02*
X118920000Y-104140000D01*
X118750000Y-109000000D02*
X118250000Y-108500000D01*
X116920000Y-104420000D02*
X116920000Y-104140000D01*
X117750000Y-105250000D02*
X116920000Y-104420000D01*
X117750000Y-108636411D02*
X117750000Y-105250000D01*
X124400000Y-100125000D02*
X124000000Y-100525000D01*
X124000000Y-100525000D02*
X124000000Y-108000000D01*
X124400000Y-99750000D02*
X124400000Y-100125000D01*
X124000000Y-108000000D02*
X122549990Y-109450011D01*
X122549990Y-109450011D02*
X118563600Y-109450011D01*
X118563600Y-109450011D02*
X117750000Y-108636411D01*
X116920000Y-114420000D02*
X116920000Y-114300000D01*
X124400000Y-119250000D02*
X124250000Y-119250000D01*
X124250000Y-119250000D02*
X124200010Y-119299990D01*
X124200010Y-119299990D02*
X118549990Y-119299990D01*
X118549990Y-119299990D02*
X117750000Y-118500000D01*
X117750000Y-118500000D02*
X117750000Y-115250000D01*
X117750000Y-115250000D02*
X116920000Y-114420000D01*
X118250000Y-115250000D02*
X118920000Y-114580000D01*
X118849980Y-118849980D02*
X118250000Y-118250000D01*
X118250000Y-118250000D02*
X118250000Y-115250000D01*
X124350010Y-118799990D02*
X124063600Y-118799990D01*
X124063600Y-118799990D02*
X124063591Y-118799999D01*
X124063591Y-118799999D02*
X123849999Y-118799999D01*
X124400000Y-118750000D02*
X124350010Y-118799990D01*
X123849999Y-118799999D02*
X123800018Y-118849980D01*
X118920000Y-114580000D02*
X118920000Y-114300000D01*
X123800018Y-118849980D02*
X118849980Y-118849980D01*
X119000000Y-124750000D02*
X119000000Y-124460000D01*
X118250000Y-125500000D02*
X119000000Y-124750000D01*
X123860000Y-119750000D02*
X123500000Y-120110000D01*
X124400000Y-119750000D02*
X123860000Y-119750000D01*
X123500000Y-120110000D02*
X123500000Y-128250000D01*
X118250000Y-128500000D02*
X118250000Y-125500000D01*
X123500000Y-128250000D02*
X122750000Y-129000000D01*
X122750000Y-129000000D02*
X118750000Y-129000000D01*
X118750000Y-129000000D02*
X118250000Y-128500000D01*
X117000000Y-124750000D02*
X117000000Y-124460000D01*
X124000000Y-120650000D02*
X124000000Y-128500000D01*
X124400000Y-120250000D02*
X124000000Y-120650000D01*
X124000000Y-128500000D02*
X123049990Y-129450010D01*
X123049990Y-129450010D02*
X118450010Y-129450010D01*
X117750000Y-125500000D02*
X117000000Y-124750000D01*
X118450010Y-129450010D02*
X117750000Y-128750000D01*
X117750000Y-128750000D02*
X117750000Y-125500000D01*
D27*
X131700000Y-118300000D02*
X131700000Y-120600000D01*
X125600000Y-97975000D02*
X125975000Y-97600000D01*
X125600000Y-98250000D02*
X125600000Y-97975000D01*
X125975000Y-97600000D02*
X126600000Y-97600000D01*
X123000000Y-130600000D02*
X126300000Y-127300000D01*
X122000000Y-134000000D02*
X123000000Y-133000000D01*
X126300000Y-127300000D02*
X126300000Y-122600000D01*
X123000000Y-133000000D02*
X123000000Y-130600000D01*
X126300000Y-122600000D02*
X126300000Y-122100000D01*
X126300000Y-122100000D02*
X126300000Y-121900000D01*
X126300000Y-121900000D02*
X126300000Y-121900000D01*
X125600000Y-118750000D02*
X125600000Y-118100000D01*
X125600000Y-118100000D02*
X125800000Y-117900000D01*
X125800000Y-117900000D02*
X126300000Y-117900000D01*
X122000000Y-132000000D02*
X122000000Y-131105010D01*
X125599999Y-127505011D02*
X125600000Y-122500000D01*
X122000000Y-131105010D02*
X125599999Y-127505011D01*
X125600000Y-122500000D02*
X125600000Y-120250000D01*
D24*
X125600000Y-122500000D02*
X125300000Y-122500000D01*
X125300000Y-122500000D02*
X125000000Y-122800000D01*
X126100000Y-112300000D02*
X126700000Y-112300000D01*
X127000000Y-112600000D02*
X127000000Y-114000000D01*
X126700000Y-112300000D02*
X127000000Y-112600000D01*
D27*
X126040000Y-99750000D02*
X125600000Y-99750000D01*
X126715685Y-99750000D02*
X126040000Y-99750000D01*
X127200000Y-100234315D02*
X126715685Y-99750000D01*
X127200000Y-100800000D02*
X127200000Y-100234315D01*
D24*
X127000000Y-93500000D02*
X127000000Y-92100000D01*
M02*
