G04 #@! TF.GenerationSoftware,KiCad,Pcbnew,(5.1.0)-1*
G04 #@! TF.CreationDate,2020-02-18T23:46:36-06:00*
G04 #@! TF.ProjectId,USBMuxV1,5553424d-7578-4563-912e-6b696361645f,rev?*
G04 #@! TF.SameCoordinates,Original*
G04 #@! TF.FileFunction,Soldermask,Top*
G04 #@! TF.FilePolarity,Negative*
%FSLAX46Y46*%
G04 Gerber Fmt 4.6, Leading zero omitted, Abs format (unit mm)*
G04 Created by KiCad (PCBNEW (5.1.0)-1) date 2020-02-18 23:46:36*
%MOMM*%
%LPD*%
G04 APERTURE LIST*
%ADD10C,0.100000*%
G04 APERTURE END LIST*
D10*
G36*
X143227542Y-136010227D02*
G01*
X143314031Y-136036463D01*
X143393733Y-136079065D01*
X143463598Y-136136402D01*
X143520935Y-136206267D01*
X143563537Y-136285969D01*
X143589773Y-136372458D01*
X143599000Y-136466143D01*
X143599000Y-137533857D01*
X143589773Y-137627542D01*
X143563537Y-137714031D01*
X143520935Y-137793733D01*
X143463598Y-137863598D01*
X143393733Y-137920935D01*
X143314031Y-137963537D01*
X143227542Y-137989773D01*
X143133857Y-137999000D01*
X142066143Y-137999000D01*
X141972458Y-137989773D01*
X141885969Y-137963537D01*
X141806267Y-137920935D01*
X141736402Y-137863598D01*
X141679065Y-137793733D01*
X141636463Y-137714031D01*
X141610227Y-137627542D01*
X141601000Y-137533857D01*
X141601000Y-136466143D01*
X141610227Y-136372458D01*
X141636463Y-136285969D01*
X141679065Y-136206267D01*
X141736402Y-136136402D01*
X141806267Y-136079065D01*
X141885969Y-136036463D01*
X141972458Y-136010227D01*
X142066143Y-136001000D01*
X143133857Y-136001000D01*
X143227542Y-136010227D01*
X143227542Y-136010227D01*
G37*
G36*
X136027542Y-136010227D02*
G01*
X136114031Y-136036463D01*
X136193733Y-136079065D01*
X136263598Y-136136402D01*
X136320935Y-136206267D01*
X136363537Y-136285969D01*
X136389773Y-136372458D01*
X136399000Y-136466143D01*
X136399000Y-137533857D01*
X136389773Y-137627542D01*
X136363537Y-137714031D01*
X136320935Y-137793733D01*
X136263598Y-137863598D01*
X136193733Y-137920935D01*
X136114031Y-137963537D01*
X136027542Y-137989773D01*
X135933857Y-137999000D01*
X134866143Y-137999000D01*
X134772458Y-137989773D01*
X134685969Y-137963537D01*
X134606267Y-137920935D01*
X134536402Y-137863598D01*
X134479065Y-137793733D01*
X134436463Y-137714031D01*
X134410227Y-137627542D01*
X134401000Y-137533857D01*
X134401000Y-136466143D01*
X134410227Y-136372458D01*
X134436463Y-136285969D01*
X134479065Y-136206267D01*
X134536402Y-136136402D01*
X134606267Y-136079065D01*
X134685969Y-136036463D01*
X134772458Y-136010227D01*
X134866143Y-136001000D01*
X135933857Y-136001000D01*
X136027542Y-136010227D01*
X136027542Y-136010227D01*
G37*
G36*
X138699000Y-137949000D02*
G01*
X136801000Y-137949000D01*
X136801000Y-136051000D01*
X138699000Y-136051000D01*
X138699000Y-137949000D01*
X138699000Y-137949000D01*
G37*
G36*
X141199000Y-137949000D02*
G01*
X139301000Y-137949000D01*
X139301000Y-136051000D01*
X141199000Y-136051000D01*
X141199000Y-137949000D01*
X141199000Y-137949000D01*
G37*
G36*
X124226759Y-133252475D02*
G01*
X124368237Y-133311077D01*
X124495564Y-133396154D01*
X124603846Y-133504436D01*
X124688923Y-133631763D01*
X124747525Y-133773241D01*
X124777400Y-133923433D01*
X124777400Y-134076567D01*
X124747525Y-134226759D01*
X124688923Y-134368237D01*
X124603846Y-134495564D01*
X124495564Y-134603846D01*
X124368237Y-134688923D01*
X124226759Y-134747525D01*
X124076567Y-134777400D01*
X123923433Y-134777400D01*
X123773241Y-134747525D01*
X123631763Y-134688923D01*
X123504436Y-134603846D01*
X123396154Y-134495564D01*
X123311077Y-134368237D01*
X123252475Y-134226759D01*
X123222600Y-134076567D01*
X123222600Y-133923433D01*
X123252475Y-133773241D01*
X123311077Y-133631763D01*
X123396154Y-133504436D01*
X123504436Y-133396154D01*
X123631763Y-133311077D01*
X123773241Y-133252475D01*
X123923433Y-133222600D01*
X124076567Y-133222600D01*
X124226759Y-133252475D01*
X124226759Y-133252475D01*
G37*
G36*
X130777400Y-134777400D02*
G01*
X129222600Y-134777400D01*
X129222600Y-133222600D01*
X130777400Y-133222600D01*
X130777400Y-134777400D01*
X130777400Y-134777400D01*
G37*
G36*
X128226759Y-133252475D02*
G01*
X128368237Y-133311077D01*
X128495564Y-133396154D01*
X128603846Y-133504436D01*
X128688923Y-133631763D01*
X128747525Y-133773241D01*
X128777400Y-133923433D01*
X128777400Y-134076567D01*
X128747525Y-134226759D01*
X128688923Y-134368237D01*
X128603846Y-134495564D01*
X128495564Y-134603846D01*
X128368237Y-134688923D01*
X128226759Y-134747525D01*
X128076567Y-134777400D01*
X127923433Y-134777400D01*
X127773241Y-134747525D01*
X127631763Y-134688923D01*
X127504436Y-134603846D01*
X127396154Y-134495564D01*
X127311077Y-134368237D01*
X127252475Y-134226759D01*
X127222600Y-134076567D01*
X127222600Y-133923433D01*
X127252475Y-133773241D01*
X127311077Y-133631763D01*
X127396154Y-133504436D01*
X127504436Y-133396154D01*
X127631763Y-133311077D01*
X127773241Y-133252475D01*
X127923433Y-133222600D01*
X128076567Y-133222600D01*
X128226759Y-133252475D01*
X128226759Y-133252475D01*
G37*
G36*
X126226759Y-133252475D02*
G01*
X126368237Y-133311077D01*
X126495564Y-133396154D01*
X126603846Y-133504436D01*
X126688923Y-133631763D01*
X126747525Y-133773241D01*
X126777400Y-133923433D01*
X126777400Y-134076567D01*
X126747525Y-134226759D01*
X126688923Y-134368237D01*
X126603846Y-134495564D01*
X126495564Y-134603846D01*
X126368237Y-134688923D01*
X126226759Y-134747525D01*
X126076567Y-134777400D01*
X125923433Y-134777400D01*
X125773241Y-134747525D01*
X125631763Y-134688923D01*
X125504436Y-134603846D01*
X125396154Y-134495564D01*
X125311077Y-134368237D01*
X125252475Y-134226759D01*
X125222600Y-134076567D01*
X125222600Y-133923433D01*
X125252475Y-133773241D01*
X125311077Y-133631763D01*
X125396154Y-133504436D01*
X125504436Y-133396154D01*
X125631763Y-133311077D01*
X125773241Y-133252475D01*
X125923433Y-133222600D01*
X126076567Y-133222600D01*
X126226759Y-133252475D01*
X126226759Y-133252475D01*
G37*
G36*
X122226759Y-133252475D02*
G01*
X122368237Y-133311077D01*
X122495564Y-133396154D01*
X122603846Y-133504436D01*
X122688923Y-133631763D01*
X122747525Y-133773241D01*
X122777400Y-133923433D01*
X122777400Y-134076567D01*
X122747525Y-134226759D01*
X122688923Y-134368237D01*
X122603846Y-134495564D01*
X122495564Y-134603846D01*
X122368237Y-134688923D01*
X122226759Y-134747525D01*
X122076567Y-134777400D01*
X121923433Y-134777400D01*
X121773241Y-134747525D01*
X121631763Y-134688923D01*
X121504436Y-134603846D01*
X121396154Y-134495564D01*
X121311077Y-134368237D01*
X121252475Y-134226759D01*
X121222600Y-134076567D01*
X121222600Y-133923433D01*
X121252475Y-133773241D01*
X121311077Y-133631763D01*
X121396154Y-133504436D01*
X121504436Y-133396154D01*
X121631763Y-133311077D01*
X121773241Y-133252475D01*
X121923433Y-133222600D01*
X122076567Y-133222600D01*
X122226759Y-133252475D01*
X122226759Y-133252475D01*
G37*
G36*
X120226759Y-133252475D02*
G01*
X120368237Y-133311077D01*
X120495564Y-133396154D01*
X120603846Y-133504436D01*
X120688923Y-133631763D01*
X120747525Y-133773241D01*
X120777400Y-133923433D01*
X120777400Y-134076567D01*
X120747525Y-134226759D01*
X120688923Y-134368237D01*
X120603846Y-134495564D01*
X120495564Y-134603846D01*
X120368237Y-134688923D01*
X120226759Y-134747525D01*
X120076567Y-134777400D01*
X119923433Y-134777400D01*
X119773241Y-134747525D01*
X119631763Y-134688923D01*
X119504436Y-134603846D01*
X119396154Y-134495564D01*
X119311077Y-134368237D01*
X119252475Y-134226759D01*
X119222600Y-134076567D01*
X119222600Y-133923433D01*
X119252475Y-133773241D01*
X119311077Y-133631763D01*
X119396154Y-133504436D01*
X119504436Y-133396154D01*
X119631763Y-133311077D01*
X119773241Y-133252475D01*
X119923433Y-133222600D01*
X120076567Y-133222600D01*
X120226759Y-133252475D01*
X120226759Y-133252475D01*
G37*
G36*
X118226759Y-133252475D02*
G01*
X118368237Y-133311077D01*
X118495564Y-133396154D01*
X118603846Y-133504436D01*
X118688923Y-133631763D01*
X118747525Y-133773241D01*
X118777400Y-133923433D01*
X118777400Y-134076567D01*
X118747525Y-134226759D01*
X118688923Y-134368237D01*
X118603846Y-134495564D01*
X118495564Y-134603846D01*
X118368237Y-134688923D01*
X118226759Y-134747525D01*
X118076567Y-134777400D01*
X117923433Y-134777400D01*
X117773241Y-134747525D01*
X117631763Y-134688923D01*
X117504436Y-134603846D01*
X117396154Y-134495564D01*
X117311077Y-134368237D01*
X117252475Y-134226759D01*
X117222600Y-134076567D01*
X117222600Y-133923433D01*
X117252475Y-133773241D01*
X117311077Y-133631763D01*
X117396154Y-133504436D01*
X117504436Y-133396154D01*
X117631763Y-133311077D01*
X117773241Y-133252475D01*
X117923433Y-133222600D01*
X118076567Y-133222600D01*
X118226759Y-133252475D01*
X118226759Y-133252475D01*
G37*
G36*
X116226759Y-133252475D02*
G01*
X116368237Y-133311077D01*
X116495564Y-133396154D01*
X116603846Y-133504436D01*
X116688923Y-133631763D01*
X116747525Y-133773241D01*
X116777400Y-133923433D01*
X116777400Y-134076567D01*
X116747525Y-134226759D01*
X116688923Y-134368237D01*
X116603846Y-134495564D01*
X116495564Y-134603846D01*
X116368237Y-134688923D01*
X116226759Y-134747525D01*
X116076567Y-134777400D01*
X115923433Y-134777400D01*
X115773241Y-134747525D01*
X115631763Y-134688923D01*
X115504436Y-134603846D01*
X115396154Y-134495564D01*
X115311077Y-134368237D01*
X115252475Y-134226759D01*
X115222600Y-134076567D01*
X115222600Y-133923433D01*
X115252475Y-133773241D01*
X115311077Y-133631763D01*
X115396154Y-133504436D01*
X115504436Y-133396154D01*
X115631763Y-133311077D01*
X115773241Y-133252475D01*
X115923433Y-133222600D01*
X116076567Y-133222600D01*
X116226759Y-133252475D01*
X116226759Y-133252475D01*
G37*
G36*
X139849000Y-134774000D02*
G01*
X139451000Y-134774000D01*
X139451000Y-133426000D01*
X139849000Y-133426000D01*
X139849000Y-134774000D01*
X139849000Y-134774000D01*
G37*
G36*
X139199000Y-134774000D02*
G01*
X138801000Y-134774000D01*
X138801000Y-133426000D01*
X139199000Y-133426000D01*
X139199000Y-134774000D01*
X139199000Y-134774000D01*
G37*
G36*
X138549000Y-134774000D02*
G01*
X138151000Y-134774000D01*
X138151000Y-133426000D01*
X138549000Y-133426000D01*
X138549000Y-134774000D01*
X138549000Y-134774000D01*
G37*
G36*
X137899000Y-134774000D02*
G01*
X137501000Y-134774000D01*
X137501000Y-133426000D01*
X137899000Y-133426000D01*
X137899000Y-134774000D01*
X137899000Y-134774000D01*
G37*
G36*
X140499000Y-134774000D02*
G01*
X140101000Y-134774000D01*
X140101000Y-133426000D01*
X140499000Y-133426000D01*
X140499000Y-134774000D01*
X140499000Y-134774000D01*
G37*
G36*
X141507620Y-133358943D02*
G01*
X141566047Y-133376667D01*
X141611109Y-133390336D01*
X141706484Y-133441315D01*
X141790080Y-133509920D01*
X141828589Y-133556844D01*
X141858684Y-133593514D01*
X141858685Y-133593516D01*
X141909664Y-133688890D01*
X141923333Y-133733952D01*
X141941057Y-133792379D01*
X141949000Y-133873029D01*
X141949000Y-134126970D01*
X141941057Y-134207620D01*
X141923333Y-134266047D01*
X141909664Y-134311109D01*
X141879128Y-134368237D01*
X141858684Y-134406486D01*
X141840813Y-134428262D01*
X141790080Y-134490080D01*
X141728262Y-134540813D01*
X141706486Y-134558684D01*
X141706484Y-134558685D01*
X141611110Y-134609664D01*
X141566048Y-134623333D01*
X141507621Y-134641057D01*
X141400000Y-134651656D01*
X141292380Y-134641057D01*
X141233953Y-134623333D01*
X141188891Y-134609664D01*
X141093517Y-134558685D01*
X141093515Y-134558684D01*
X141071739Y-134540813D01*
X141009921Y-134490080D01*
X140952605Y-134420240D01*
X140941314Y-134406482D01*
X140890338Y-134311113D01*
X140890336Y-134311110D01*
X140858944Y-134207623D01*
X140858943Y-134207621D01*
X140851000Y-134126971D01*
X140851000Y-133873030D01*
X140858943Y-133792380D01*
X140890336Y-133688892D01*
X140890336Y-133688891D01*
X140941315Y-133593516D01*
X141009920Y-133509920D01*
X141056844Y-133471411D01*
X141093514Y-133441316D01*
X141122168Y-133426000D01*
X141188890Y-133390336D01*
X141233952Y-133376667D01*
X141292379Y-133358943D01*
X141400000Y-133348344D01*
X141507620Y-133358943D01*
X141507620Y-133358943D01*
G37*
G36*
X136707620Y-133358943D02*
G01*
X136766047Y-133376667D01*
X136811109Y-133390336D01*
X136906484Y-133441315D01*
X136990080Y-133509920D01*
X137028589Y-133556844D01*
X137058684Y-133593514D01*
X137058685Y-133593516D01*
X137109664Y-133688890D01*
X137123333Y-133733952D01*
X137141057Y-133792379D01*
X137149000Y-133873029D01*
X137149000Y-134126970D01*
X137141057Y-134207620D01*
X137123333Y-134266047D01*
X137109664Y-134311109D01*
X137079128Y-134368237D01*
X137058684Y-134406486D01*
X137040813Y-134428262D01*
X136990080Y-134490080D01*
X136928262Y-134540813D01*
X136906486Y-134558684D01*
X136906484Y-134558685D01*
X136811110Y-134609664D01*
X136766048Y-134623333D01*
X136707621Y-134641057D01*
X136600000Y-134651656D01*
X136492380Y-134641057D01*
X136433953Y-134623333D01*
X136388891Y-134609664D01*
X136293517Y-134558685D01*
X136293515Y-134558684D01*
X136271739Y-134540813D01*
X136209921Y-134490080D01*
X136152605Y-134420240D01*
X136141314Y-134406482D01*
X136090338Y-134311113D01*
X136090336Y-134311110D01*
X136058944Y-134207623D01*
X136058943Y-134207621D01*
X136051000Y-134126971D01*
X136051000Y-133873030D01*
X136058943Y-133792380D01*
X136090336Y-133688892D01*
X136090336Y-133688891D01*
X136141315Y-133593516D01*
X136209920Y-133509920D01*
X136256844Y-133471411D01*
X136293514Y-133441316D01*
X136322168Y-133426000D01*
X136388890Y-133390336D01*
X136433952Y-133376667D01*
X136492379Y-133358943D01*
X136600000Y-133348344D01*
X136707620Y-133358943D01*
X136707620Y-133358943D01*
G37*
G36*
X147132432Y-132778210D02*
G01*
X147183613Y-132793736D01*
X147230782Y-132818949D01*
X147272123Y-132852877D01*
X147306051Y-132894218D01*
X147331264Y-132941387D01*
X147346790Y-132992568D01*
X147352400Y-133049533D01*
X147352400Y-133950467D01*
X147346790Y-134007432D01*
X147331264Y-134058613D01*
X147306051Y-134105782D01*
X147272123Y-134147123D01*
X147230782Y-134181051D01*
X147183613Y-134206264D01*
X147132432Y-134221790D01*
X147075467Y-134227400D01*
X145924533Y-134227400D01*
X145867568Y-134221790D01*
X145816387Y-134206264D01*
X145769218Y-134181051D01*
X145727877Y-134147123D01*
X145693949Y-134105782D01*
X145668736Y-134058613D01*
X145653210Y-134007432D01*
X145647600Y-133950467D01*
X145647600Y-133049533D01*
X145653210Y-132992568D01*
X145668736Y-132941387D01*
X145693949Y-132894218D01*
X145727877Y-132852877D01*
X145769218Y-132818949D01*
X145816387Y-132793736D01*
X145867568Y-132778210D01*
X145924533Y-132772600D01*
X147075467Y-132772600D01*
X147132432Y-132778210D01*
X147132432Y-132778210D01*
G37*
G36*
X124226759Y-131252475D02*
G01*
X124368237Y-131311077D01*
X124495564Y-131396154D01*
X124603846Y-131504436D01*
X124688923Y-131631763D01*
X124747525Y-131773241D01*
X124777400Y-131923433D01*
X124777400Y-132076567D01*
X124747525Y-132226759D01*
X124688923Y-132368237D01*
X124603846Y-132495564D01*
X124495564Y-132603846D01*
X124368237Y-132688923D01*
X124226759Y-132747525D01*
X124076567Y-132777400D01*
X123923433Y-132777400D01*
X123773241Y-132747525D01*
X123631763Y-132688923D01*
X123504436Y-132603846D01*
X123396154Y-132495564D01*
X123311077Y-132368237D01*
X123252475Y-132226759D01*
X123222600Y-132076567D01*
X123222600Y-131923433D01*
X123252475Y-131773241D01*
X123311077Y-131631763D01*
X123396154Y-131504436D01*
X123504436Y-131396154D01*
X123631763Y-131311077D01*
X123773241Y-131252475D01*
X123923433Y-131222600D01*
X124076567Y-131222600D01*
X124226759Y-131252475D01*
X124226759Y-131252475D01*
G37*
G36*
X122226759Y-131252475D02*
G01*
X122368237Y-131311077D01*
X122495564Y-131396154D01*
X122603846Y-131504436D01*
X122688923Y-131631763D01*
X122747525Y-131773241D01*
X122777400Y-131923433D01*
X122777400Y-132076567D01*
X122747525Y-132226759D01*
X122688923Y-132368237D01*
X122603846Y-132495564D01*
X122495564Y-132603846D01*
X122368237Y-132688923D01*
X122226759Y-132747525D01*
X122076567Y-132777400D01*
X121923433Y-132777400D01*
X121773241Y-132747525D01*
X121631763Y-132688923D01*
X121504436Y-132603846D01*
X121396154Y-132495564D01*
X121311077Y-132368237D01*
X121252475Y-132226759D01*
X121222600Y-132076567D01*
X121222600Y-131923433D01*
X121252475Y-131773241D01*
X121311077Y-131631763D01*
X121396154Y-131504436D01*
X121504436Y-131396154D01*
X121631763Y-131311077D01*
X121773241Y-131252475D01*
X121923433Y-131222600D01*
X122076567Y-131222600D01*
X122226759Y-131252475D01*
X122226759Y-131252475D01*
G37*
G36*
X116226759Y-131252475D02*
G01*
X116368237Y-131311077D01*
X116495564Y-131396154D01*
X116603846Y-131504436D01*
X116688923Y-131631763D01*
X116747525Y-131773241D01*
X116777400Y-131923433D01*
X116777400Y-132076567D01*
X116747525Y-132226759D01*
X116688923Y-132368237D01*
X116603846Y-132495564D01*
X116495564Y-132603846D01*
X116368237Y-132688923D01*
X116226759Y-132747525D01*
X116076567Y-132777400D01*
X115923433Y-132777400D01*
X115773241Y-132747525D01*
X115631763Y-132688923D01*
X115504436Y-132603846D01*
X115396154Y-132495564D01*
X115311077Y-132368237D01*
X115252475Y-132226759D01*
X115222600Y-132076567D01*
X115222600Y-131923433D01*
X115252475Y-131773241D01*
X115311077Y-131631763D01*
X115396154Y-131504436D01*
X115504436Y-131396154D01*
X115631763Y-131311077D01*
X115773241Y-131252475D01*
X115923433Y-131222600D01*
X116076567Y-131222600D01*
X116226759Y-131252475D01*
X116226759Y-131252475D01*
G37*
G36*
X118226759Y-131252475D02*
G01*
X118368237Y-131311077D01*
X118495564Y-131396154D01*
X118603846Y-131504436D01*
X118688923Y-131631763D01*
X118747525Y-131773241D01*
X118777400Y-131923433D01*
X118777400Y-132076567D01*
X118747525Y-132226759D01*
X118688923Y-132368237D01*
X118603846Y-132495564D01*
X118495564Y-132603846D01*
X118368237Y-132688923D01*
X118226759Y-132747525D01*
X118076567Y-132777400D01*
X117923433Y-132777400D01*
X117773241Y-132747525D01*
X117631763Y-132688923D01*
X117504436Y-132603846D01*
X117396154Y-132495564D01*
X117311077Y-132368237D01*
X117252475Y-132226759D01*
X117222600Y-132076567D01*
X117222600Y-131923433D01*
X117252475Y-131773241D01*
X117311077Y-131631763D01*
X117396154Y-131504436D01*
X117504436Y-131396154D01*
X117631763Y-131311077D01*
X117773241Y-131252475D01*
X117923433Y-131222600D01*
X118076567Y-131222600D01*
X118226759Y-131252475D01*
X118226759Y-131252475D01*
G37*
G36*
X120226759Y-131252475D02*
G01*
X120368237Y-131311077D01*
X120495564Y-131396154D01*
X120603846Y-131504436D01*
X120688923Y-131631763D01*
X120747525Y-131773241D01*
X120777400Y-131923433D01*
X120777400Y-132076567D01*
X120747525Y-132226759D01*
X120688923Y-132368237D01*
X120603846Y-132495564D01*
X120495564Y-132603846D01*
X120368237Y-132688923D01*
X120226759Y-132747525D01*
X120076567Y-132777400D01*
X119923433Y-132777400D01*
X119773241Y-132747525D01*
X119631763Y-132688923D01*
X119504436Y-132603846D01*
X119396154Y-132495564D01*
X119311077Y-132368237D01*
X119252475Y-132226759D01*
X119222600Y-132076567D01*
X119222600Y-131923433D01*
X119252475Y-131773241D01*
X119311077Y-131631763D01*
X119396154Y-131504436D01*
X119504436Y-131396154D01*
X119631763Y-131311077D01*
X119773241Y-131252475D01*
X119923433Y-131222600D01*
X120076567Y-131222600D01*
X120226759Y-131252475D01*
X120226759Y-131252475D01*
G37*
G36*
X126226759Y-131252475D02*
G01*
X126368237Y-131311077D01*
X126495564Y-131396154D01*
X126603846Y-131504436D01*
X126688923Y-131631763D01*
X126747525Y-131773241D01*
X126777400Y-131923433D01*
X126777400Y-132076567D01*
X126747525Y-132226759D01*
X126688923Y-132368237D01*
X126603846Y-132495564D01*
X126495564Y-132603846D01*
X126368237Y-132688923D01*
X126226759Y-132747525D01*
X126076567Y-132777400D01*
X125923433Y-132777400D01*
X125773241Y-132747525D01*
X125631763Y-132688923D01*
X125504436Y-132603846D01*
X125396154Y-132495564D01*
X125311077Y-132368237D01*
X125252475Y-132226759D01*
X125222600Y-132076567D01*
X125222600Y-131923433D01*
X125252475Y-131773241D01*
X125311077Y-131631763D01*
X125396154Y-131504436D01*
X125504436Y-131396154D01*
X125631763Y-131311077D01*
X125773241Y-131252475D01*
X125923433Y-131222600D01*
X126076567Y-131222600D01*
X126226759Y-131252475D01*
X126226759Y-131252475D01*
G37*
G36*
X130226759Y-131252475D02*
G01*
X130368237Y-131311077D01*
X130495564Y-131396154D01*
X130603846Y-131504436D01*
X130688923Y-131631763D01*
X130747525Y-131773241D01*
X130777400Y-131923433D01*
X130777400Y-132076567D01*
X130747525Y-132226759D01*
X130688923Y-132368237D01*
X130603846Y-132495564D01*
X130495564Y-132603846D01*
X130368237Y-132688923D01*
X130226759Y-132747525D01*
X130076567Y-132777400D01*
X129923433Y-132777400D01*
X129773241Y-132747525D01*
X129631763Y-132688923D01*
X129504436Y-132603846D01*
X129396154Y-132495564D01*
X129311077Y-132368237D01*
X129252475Y-132226759D01*
X129222600Y-132076567D01*
X129222600Y-131923433D01*
X129252475Y-131773241D01*
X129311077Y-131631763D01*
X129396154Y-131504436D01*
X129504436Y-131396154D01*
X129631763Y-131311077D01*
X129773241Y-131252475D01*
X129923433Y-131222600D01*
X130076567Y-131222600D01*
X130226759Y-131252475D01*
X130226759Y-131252475D01*
G37*
G36*
X128226759Y-131252475D02*
G01*
X128368237Y-131311077D01*
X128495564Y-131396154D01*
X128603846Y-131504436D01*
X128688923Y-131631763D01*
X128747525Y-131773241D01*
X128777400Y-131923433D01*
X128777400Y-132076567D01*
X128747525Y-132226759D01*
X128688923Y-132368237D01*
X128603846Y-132495564D01*
X128495564Y-132603846D01*
X128368237Y-132688923D01*
X128226759Y-132747525D01*
X128076567Y-132777400D01*
X127923433Y-132777400D01*
X127773241Y-132747525D01*
X127631763Y-132688923D01*
X127504436Y-132603846D01*
X127396154Y-132495564D01*
X127311077Y-132368237D01*
X127252475Y-132226759D01*
X127222600Y-132076567D01*
X127222600Y-131923433D01*
X127252475Y-131773241D01*
X127311077Y-131631763D01*
X127396154Y-131504436D01*
X127504436Y-131396154D01*
X127631763Y-131311077D01*
X127773241Y-131252475D01*
X127923433Y-131222600D01*
X128076567Y-131222600D01*
X128226759Y-131252475D01*
X128226759Y-131252475D01*
G37*
G36*
X144757432Y-130653210D02*
G01*
X144808613Y-130668736D01*
X144855782Y-130693949D01*
X144897123Y-130727877D01*
X144931051Y-130769218D01*
X144956264Y-130816387D01*
X144971790Y-130867568D01*
X144977400Y-130924533D01*
X144977400Y-132075467D01*
X144971790Y-132132432D01*
X144956264Y-132183613D01*
X144931051Y-132230782D01*
X144897123Y-132272123D01*
X144855782Y-132306051D01*
X144808613Y-132331264D01*
X144757432Y-132346790D01*
X144700467Y-132352400D01*
X143799533Y-132352400D01*
X143742568Y-132346790D01*
X143691387Y-132331264D01*
X143644218Y-132306051D01*
X143602877Y-132272123D01*
X143568949Y-132230782D01*
X143543736Y-132183613D01*
X143528210Y-132132432D01*
X143522600Y-132075467D01*
X143522600Y-130924533D01*
X143528210Y-130867568D01*
X143543736Y-130816387D01*
X143568949Y-130769218D01*
X143602877Y-130727877D01*
X143644218Y-130693949D01*
X143691387Y-130668736D01*
X143742568Y-130653210D01*
X143799533Y-130647600D01*
X144700467Y-130647600D01*
X144757432Y-130653210D01*
X144757432Y-130653210D01*
G37*
G36*
X142707432Y-130653210D02*
G01*
X142758613Y-130668736D01*
X142805782Y-130693949D01*
X142847123Y-130727877D01*
X142881051Y-130769218D01*
X142906264Y-130816387D01*
X142921790Y-130867568D01*
X142927400Y-130924533D01*
X142927400Y-132075467D01*
X142921790Y-132132432D01*
X142906264Y-132183613D01*
X142881051Y-132230782D01*
X142847123Y-132272123D01*
X142805782Y-132306051D01*
X142758613Y-132331264D01*
X142707432Y-132346790D01*
X142650467Y-132352400D01*
X141749533Y-132352400D01*
X141692568Y-132346790D01*
X141641387Y-132331264D01*
X141594218Y-132306051D01*
X141552877Y-132272123D01*
X141518949Y-132230782D01*
X141493736Y-132183613D01*
X141478210Y-132132432D01*
X141472600Y-132075467D01*
X141472600Y-130924533D01*
X141478210Y-130867568D01*
X141493736Y-130816387D01*
X141518949Y-130769218D01*
X141552877Y-130727877D01*
X141594218Y-130693949D01*
X141641387Y-130668736D01*
X141692568Y-130653210D01*
X141749533Y-130647600D01*
X142650467Y-130647600D01*
X142707432Y-130653210D01*
X142707432Y-130653210D01*
G37*
G36*
X147132432Y-130728210D02*
G01*
X147183613Y-130743736D01*
X147230782Y-130768949D01*
X147272123Y-130802877D01*
X147306051Y-130844218D01*
X147331264Y-130891387D01*
X147346790Y-130942568D01*
X147352400Y-130999533D01*
X147352400Y-131900467D01*
X147346790Y-131957432D01*
X147331264Y-132008613D01*
X147306051Y-132055782D01*
X147272123Y-132097123D01*
X147230782Y-132131051D01*
X147183613Y-132156264D01*
X147132432Y-132171790D01*
X147075467Y-132177400D01*
X145924533Y-132177400D01*
X145867568Y-132171790D01*
X145816387Y-132156264D01*
X145769218Y-132131051D01*
X145727877Y-132097123D01*
X145693949Y-132055782D01*
X145668736Y-132008613D01*
X145653210Y-131957432D01*
X145647600Y-131900467D01*
X145647600Y-130999533D01*
X145653210Y-130942568D01*
X145668736Y-130891387D01*
X145693949Y-130844218D01*
X145727877Y-130802877D01*
X145769218Y-130768949D01*
X145816387Y-130743736D01*
X145867568Y-130728210D01*
X145924533Y-130722600D01*
X147075467Y-130722600D01*
X147132432Y-130728210D01*
X147132432Y-130728210D01*
G37*
G36*
X145083650Y-125813414D02*
G01*
X145347970Y-125922899D01*
X145585851Y-126081847D01*
X145788153Y-126284149D01*
X145947101Y-126522030D01*
X146056586Y-126786350D01*
X146112400Y-127066951D01*
X146112400Y-127353049D01*
X146056586Y-127633650D01*
X145947101Y-127897970D01*
X145788153Y-128135851D01*
X145585851Y-128338153D01*
X145347970Y-128497101D01*
X145083650Y-128606586D01*
X144803049Y-128662400D01*
X144516951Y-128662400D01*
X144236350Y-128606586D01*
X143972030Y-128497101D01*
X143734149Y-128338153D01*
X143531847Y-128135851D01*
X143372899Y-127897970D01*
X143263414Y-127633650D01*
X143207600Y-127353049D01*
X143207600Y-127066951D01*
X143263414Y-126786350D01*
X143372899Y-126522030D01*
X143531847Y-126284149D01*
X143734149Y-126081847D01*
X143972030Y-125922899D01*
X144236350Y-125813414D01*
X144516951Y-125757600D01*
X144803049Y-125757600D01*
X145083650Y-125813414D01*
X145083650Y-125813414D01*
G37*
G36*
X121923650Y-125813414D02*
G01*
X122187970Y-125922899D01*
X122425851Y-126081847D01*
X122628153Y-126284149D01*
X122787101Y-126522030D01*
X122896586Y-126786350D01*
X122952400Y-127066951D01*
X122952400Y-127353049D01*
X122896586Y-127633650D01*
X122787101Y-127897970D01*
X122628153Y-128135851D01*
X122425851Y-128338153D01*
X122187970Y-128497101D01*
X121923650Y-128606586D01*
X121643049Y-128662400D01*
X121356951Y-128662400D01*
X121076350Y-128606586D01*
X120812030Y-128497101D01*
X120574149Y-128338153D01*
X120371847Y-128135851D01*
X120212899Y-127897970D01*
X120103414Y-127633650D01*
X120047600Y-127353049D01*
X120047600Y-127066951D01*
X120103414Y-126786350D01*
X120212899Y-126522030D01*
X120371847Y-126284149D01*
X120574149Y-126081847D01*
X120812030Y-125922899D01*
X121076350Y-125813414D01*
X121356951Y-125757600D01*
X121643049Y-125757600D01*
X121923650Y-125813414D01*
X121923650Y-125813414D01*
G37*
G36*
X114923650Y-125813414D02*
G01*
X115187970Y-125922899D01*
X115425851Y-126081847D01*
X115628153Y-126284149D01*
X115787101Y-126522030D01*
X115896586Y-126786350D01*
X115952400Y-127066951D01*
X115952400Y-127353049D01*
X115896586Y-127633650D01*
X115787101Y-127897970D01*
X115628153Y-128135851D01*
X115425851Y-128338153D01*
X115187970Y-128497101D01*
X114923650Y-128606586D01*
X114643049Y-128662400D01*
X114356951Y-128662400D01*
X114076350Y-128606586D01*
X113812030Y-128497101D01*
X113574149Y-128338153D01*
X113371847Y-128135851D01*
X113212899Y-127897970D01*
X113103414Y-127633650D01*
X113047600Y-127353049D01*
X113047600Y-127066951D01*
X113103414Y-126786350D01*
X113212899Y-126522030D01*
X113371847Y-126284149D01*
X113574149Y-126081847D01*
X113812030Y-125922899D01*
X114076350Y-125813414D01*
X114356951Y-125757600D01*
X114643049Y-125757600D01*
X114923650Y-125813414D01*
X114923650Y-125813414D01*
G37*
G36*
X138083650Y-125813414D02*
G01*
X138347970Y-125922899D01*
X138585851Y-126081847D01*
X138788153Y-126284149D01*
X138947101Y-126522030D01*
X139056586Y-126786350D01*
X139112400Y-127066951D01*
X139112400Y-127353049D01*
X139056586Y-127633650D01*
X138947101Y-127897970D01*
X138788153Y-128135851D01*
X138585851Y-128338153D01*
X138347970Y-128497101D01*
X138083650Y-128606586D01*
X137803049Y-128662400D01*
X137516951Y-128662400D01*
X137236350Y-128606586D01*
X136972030Y-128497101D01*
X136734149Y-128338153D01*
X136531847Y-128135851D01*
X136372899Y-127897970D01*
X136263414Y-127633650D01*
X136207600Y-127353049D01*
X136207600Y-127066951D01*
X136263414Y-126786350D01*
X136372899Y-126522030D01*
X136531847Y-126284149D01*
X136734149Y-126081847D01*
X136972030Y-125922899D01*
X137236350Y-125813414D01*
X137516951Y-125757600D01*
X137803049Y-125757600D01*
X138083650Y-125813414D01*
X138083650Y-125813414D01*
G37*
G36*
X138415928Y-123616318D02*
G01*
X138575606Y-123682459D01*
X138719309Y-123778478D01*
X138841522Y-123900691D01*
X138937541Y-124044394D01*
X139003682Y-124204072D01*
X139037400Y-124373585D01*
X139037400Y-124546415D01*
X139003682Y-124715928D01*
X138937541Y-124875606D01*
X138841522Y-125019309D01*
X138719309Y-125141522D01*
X138575606Y-125237541D01*
X138415928Y-125303682D01*
X138246416Y-125337400D01*
X138073584Y-125337400D01*
X137904072Y-125303682D01*
X137744394Y-125237541D01*
X137600691Y-125141522D01*
X137478478Y-125019309D01*
X137382459Y-124875606D01*
X137316318Y-124715928D01*
X137282600Y-124546415D01*
X137282600Y-124373585D01*
X137316318Y-124204072D01*
X137382459Y-124044394D01*
X137478478Y-123900691D01*
X137600691Y-123778478D01*
X137744394Y-123682459D01*
X137904072Y-123616318D01*
X138073584Y-123582600D01*
X138246416Y-123582600D01*
X138415928Y-123616318D01*
X138415928Y-123616318D01*
G37*
G36*
X115255928Y-123616318D02*
G01*
X115415606Y-123682459D01*
X115559309Y-123778478D01*
X115681522Y-123900691D01*
X115777541Y-124044394D01*
X115843682Y-124204072D01*
X115877400Y-124373585D01*
X115877400Y-124546415D01*
X115843682Y-124715928D01*
X115777541Y-124875606D01*
X115681522Y-125019309D01*
X115559309Y-125141522D01*
X115415606Y-125237541D01*
X115255928Y-125303682D01*
X115086416Y-125337400D01*
X114913584Y-125337400D01*
X114744072Y-125303682D01*
X114584394Y-125237541D01*
X114440691Y-125141522D01*
X114318478Y-125019309D01*
X114222459Y-124875606D01*
X114156318Y-124715928D01*
X114122600Y-124546415D01*
X114122600Y-124373585D01*
X114156318Y-124204072D01*
X114222459Y-124044394D01*
X114318478Y-123900691D01*
X114440691Y-123778478D01*
X114584394Y-123682459D01*
X114744072Y-123616318D01*
X114913584Y-123582600D01*
X115086416Y-123582600D01*
X115255928Y-123616318D01*
X115255928Y-123616318D01*
G37*
G36*
X117255928Y-123616318D02*
G01*
X117415606Y-123682459D01*
X117559309Y-123778478D01*
X117681522Y-123900691D01*
X117777541Y-124044394D01*
X117843682Y-124204072D01*
X117877400Y-124373585D01*
X117877400Y-124546415D01*
X117843682Y-124715928D01*
X117777541Y-124875606D01*
X117681522Y-125019309D01*
X117559309Y-125141522D01*
X117415606Y-125237541D01*
X117255928Y-125303682D01*
X117086416Y-125337400D01*
X116913584Y-125337400D01*
X116744072Y-125303682D01*
X116584394Y-125237541D01*
X116440691Y-125141522D01*
X116318478Y-125019309D01*
X116222459Y-124875606D01*
X116156318Y-124715928D01*
X116122600Y-124546415D01*
X116122600Y-124373585D01*
X116156318Y-124204072D01*
X116222459Y-124044394D01*
X116318478Y-123900691D01*
X116440691Y-123778478D01*
X116584394Y-123682459D01*
X116744072Y-123616318D01*
X116913584Y-123582600D01*
X117086416Y-123582600D01*
X117255928Y-123616318D01*
X117255928Y-123616318D01*
G37*
G36*
X140415928Y-123616318D02*
G01*
X140575606Y-123682459D01*
X140719309Y-123778478D01*
X140841522Y-123900691D01*
X140937541Y-124044394D01*
X141003682Y-124204072D01*
X141037400Y-124373585D01*
X141037400Y-124546415D01*
X141003682Y-124715928D01*
X140937541Y-124875606D01*
X140841522Y-125019309D01*
X140719309Y-125141522D01*
X140575606Y-125237541D01*
X140415928Y-125303682D01*
X140246416Y-125337400D01*
X140073584Y-125337400D01*
X139904072Y-125303682D01*
X139744394Y-125237541D01*
X139600691Y-125141522D01*
X139478478Y-125019309D01*
X139382459Y-124875606D01*
X139316318Y-124715928D01*
X139282600Y-124546415D01*
X139282600Y-124373585D01*
X139316318Y-124204072D01*
X139382459Y-124044394D01*
X139478478Y-123900691D01*
X139600691Y-123778478D01*
X139744394Y-123682459D01*
X139904072Y-123616318D01*
X140073584Y-123582600D01*
X140246416Y-123582600D01*
X140415928Y-123616318D01*
X140415928Y-123616318D01*
G37*
G36*
X144415928Y-123616318D02*
G01*
X144575606Y-123682459D01*
X144719309Y-123778478D01*
X144841522Y-123900691D01*
X144937541Y-124044394D01*
X145003682Y-124204072D01*
X145037400Y-124373585D01*
X145037400Y-124546415D01*
X145003682Y-124715928D01*
X144937541Y-124875606D01*
X144841522Y-125019309D01*
X144719309Y-125141522D01*
X144575606Y-125237541D01*
X144415928Y-125303682D01*
X144246416Y-125337400D01*
X144073584Y-125337400D01*
X143904072Y-125303682D01*
X143744394Y-125237541D01*
X143600691Y-125141522D01*
X143478478Y-125019309D01*
X143382459Y-124875606D01*
X143316318Y-124715928D01*
X143282600Y-124546415D01*
X143282600Y-124373585D01*
X143316318Y-124204072D01*
X143382459Y-124044394D01*
X143478478Y-123900691D01*
X143600691Y-123778478D01*
X143744394Y-123682459D01*
X143904072Y-123616318D01*
X144073584Y-123582600D01*
X144246416Y-123582600D01*
X144415928Y-123616318D01*
X144415928Y-123616318D01*
G37*
G36*
X142415928Y-123616318D02*
G01*
X142575606Y-123682459D01*
X142719309Y-123778478D01*
X142841522Y-123900691D01*
X142937541Y-124044394D01*
X143003682Y-124204072D01*
X143037400Y-124373585D01*
X143037400Y-124546415D01*
X143003682Y-124715928D01*
X142937541Y-124875606D01*
X142841522Y-125019309D01*
X142719309Y-125141522D01*
X142575606Y-125237541D01*
X142415928Y-125303682D01*
X142246416Y-125337400D01*
X142073584Y-125337400D01*
X141904072Y-125303682D01*
X141744394Y-125237541D01*
X141600691Y-125141522D01*
X141478478Y-125019309D01*
X141382459Y-124875606D01*
X141316318Y-124715928D01*
X141282600Y-124546415D01*
X141282600Y-124373585D01*
X141316318Y-124204072D01*
X141382459Y-124044394D01*
X141478478Y-123900691D01*
X141600691Y-123778478D01*
X141744394Y-123682459D01*
X141904072Y-123616318D01*
X142073584Y-123582600D01*
X142246416Y-123582600D01*
X142415928Y-123616318D01*
X142415928Y-123616318D01*
G37*
G36*
X119255928Y-123616318D02*
G01*
X119415606Y-123682459D01*
X119559309Y-123778478D01*
X119681522Y-123900691D01*
X119777541Y-124044394D01*
X119843682Y-124204072D01*
X119877400Y-124373585D01*
X119877400Y-124546415D01*
X119843682Y-124715928D01*
X119777541Y-124875606D01*
X119681522Y-125019309D01*
X119559309Y-125141522D01*
X119415606Y-125237541D01*
X119255928Y-125303682D01*
X119086416Y-125337400D01*
X118913584Y-125337400D01*
X118744072Y-125303682D01*
X118584394Y-125237541D01*
X118440691Y-125141522D01*
X118318478Y-125019309D01*
X118222459Y-124875606D01*
X118156318Y-124715928D01*
X118122600Y-124546415D01*
X118122600Y-124373585D01*
X118156318Y-124204072D01*
X118222459Y-124044394D01*
X118318478Y-123900691D01*
X118440691Y-123778478D01*
X118584394Y-123682459D01*
X118744072Y-123616318D01*
X118913584Y-123582600D01*
X119086416Y-123582600D01*
X119255928Y-123616318D01*
X119255928Y-123616318D01*
G37*
G36*
X121255928Y-123616318D02*
G01*
X121415606Y-123682459D01*
X121559309Y-123778478D01*
X121681522Y-123900691D01*
X121777541Y-124044394D01*
X121843682Y-124204072D01*
X121877400Y-124373585D01*
X121877400Y-124546415D01*
X121843682Y-124715928D01*
X121777541Y-124875606D01*
X121681522Y-125019309D01*
X121559309Y-125141522D01*
X121415606Y-125237541D01*
X121255928Y-125303682D01*
X121086416Y-125337400D01*
X120913584Y-125337400D01*
X120744072Y-125303682D01*
X120584394Y-125237541D01*
X120440691Y-125141522D01*
X120318478Y-125019309D01*
X120222459Y-124875606D01*
X120156318Y-124715928D01*
X120122600Y-124546415D01*
X120122600Y-124373585D01*
X120156318Y-124204072D01*
X120222459Y-124044394D01*
X120318478Y-123900691D01*
X120440691Y-123778478D01*
X120584394Y-123682459D01*
X120744072Y-123616318D01*
X120913584Y-123582600D01*
X121086416Y-123582600D01*
X121255928Y-123616318D01*
X121255928Y-123616318D01*
G37*
G36*
X121923650Y-120313414D02*
G01*
X122187970Y-120422899D01*
X122425851Y-120581847D01*
X122628153Y-120784149D01*
X122787101Y-121022030D01*
X122896586Y-121286350D01*
X122952400Y-121566951D01*
X122952400Y-121853049D01*
X122896586Y-122133650D01*
X122787101Y-122397970D01*
X122628153Y-122635851D01*
X122425851Y-122838153D01*
X122187970Y-122997101D01*
X121923650Y-123106586D01*
X121643049Y-123162400D01*
X121356951Y-123162400D01*
X121076350Y-123106586D01*
X120812030Y-122997101D01*
X120574149Y-122838153D01*
X120371847Y-122635851D01*
X120212899Y-122397970D01*
X120103414Y-122133650D01*
X120047600Y-121853049D01*
X120047600Y-121566951D01*
X120103414Y-121286350D01*
X120212899Y-121022030D01*
X120371847Y-120784149D01*
X120574149Y-120581847D01*
X120812030Y-120422899D01*
X121076350Y-120313414D01*
X121356951Y-120257600D01*
X121643049Y-120257600D01*
X121923650Y-120313414D01*
X121923650Y-120313414D01*
G37*
G36*
X114923650Y-120313414D02*
G01*
X115187970Y-120422899D01*
X115425851Y-120581847D01*
X115628153Y-120784149D01*
X115787101Y-121022030D01*
X115896586Y-121286350D01*
X115952400Y-121566951D01*
X115952400Y-121853049D01*
X115896586Y-122133650D01*
X115787101Y-122397970D01*
X115628153Y-122635851D01*
X115425851Y-122838153D01*
X115187970Y-122997101D01*
X114923650Y-123106586D01*
X114643049Y-123162400D01*
X114356951Y-123162400D01*
X114076350Y-123106586D01*
X113812030Y-122997101D01*
X113574149Y-122838153D01*
X113371847Y-122635851D01*
X113212899Y-122397970D01*
X113103414Y-122133650D01*
X113047600Y-121853049D01*
X113047600Y-121566951D01*
X113103414Y-121286350D01*
X113212899Y-121022030D01*
X113371847Y-120784149D01*
X113574149Y-120581847D01*
X113812030Y-120422899D01*
X114076350Y-120313414D01*
X114356951Y-120257600D01*
X114643049Y-120257600D01*
X114923650Y-120313414D01*
X114923650Y-120313414D01*
G37*
G36*
X145083650Y-120313414D02*
G01*
X145347970Y-120422899D01*
X145585851Y-120581847D01*
X145788153Y-120784149D01*
X145947101Y-121022030D01*
X146056586Y-121286350D01*
X146112400Y-121566951D01*
X146112400Y-121853049D01*
X146056586Y-122133650D01*
X145947101Y-122397970D01*
X145788153Y-122635851D01*
X145585851Y-122838153D01*
X145347970Y-122997101D01*
X145083650Y-123106586D01*
X144803049Y-123162400D01*
X144516951Y-123162400D01*
X144236350Y-123106586D01*
X143972030Y-122997101D01*
X143734149Y-122838153D01*
X143531847Y-122635851D01*
X143372899Y-122397970D01*
X143263414Y-122133650D01*
X143207600Y-121853049D01*
X143207600Y-121566951D01*
X143263414Y-121286350D01*
X143372899Y-121022030D01*
X143531847Y-120784149D01*
X143734149Y-120581847D01*
X143972030Y-120422899D01*
X144236350Y-120313414D01*
X144516951Y-120257600D01*
X144803049Y-120257600D01*
X145083650Y-120313414D01*
X145083650Y-120313414D01*
G37*
G36*
X138083650Y-120313414D02*
G01*
X138347970Y-120422899D01*
X138585851Y-120581847D01*
X138788153Y-120784149D01*
X138947101Y-121022030D01*
X139056586Y-121286350D01*
X139112400Y-121566951D01*
X139112400Y-121853049D01*
X139056586Y-122133650D01*
X138947101Y-122397970D01*
X138788153Y-122635851D01*
X138585851Y-122838153D01*
X138347970Y-122997101D01*
X138083650Y-123106586D01*
X137803049Y-123162400D01*
X137516951Y-123162400D01*
X137236350Y-123106586D01*
X136972030Y-122997101D01*
X136734149Y-122838153D01*
X136531847Y-122635851D01*
X136372899Y-122397970D01*
X136263414Y-122133650D01*
X136207600Y-121853049D01*
X136207600Y-121566951D01*
X136263414Y-121286350D01*
X136372899Y-121022030D01*
X136531847Y-120784149D01*
X136734149Y-120581847D01*
X136972030Y-120422899D01*
X137236350Y-120313414D01*
X137516951Y-120257600D01*
X137803049Y-120257600D01*
X138083650Y-120313414D01*
X138083650Y-120313414D01*
G37*
G36*
X125176000Y-120047801D02*
G01*
X125177464Y-120062667D01*
X125181800Y-120076961D01*
X125188842Y-120090135D01*
X125198318Y-120101682D01*
X125209865Y-120111158D01*
X125223039Y-120118200D01*
X125237333Y-120122536D01*
X125252199Y-120124000D01*
X125891000Y-120124000D01*
X125891000Y-120376000D01*
X125252199Y-120376000D01*
X125237333Y-120377464D01*
X125223039Y-120381800D01*
X125209865Y-120388842D01*
X125198318Y-120398318D01*
X125188842Y-120409865D01*
X125181800Y-120423039D01*
X125177464Y-120437333D01*
X125176000Y-120452199D01*
X125176000Y-120666000D01*
X124824000Y-120666000D01*
X124824000Y-120452199D01*
X124822536Y-120437333D01*
X124818200Y-120423039D01*
X124811158Y-120409865D01*
X124801682Y-120398318D01*
X124790135Y-120388842D01*
X124776961Y-120381800D01*
X124762667Y-120377464D01*
X124747801Y-120376000D01*
X124109000Y-120376000D01*
X124109000Y-120124000D01*
X124747801Y-120124000D01*
X124762667Y-120122536D01*
X124776961Y-120118200D01*
X124790135Y-120111158D01*
X124801682Y-120101682D01*
X124811158Y-120090135D01*
X124818200Y-120076961D01*
X124822536Y-120062667D01*
X124824000Y-120047801D01*
X124824000Y-120034000D01*
X125176000Y-120034000D01*
X125176000Y-120047801D01*
X125176000Y-120047801D01*
G37*
G36*
X125891000Y-119876000D02*
G01*
X125309000Y-119876000D01*
X125309000Y-119624000D01*
X125891000Y-119624000D01*
X125891000Y-119876000D01*
X125891000Y-119876000D01*
G37*
G36*
X124691000Y-119876000D02*
G01*
X124109000Y-119876000D01*
X124109000Y-119624000D01*
X124691000Y-119624000D01*
X124691000Y-119876000D01*
X124691000Y-119876000D01*
G37*
G36*
X125891000Y-119376000D02*
G01*
X125309000Y-119376000D01*
X125309000Y-119124000D01*
X125891000Y-119124000D01*
X125891000Y-119376000D01*
X125891000Y-119376000D01*
G37*
G36*
X124691000Y-119376000D02*
G01*
X124109000Y-119376000D01*
X124109000Y-119124000D01*
X124691000Y-119124000D01*
X124691000Y-119376000D01*
X124691000Y-119376000D01*
G37*
G36*
X125176000Y-118547801D02*
G01*
X125177464Y-118562667D01*
X125181800Y-118576961D01*
X125188842Y-118590135D01*
X125198318Y-118601682D01*
X125209865Y-118611158D01*
X125223039Y-118618200D01*
X125237333Y-118622536D01*
X125252199Y-118624000D01*
X125891000Y-118624000D01*
X125891000Y-118876000D01*
X125252199Y-118876000D01*
X125237333Y-118877464D01*
X125223039Y-118881800D01*
X125209865Y-118888842D01*
X125198318Y-118898318D01*
X125188842Y-118909865D01*
X125181800Y-118923039D01*
X125177464Y-118937333D01*
X125176000Y-118952199D01*
X125176000Y-118966000D01*
X124824000Y-118966000D01*
X124824000Y-118952199D01*
X124822536Y-118937333D01*
X124818200Y-118923039D01*
X124811158Y-118909865D01*
X124801682Y-118898318D01*
X124790135Y-118888842D01*
X124776961Y-118881800D01*
X124762667Y-118877464D01*
X124747801Y-118876000D01*
X124109000Y-118876000D01*
X124109000Y-118624000D01*
X124747801Y-118624000D01*
X124762667Y-118622536D01*
X124776961Y-118618200D01*
X124790135Y-118611158D01*
X124801682Y-118601682D01*
X124811158Y-118590135D01*
X124818200Y-118576961D01*
X124822536Y-118562667D01*
X124824000Y-118547801D01*
X124824000Y-118334000D01*
X125176000Y-118334000D01*
X125176000Y-118547801D01*
X125176000Y-118547801D01*
G37*
G36*
X138083650Y-115653414D02*
G01*
X138347970Y-115762899D01*
X138585851Y-115921847D01*
X138788153Y-116124149D01*
X138947101Y-116362030D01*
X139056586Y-116626350D01*
X139112400Y-116906951D01*
X139112400Y-117193049D01*
X139056586Y-117473650D01*
X138947101Y-117737970D01*
X138788153Y-117975851D01*
X138585851Y-118178153D01*
X138347970Y-118337101D01*
X138083650Y-118446586D01*
X137803049Y-118502400D01*
X137516951Y-118502400D01*
X137236350Y-118446586D01*
X136972030Y-118337101D01*
X136734149Y-118178153D01*
X136531847Y-117975851D01*
X136372899Y-117737970D01*
X136263414Y-117473650D01*
X136207600Y-117193049D01*
X136207600Y-116906951D01*
X136263414Y-116626350D01*
X136372899Y-116362030D01*
X136531847Y-116124149D01*
X136734149Y-115921847D01*
X136972030Y-115762899D01*
X137236350Y-115653414D01*
X137516951Y-115597600D01*
X137803049Y-115597600D01*
X138083650Y-115653414D01*
X138083650Y-115653414D01*
G37*
G36*
X114843650Y-115653414D02*
G01*
X115107970Y-115762899D01*
X115345851Y-115921847D01*
X115548153Y-116124149D01*
X115707101Y-116362030D01*
X115816586Y-116626350D01*
X115872400Y-116906951D01*
X115872400Y-117193049D01*
X115816586Y-117473650D01*
X115707101Y-117737970D01*
X115548153Y-117975851D01*
X115345851Y-118178153D01*
X115107970Y-118337101D01*
X114843650Y-118446586D01*
X114563049Y-118502400D01*
X114276951Y-118502400D01*
X113996350Y-118446586D01*
X113732030Y-118337101D01*
X113494149Y-118178153D01*
X113291847Y-117975851D01*
X113132899Y-117737970D01*
X113023414Y-117473650D01*
X112967600Y-117193049D01*
X112967600Y-116906951D01*
X113023414Y-116626350D01*
X113132899Y-116362030D01*
X113291847Y-116124149D01*
X113494149Y-115921847D01*
X113732030Y-115762899D01*
X113996350Y-115653414D01*
X114276951Y-115597600D01*
X114563049Y-115597600D01*
X114843650Y-115653414D01*
X114843650Y-115653414D01*
G37*
G36*
X121843650Y-115653414D02*
G01*
X122107970Y-115762899D01*
X122345851Y-115921847D01*
X122548153Y-116124149D01*
X122707101Y-116362030D01*
X122816586Y-116626350D01*
X122872400Y-116906951D01*
X122872400Y-117193049D01*
X122816586Y-117473650D01*
X122707101Y-117737970D01*
X122548153Y-117975851D01*
X122345851Y-118178153D01*
X122107970Y-118337101D01*
X121843650Y-118446586D01*
X121563049Y-118502400D01*
X121276951Y-118502400D01*
X120996350Y-118446586D01*
X120732030Y-118337101D01*
X120494149Y-118178153D01*
X120291847Y-117975851D01*
X120132899Y-117737970D01*
X120023414Y-117473650D01*
X119967600Y-117193049D01*
X119967600Y-116906951D01*
X120023414Y-116626350D01*
X120132899Y-116362030D01*
X120291847Y-116124149D01*
X120494149Y-115921847D01*
X120732030Y-115762899D01*
X120996350Y-115653414D01*
X121276951Y-115597600D01*
X121563049Y-115597600D01*
X121843650Y-115653414D01*
X121843650Y-115653414D01*
G37*
G36*
X145083650Y-115653414D02*
G01*
X145347970Y-115762899D01*
X145585851Y-115921847D01*
X145788153Y-116124149D01*
X145947101Y-116362030D01*
X146056586Y-116626350D01*
X146112400Y-116906951D01*
X146112400Y-117193049D01*
X146056586Y-117473650D01*
X145947101Y-117737970D01*
X145788153Y-117975851D01*
X145585851Y-118178153D01*
X145347970Y-118337101D01*
X145083650Y-118446586D01*
X144803049Y-118502400D01*
X144516951Y-118502400D01*
X144236350Y-118446586D01*
X143972030Y-118337101D01*
X143734149Y-118178153D01*
X143531847Y-117975851D01*
X143372899Y-117737970D01*
X143263414Y-117473650D01*
X143207600Y-117193049D01*
X143207600Y-116906951D01*
X143263414Y-116626350D01*
X143372899Y-116362030D01*
X143531847Y-116124149D01*
X143734149Y-115921847D01*
X143972030Y-115762899D01*
X144236350Y-115653414D01*
X144516951Y-115597600D01*
X144803049Y-115597600D01*
X145083650Y-115653414D01*
X145083650Y-115653414D01*
G37*
G36*
X127632432Y-115328210D02*
G01*
X127683613Y-115343736D01*
X127730782Y-115368949D01*
X127772123Y-115402877D01*
X127806051Y-115444218D01*
X127831264Y-115491387D01*
X127846790Y-115542568D01*
X127852400Y-115599533D01*
X127852400Y-116500467D01*
X127846790Y-116557432D01*
X127831264Y-116608613D01*
X127806051Y-116655782D01*
X127772123Y-116697123D01*
X127730782Y-116731051D01*
X127683613Y-116756264D01*
X127632432Y-116771790D01*
X127575467Y-116777400D01*
X126424533Y-116777400D01*
X126367568Y-116771790D01*
X126316387Y-116756264D01*
X126269218Y-116731051D01*
X126227877Y-116697123D01*
X126193949Y-116655782D01*
X126168736Y-116608613D01*
X126153210Y-116557432D01*
X126147600Y-116500467D01*
X126147600Y-115599533D01*
X126153210Y-115542568D01*
X126168736Y-115491387D01*
X126193949Y-115444218D01*
X126227877Y-115402877D01*
X126269218Y-115368949D01*
X126316387Y-115343736D01*
X126367568Y-115328210D01*
X126424533Y-115322600D01*
X127575467Y-115322600D01*
X127632432Y-115328210D01*
X127632432Y-115328210D01*
G37*
G36*
X125632432Y-115328210D02*
G01*
X125683613Y-115343736D01*
X125730782Y-115368949D01*
X125772123Y-115402877D01*
X125806051Y-115444218D01*
X125831264Y-115491387D01*
X125846790Y-115542568D01*
X125852400Y-115599533D01*
X125852400Y-116500467D01*
X125846790Y-116557432D01*
X125831264Y-116608613D01*
X125806051Y-116655782D01*
X125772123Y-116697123D01*
X125730782Y-116731051D01*
X125683613Y-116756264D01*
X125632432Y-116771790D01*
X125575467Y-116777400D01*
X124424533Y-116777400D01*
X124367568Y-116771790D01*
X124316387Y-116756264D01*
X124269218Y-116731051D01*
X124227877Y-116697123D01*
X124193949Y-116655782D01*
X124168736Y-116608613D01*
X124153210Y-116557432D01*
X124147600Y-116500467D01*
X124147600Y-115599533D01*
X124153210Y-115542568D01*
X124168736Y-115491387D01*
X124193949Y-115444218D01*
X124227877Y-115402877D01*
X124269218Y-115368949D01*
X124316387Y-115343736D01*
X124367568Y-115328210D01*
X124424533Y-115322600D01*
X125575467Y-115322600D01*
X125632432Y-115328210D01*
X125632432Y-115328210D01*
G37*
G36*
X142415928Y-113456318D02*
G01*
X142575606Y-113522459D01*
X142719309Y-113618478D01*
X142841522Y-113740691D01*
X142937541Y-113884394D01*
X143003682Y-114044072D01*
X143037400Y-114213585D01*
X143037400Y-114386415D01*
X143003682Y-114555928D01*
X142937541Y-114715606D01*
X142841522Y-114859309D01*
X142719309Y-114981522D01*
X142575606Y-115077541D01*
X142415928Y-115143682D01*
X142246416Y-115177400D01*
X142073584Y-115177400D01*
X141904072Y-115143682D01*
X141744394Y-115077541D01*
X141600691Y-114981522D01*
X141478478Y-114859309D01*
X141382459Y-114715606D01*
X141316318Y-114555928D01*
X141282600Y-114386415D01*
X141282600Y-114213585D01*
X141316318Y-114044072D01*
X141382459Y-113884394D01*
X141478478Y-113740691D01*
X141600691Y-113618478D01*
X141744394Y-113522459D01*
X141904072Y-113456318D01*
X142073584Y-113422600D01*
X142246416Y-113422600D01*
X142415928Y-113456318D01*
X142415928Y-113456318D01*
G37*
G36*
X117175928Y-113456318D02*
G01*
X117335606Y-113522459D01*
X117479309Y-113618478D01*
X117601522Y-113740691D01*
X117697541Y-113884394D01*
X117763682Y-114044072D01*
X117797400Y-114213585D01*
X117797400Y-114386415D01*
X117763682Y-114555928D01*
X117697541Y-114715606D01*
X117601522Y-114859309D01*
X117479309Y-114981522D01*
X117335606Y-115077541D01*
X117175928Y-115143682D01*
X117006416Y-115177400D01*
X116833584Y-115177400D01*
X116664072Y-115143682D01*
X116504394Y-115077541D01*
X116360691Y-114981522D01*
X116238478Y-114859309D01*
X116142459Y-114715606D01*
X116076318Y-114555928D01*
X116042600Y-114386415D01*
X116042600Y-114213585D01*
X116076318Y-114044072D01*
X116142459Y-113884394D01*
X116238478Y-113740691D01*
X116360691Y-113618478D01*
X116504394Y-113522459D01*
X116664072Y-113456318D01*
X116833584Y-113422600D01*
X117006416Y-113422600D01*
X117175928Y-113456318D01*
X117175928Y-113456318D01*
G37*
G36*
X115175928Y-113456318D02*
G01*
X115335606Y-113522459D01*
X115479309Y-113618478D01*
X115601522Y-113740691D01*
X115697541Y-113884394D01*
X115763682Y-114044072D01*
X115797400Y-114213585D01*
X115797400Y-114386415D01*
X115763682Y-114555928D01*
X115697541Y-114715606D01*
X115601522Y-114859309D01*
X115479309Y-114981522D01*
X115335606Y-115077541D01*
X115175928Y-115143682D01*
X115006416Y-115177400D01*
X114833584Y-115177400D01*
X114664072Y-115143682D01*
X114504394Y-115077541D01*
X114360691Y-114981522D01*
X114238478Y-114859309D01*
X114142459Y-114715606D01*
X114076318Y-114555928D01*
X114042600Y-114386415D01*
X114042600Y-114213585D01*
X114076318Y-114044072D01*
X114142459Y-113884394D01*
X114238478Y-113740691D01*
X114360691Y-113618478D01*
X114504394Y-113522459D01*
X114664072Y-113456318D01*
X114833584Y-113422600D01*
X115006416Y-113422600D01*
X115175928Y-113456318D01*
X115175928Y-113456318D01*
G37*
G36*
X121175928Y-113456318D02*
G01*
X121335606Y-113522459D01*
X121479309Y-113618478D01*
X121601522Y-113740691D01*
X121697541Y-113884394D01*
X121763682Y-114044072D01*
X121797400Y-114213585D01*
X121797400Y-114386415D01*
X121763682Y-114555928D01*
X121697541Y-114715606D01*
X121601522Y-114859309D01*
X121479309Y-114981522D01*
X121335606Y-115077541D01*
X121175928Y-115143682D01*
X121006416Y-115177400D01*
X120833584Y-115177400D01*
X120664072Y-115143682D01*
X120504394Y-115077541D01*
X120360691Y-114981522D01*
X120238478Y-114859309D01*
X120142459Y-114715606D01*
X120076318Y-114555928D01*
X120042600Y-114386415D01*
X120042600Y-114213585D01*
X120076318Y-114044072D01*
X120142459Y-113884394D01*
X120238478Y-113740691D01*
X120360691Y-113618478D01*
X120504394Y-113522459D01*
X120664072Y-113456318D01*
X120833584Y-113422600D01*
X121006416Y-113422600D01*
X121175928Y-113456318D01*
X121175928Y-113456318D01*
G37*
G36*
X140415928Y-113456318D02*
G01*
X140575606Y-113522459D01*
X140719309Y-113618478D01*
X140841522Y-113740691D01*
X140937541Y-113884394D01*
X141003682Y-114044072D01*
X141037400Y-114213585D01*
X141037400Y-114386415D01*
X141003682Y-114555928D01*
X140937541Y-114715606D01*
X140841522Y-114859309D01*
X140719309Y-114981522D01*
X140575606Y-115077541D01*
X140415928Y-115143682D01*
X140246416Y-115177400D01*
X140073584Y-115177400D01*
X139904072Y-115143682D01*
X139744394Y-115077541D01*
X139600691Y-114981522D01*
X139478478Y-114859309D01*
X139382459Y-114715606D01*
X139316318Y-114555928D01*
X139282600Y-114386415D01*
X139282600Y-114213585D01*
X139316318Y-114044072D01*
X139382459Y-113884394D01*
X139478478Y-113740691D01*
X139600691Y-113618478D01*
X139744394Y-113522459D01*
X139904072Y-113456318D01*
X140073584Y-113422600D01*
X140246416Y-113422600D01*
X140415928Y-113456318D01*
X140415928Y-113456318D01*
G37*
G36*
X138415928Y-113456318D02*
G01*
X138575606Y-113522459D01*
X138719309Y-113618478D01*
X138841522Y-113740691D01*
X138937541Y-113884394D01*
X139003682Y-114044072D01*
X139037400Y-114213585D01*
X139037400Y-114386415D01*
X139003682Y-114555928D01*
X138937541Y-114715606D01*
X138841522Y-114859309D01*
X138719309Y-114981522D01*
X138575606Y-115077541D01*
X138415928Y-115143682D01*
X138246416Y-115177400D01*
X138073584Y-115177400D01*
X137904072Y-115143682D01*
X137744394Y-115077541D01*
X137600691Y-114981522D01*
X137478478Y-114859309D01*
X137382459Y-114715606D01*
X137316318Y-114555928D01*
X137282600Y-114386415D01*
X137282600Y-114213585D01*
X137316318Y-114044072D01*
X137382459Y-113884394D01*
X137478478Y-113740691D01*
X137600691Y-113618478D01*
X137744394Y-113522459D01*
X137904072Y-113456318D01*
X138073584Y-113422600D01*
X138246416Y-113422600D01*
X138415928Y-113456318D01*
X138415928Y-113456318D01*
G37*
G36*
X144415928Y-113456318D02*
G01*
X144575606Y-113522459D01*
X144719309Y-113618478D01*
X144841522Y-113740691D01*
X144937541Y-113884394D01*
X145003682Y-114044072D01*
X145037400Y-114213585D01*
X145037400Y-114386415D01*
X145003682Y-114555928D01*
X144937541Y-114715606D01*
X144841522Y-114859309D01*
X144719309Y-114981522D01*
X144575606Y-115077541D01*
X144415928Y-115143682D01*
X144246416Y-115177400D01*
X144073584Y-115177400D01*
X143904072Y-115143682D01*
X143744394Y-115077541D01*
X143600691Y-114981522D01*
X143478478Y-114859309D01*
X143382459Y-114715606D01*
X143316318Y-114555928D01*
X143282600Y-114386415D01*
X143282600Y-114213585D01*
X143316318Y-114044072D01*
X143382459Y-113884394D01*
X143478478Y-113740691D01*
X143600691Y-113618478D01*
X143744394Y-113522459D01*
X143904072Y-113456318D01*
X144073584Y-113422600D01*
X144246416Y-113422600D01*
X144415928Y-113456318D01*
X144415928Y-113456318D01*
G37*
G36*
X119175928Y-113456318D02*
G01*
X119335606Y-113522459D01*
X119479309Y-113618478D01*
X119601522Y-113740691D01*
X119697541Y-113884394D01*
X119763682Y-114044072D01*
X119797400Y-114213585D01*
X119797400Y-114386415D01*
X119763682Y-114555928D01*
X119697541Y-114715606D01*
X119601522Y-114859309D01*
X119479309Y-114981522D01*
X119335606Y-115077541D01*
X119175928Y-115143682D01*
X119006416Y-115177400D01*
X118833584Y-115177400D01*
X118664072Y-115143682D01*
X118504394Y-115077541D01*
X118360691Y-114981522D01*
X118238478Y-114859309D01*
X118142459Y-114715606D01*
X118076318Y-114555928D01*
X118042600Y-114386415D01*
X118042600Y-114213585D01*
X118076318Y-114044072D01*
X118142459Y-113884394D01*
X118238478Y-113740691D01*
X118360691Y-113618478D01*
X118504394Y-113522459D01*
X118664072Y-113456318D01*
X118833584Y-113422600D01*
X119006416Y-113422600D01*
X119175928Y-113456318D01*
X119175928Y-113456318D01*
G37*
G36*
X125632432Y-113278210D02*
G01*
X125683613Y-113293736D01*
X125730782Y-113318949D01*
X125772123Y-113352877D01*
X125806051Y-113394218D01*
X125831264Y-113441387D01*
X125846790Y-113492568D01*
X125852400Y-113549533D01*
X125852400Y-114450467D01*
X125846790Y-114507432D01*
X125831264Y-114558613D01*
X125806051Y-114605782D01*
X125772123Y-114647123D01*
X125730782Y-114681051D01*
X125683613Y-114706264D01*
X125632432Y-114721790D01*
X125575467Y-114727400D01*
X124424533Y-114727400D01*
X124367568Y-114721790D01*
X124316387Y-114706264D01*
X124269218Y-114681051D01*
X124227877Y-114647123D01*
X124193949Y-114605782D01*
X124168736Y-114558613D01*
X124153210Y-114507432D01*
X124147600Y-114450467D01*
X124147600Y-113549533D01*
X124153210Y-113492568D01*
X124168736Y-113441387D01*
X124193949Y-113394218D01*
X124227877Y-113352877D01*
X124269218Y-113318949D01*
X124316387Y-113293736D01*
X124367568Y-113278210D01*
X124424533Y-113272600D01*
X125575467Y-113272600D01*
X125632432Y-113278210D01*
X125632432Y-113278210D01*
G37*
G36*
X127632432Y-113278210D02*
G01*
X127683613Y-113293736D01*
X127730782Y-113318949D01*
X127772123Y-113352877D01*
X127806051Y-113394218D01*
X127831264Y-113441387D01*
X127846790Y-113492568D01*
X127852400Y-113549533D01*
X127852400Y-114450467D01*
X127846790Y-114507432D01*
X127831264Y-114558613D01*
X127806051Y-114605782D01*
X127772123Y-114647123D01*
X127730782Y-114681051D01*
X127683613Y-114706264D01*
X127632432Y-114721790D01*
X127575467Y-114727400D01*
X126424533Y-114727400D01*
X126367568Y-114721790D01*
X126316387Y-114706264D01*
X126269218Y-114681051D01*
X126227877Y-114647123D01*
X126193949Y-114605782D01*
X126168736Y-114558613D01*
X126153210Y-114507432D01*
X126147600Y-114450467D01*
X126147600Y-113549533D01*
X126153210Y-113492568D01*
X126168736Y-113441387D01*
X126193949Y-113394218D01*
X126227877Y-113352877D01*
X126269218Y-113318949D01*
X126316387Y-113293736D01*
X126367568Y-113278210D01*
X126424533Y-113272600D01*
X127575467Y-113272600D01*
X127632432Y-113278210D01*
X127632432Y-113278210D01*
G37*
G36*
X145083650Y-110153414D02*
G01*
X145347970Y-110262899D01*
X145585851Y-110421847D01*
X145788153Y-110624149D01*
X145947101Y-110862030D01*
X146056586Y-111126350D01*
X146112400Y-111406951D01*
X146112400Y-111693049D01*
X146056586Y-111973650D01*
X145947101Y-112237970D01*
X145788153Y-112475851D01*
X145585851Y-112678153D01*
X145347970Y-112837101D01*
X145083650Y-112946586D01*
X144803049Y-113002400D01*
X144516951Y-113002400D01*
X144236350Y-112946586D01*
X143972030Y-112837101D01*
X143734149Y-112678153D01*
X143531847Y-112475851D01*
X143372899Y-112237970D01*
X143263414Y-111973650D01*
X143207600Y-111693049D01*
X143207600Y-111406951D01*
X143263414Y-111126350D01*
X143372899Y-110862030D01*
X143531847Y-110624149D01*
X143734149Y-110421847D01*
X143972030Y-110262899D01*
X144236350Y-110153414D01*
X144516951Y-110097600D01*
X144803049Y-110097600D01*
X145083650Y-110153414D01*
X145083650Y-110153414D01*
G37*
G36*
X138083650Y-110153414D02*
G01*
X138347970Y-110262899D01*
X138585851Y-110421847D01*
X138788153Y-110624149D01*
X138947101Y-110862030D01*
X139056586Y-111126350D01*
X139112400Y-111406951D01*
X139112400Y-111693049D01*
X139056586Y-111973650D01*
X138947101Y-112237970D01*
X138788153Y-112475851D01*
X138585851Y-112678153D01*
X138347970Y-112837101D01*
X138083650Y-112946586D01*
X137803049Y-113002400D01*
X137516951Y-113002400D01*
X137236350Y-112946586D01*
X136972030Y-112837101D01*
X136734149Y-112678153D01*
X136531847Y-112475851D01*
X136372899Y-112237970D01*
X136263414Y-111973650D01*
X136207600Y-111693049D01*
X136207600Y-111406951D01*
X136263414Y-111126350D01*
X136372899Y-110862030D01*
X136531847Y-110624149D01*
X136734149Y-110421847D01*
X136972030Y-110262899D01*
X137236350Y-110153414D01*
X137516951Y-110097600D01*
X137803049Y-110097600D01*
X138083650Y-110153414D01*
X138083650Y-110153414D01*
G37*
G36*
X121843650Y-110153414D02*
G01*
X122107970Y-110262899D01*
X122345851Y-110421847D01*
X122548153Y-110624149D01*
X122707101Y-110862030D01*
X122816586Y-111126350D01*
X122872400Y-111406951D01*
X122872400Y-111693049D01*
X122816586Y-111973650D01*
X122707101Y-112237970D01*
X122548153Y-112475851D01*
X122345851Y-112678153D01*
X122107970Y-112837101D01*
X121843650Y-112946586D01*
X121563049Y-113002400D01*
X121276951Y-113002400D01*
X120996350Y-112946586D01*
X120732030Y-112837101D01*
X120494149Y-112678153D01*
X120291847Y-112475851D01*
X120132899Y-112237970D01*
X120023414Y-111973650D01*
X119967600Y-111693049D01*
X119967600Y-111406951D01*
X120023414Y-111126350D01*
X120132899Y-110862030D01*
X120291847Y-110624149D01*
X120494149Y-110421847D01*
X120732030Y-110262899D01*
X120996350Y-110153414D01*
X121276951Y-110097600D01*
X121563049Y-110097600D01*
X121843650Y-110153414D01*
X121843650Y-110153414D01*
G37*
G36*
X114843650Y-110153414D02*
G01*
X115107970Y-110262899D01*
X115345851Y-110421847D01*
X115548153Y-110624149D01*
X115707101Y-110862030D01*
X115816586Y-111126350D01*
X115872400Y-111406951D01*
X115872400Y-111693049D01*
X115816586Y-111973650D01*
X115707101Y-112237970D01*
X115548153Y-112475851D01*
X115345851Y-112678153D01*
X115107970Y-112837101D01*
X114843650Y-112946586D01*
X114563049Y-113002400D01*
X114276951Y-113002400D01*
X113996350Y-112946586D01*
X113732030Y-112837101D01*
X113494149Y-112678153D01*
X113291847Y-112475851D01*
X113132899Y-112237970D01*
X113023414Y-111973650D01*
X112967600Y-111693049D01*
X112967600Y-111406951D01*
X113023414Y-111126350D01*
X113132899Y-110862030D01*
X113291847Y-110624149D01*
X113494149Y-110421847D01*
X113732030Y-110262899D01*
X113996350Y-110153414D01*
X114276951Y-110097600D01*
X114563049Y-110097600D01*
X114843650Y-110153414D01*
X114843650Y-110153414D01*
G37*
G36*
X134932400Y-108677400D02*
G01*
X133567600Y-108677400D01*
X133567600Y-105822600D01*
X134932400Y-105822600D01*
X134932400Y-108677400D01*
X134932400Y-108677400D01*
G37*
G36*
X132732400Y-108677400D02*
G01*
X131367600Y-108677400D01*
X131367600Y-107722600D01*
X132732400Y-107722600D01*
X132732400Y-108677400D01*
X132732400Y-108677400D01*
G37*
G36*
X145083650Y-105493414D02*
G01*
X145347970Y-105602899D01*
X145585851Y-105761847D01*
X145788153Y-105964149D01*
X145947101Y-106202030D01*
X146056586Y-106466350D01*
X146112400Y-106746951D01*
X146112400Y-107033049D01*
X146056586Y-107313650D01*
X145947101Y-107577970D01*
X145788153Y-107815851D01*
X145585851Y-108018153D01*
X145347970Y-108177101D01*
X145083650Y-108286586D01*
X144803049Y-108342400D01*
X144516951Y-108342400D01*
X144236350Y-108286586D01*
X143972030Y-108177101D01*
X143734149Y-108018153D01*
X143531847Y-107815851D01*
X143372899Y-107577970D01*
X143263414Y-107313650D01*
X143207600Y-107033049D01*
X143207600Y-106746951D01*
X143263414Y-106466350D01*
X143372899Y-106202030D01*
X143531847Y-105964149D01*
X143734149Y-105761847D01*
X143972030Y-105602899D01*
X144236350Y-105493414D01*
X144516951Y-105437600D01*
X144803049Y-105437600D01*
X145083650Y-105493414D01*
X145083650Y-105493414D01*
G37*
G36*
X138083650Y-105493414D02*
G01*
X138347970Y-105602899D01*
X138585851Y-105761847D01*
X138788153Y-105964149D01*
X138947101Y-106202030D01*
X139056586Y-106466350D01*
X139112400Y-106746951D01*
X139112400Y-107033049D01*
X139056586Y-107313650D01*
X138947101Y-107577970D01*
X138788153Y-107815851D01*
X138585851Y-108018153D01*
X138347970Y-108177101D01*
X138083650Y-108286586D01*
X137803049Y-108342400D01*
X137516951Y-108342400D01*
X137236350Y-108286586D01*
X136972030Y-108177101D01*
X136734149Y-108018153D01*
X136531847Y-107815851D01*
X136372899Y-107577970D01*
X136263414Y-107313650D01*
X136207600Y-107033049D01*
X136207600Y-106746951D01*
X136263414Y-106466350D01*
X136372899Y-106202030D01*
X136531847Y-105964149D01*
X136734149Y-105761847D01*
X136972030Y-105602899D01*
X137236350Y-105493414D01*
X137516951Y-105437600D01*
X137803049Y-105437600D01*
X138083650Y-105493414D01*
X138083650Y-105493414D01*
G37*
G36*
X121843650Y-105493414D02*
G01*
X122107970Y-105602899D01*
X122345851Y-105761847D01*
X122548153Y-105964149D01*
X122707101Y-106202030D01*
X122816586Y-106466350D01*
X122872400Y-106746951D01*
X122872400Y-107033049D01*
X122816586Y-107313650D01*
X122707101Y-107577970D01*
X122548153Y-107815851D01*
X122345851Y-108018153D01*
X122107970Y-108177101D01*
X121843650Y-108286586D01*
X121563049Y-108342400D01*
X121276951Y-108342400D01*
X120996350Y-108286586D01*
X120732030Y-108177101D01*
X120494149Y-108018153D01*
X120291847Y-107815851D01*
X120132899Y-107577970D01*
X120023414Y-107313650D01*
X119967600Y-107033049D01*
X119967600Y-106746951D01*
X120023414Y-106466350D01*
X120132899Y-106202030D01*
X120291847Y-105964149D01*
X120494149Y-105761847D01*
X120732030Y-105602899D01*
X120996350Y-105493414D01*
X121276951Y-105437600D01*
X121563049Y-105437600D01*
X121843650Y-105493414D01*
X121843650Y-105493414D01*
G37*
G36*
X114843650Y-105493414D02*
G01*
X115107970Y-105602899D01*
X115345851Y-105761847D01*
X115548153Y-105964149D01*
X115707101Y-106202030D01*
X115816586Y-106466350D01*
X115872400Y-106746951D01*
X115872400Y-107033049D01*
X115816586Y-107313650D01*
X115707101Y-107577970D01*
X115548153Y-107815851D01*
X115345851Y-108018153D01*
X115107970Y-108177101D01*
X114843650Y-108286586D01*
X114563049Y-108342400D01*
X114276951Y-108342400D01*
X113996350Y-108286586D01*
X113732030Y-108177101D01*
X113494149Y-108018153D01*
X113291847Y-107815851D01*
X113132899Y-107577970D01*
X113023414Y-107313650D01*
X112967600Y-107033049D01*
X112967600Y-106746951D01*
X113023414Y-106466350D01*
X113132899Y-106202030D01*
X113291847Y-105964149D01*
X113494149Y-105761847D01*
X113732030Y-105602899D01*
X113996350Y-105493414D01*
X114276951Y-105437600D01*
X114563049Y-105437600D01*
X114843650Y-105493414D01*
X114843650Y-105493414D01*
G37*
G36*
X132732400Y-106777400D02*
G01*
X131367600Y-106777400D01*
X131367600Y-105822600D01*
X132732400Y-105822600D01*
X132732400Y-106777400D01*
X132732400Y-106777400D01*
G37*
G36*
X115175928Y-103296318D02*
G01*
X115335606Y-103362459D01*
X115479309Y-103458478D01*
X115601522Y-103580691D01*
X115697541Y-103724394D01*
X115763682Y-103884072D01*
X115797400Y-104053585D01*
X115797400Y-104226415D01*
X115763682Y-104395928D01*
X115697541Y-104555606D01*
X115601522Y-104699309D01*
X115479309Y-104821522D01*
X115335606Y-104917541D01*
X115175928Y-104983682D01*
X115006416Y-105017400D01*
X114833584Y-105017400D01*
X114664072Y-104983682D01*
X114504394Y-104917541D01*
X114360691Y-104821522D01*
X114238478Y-104699309D01*
X114142459Y-104555606D01*
X114076318Y-104395928D01*
X114042600Y-104226415D01*
X114042600Y-104053585D01*
X114076318Y-103884072D01*
X114142459Y-103724394D01*
X114238478Y-103580691D01*
X114360691Y-103458478D01*
X114504394Y-103362459D01*
X114664072Y-103296318D01*
X114833584Y-103262600D01*
X115006416Y-103262600D01*
X115175928Y-103296318D01*
X115175928Y-103296318D01*
G37*
G36*
X121175928Y-103296318D02*
G01*
X121335606Y-103362459D01*
X121479309Y-103458478D01*
X121601522Y-103580691D01*
X121697541Y-103724394D01*
X121763682Y-103884072D01*
X121797400Y-104053585D01*
X121797400Y-104226415D01*
X121763682Y-104395928D01*
X121697541Y-104555606D01*
X121601522Y-104699309D01*
X121479309Y-104821522D01*
X121335606Y-104917541D01*
X121175928Y-104983682D01*
X121006416Y-105017400D01*
X120833584Y-105017400D01*
X120664072Y-104983682D01*
X120504394Y-104917541D01*
X120360691Y-104821522D01*
X120238478Y-104699309D01*
X120142459Y-104555606D01*
X120076318Y-104395928D01*
X120042600Y-104226415D01*
X120042600Y-104053585D01*
X120076318Y-103884072D01*
X120142459Y-103724394D01*
X120238478Y-103580691D01*
X120360691Y-103458478D01*
X120504394Y-103362459D01*
X120664072Y-103296318D01*
X120833584Y-103262600D01*
X121006416Y-103262600D01*
X121175928Y-103296318D01*
X121175928Y-103296318D01*
G37*
G36*
X119175928Y-103296318D02*
G01*
X119335606Y-103362459D01*
X119479309Y-103458478D01*
X119601522Y-103580691D01*
X119697541Y-103724394D01*
X119763682Y-103884072D01*
X119797400Y-104053585D01*
X119797400Y-104226415D01*
X119763682Y-104395928D01*
X119697541Y-104555606D01*
X119601522Y-104699309D01*
X119479309Y-104821522D01*
X119335606Y-104917541D01*
X119175928Y-104983682D01*
X119006416Y-105017400D01*
X118833584Y-105017400D01*
X118664072Y-104983682D01*
X118504394Y-104917541D01*
X118360691Y-104821522D01*
X118238478Y-104699309D01*
X118142459Y-104555606D01*
X118076318Y-104395928D01*
X118042600Y-104226415D01*
X118042600Y-104053585D01*
X118076318Y-103884072D01*
X118142459Y-103724394D01*
X118238478Y-103580691D01*
X118360691Y-103458478D01*
X118504394Y-103362459D01*
X118664072Y-103296318D01*
X118833584Y-103262600D01*
X119006416Y-103262600D01*
X119175928Y-103296318D01*
X119175928Y-103296318D01*
G37*
G36*
X117175928Y-103296318D02*
G01*
X117335606Y-103362459D01*
X117479309Y-103458478D01*
X117601522Y-103580691D01*
X117697541Y-103724394D01*
X117763682Y-103884072D01*
X117797400Y-104053585D01*
X117797400Y-104226415D01*
X117763682Y-104395928D01*
X117697541Y-104555606D01*
X117601522Y-104699309D01*
X117479309Y-104821522D01*
X117335606Y-104917541D01*
X117175928Y-104983682D01*
X117006416Y-105017400D01*
X116833584Y-105017400D01*
X116664072Y-104983682D01*
X116504394Y-104917541D01*
X116360691Y-104821522D01*
X116238478Y-104699309D01*
X116142459Y-104555606D01*
X116076318Y-104395928D01*
X116042600Y-104226415D01*
X116042600Y-104053585D01*
X116076318Y-103884072D01*
X116142459Y-103724394D01*
X116238478Y-103580691D01*
X116360691Y-103458478D01*
X116504394Y-103362459D01*
X116664072Y-103296318D01*
X116833584Y-103262600D01*
X117006416Y-103262600D01*
X117175928Y-103296318D01*
X117175928Y-103296318D01*
G37*
G36*
X144415928Y-103296318D02*
G01*
X144575606Y-103362459D01*
X144719309Y-103458478D01*
X144841522Y-103580691D01*
X144937541Y-103724394D01*
X145003682Y-103884072D01*
X145037400Y-104053585D01*
X145037400Y-104226415D01*
X145003682Y-104395928D01*
X144937541Y-104555606D01*
X144841522Y-104699309D01*
X144719309Y-104821522D01*
X144575606Y-104917541D01*
X144415928Y-104983682D01*
X144246416Y-105017400D01*
X144073584Y-105017400D01*
X143904072Y-104983682D01*
X143744394Y-104917541D01*
X143600691Y-104821522D01*
X143478478Y-104699309D01*
X143382459Y-104555606D01*
X143316318Y-104395928D01*
X143282600Y-104226415D01*
X143282600Y-104053585D01*
X143316318Y-103884072D01*
X143382459Y-103724394D01*
X143478478Y-103580691D01*
X143600691Y-103458478D01*
X143744394Y-103362459D01*
X143904072Y-103296318D01*
X144073584Y-103262600D01*
X144246416Y-103262600D01*
X144415928Y-103296318D01*
X144415928Y-103296318D01*
G37*
G36*
X142415928Y-103296318D02*
G01*
X142575606Y-103362459D01*
X142719309Y-103458478D01*
X142841522Y-103580691D01*
X142937541Y-103724394D01*
X143003682Y-103884072D01*
X143037400Y-104053585D01*
X143037400Y-104226415D01*
X143003682Y-104395928D01*
X142937541Y-104555606D01*
X142841522Y-104699309D01*
X142719309Y-104821522D01*
X142575606Y-104917541D01*
X142415928Y-104983682D01*
X142246416Y-105017400D01*
X142073584Y-105017400D01*
X141904072Y-104983682D01*
X141744394Y-104917541D01*
X141600691Y-104821522D01*
X141478478Y-104699309D01*
X141382459Y-104555606D01*
X141316318Y-104395928D01*
X141282600Y-104226415D01*
X141282600Y-104053585D01*
X141316318Y-103884072D01*
X141382459Y-103724394D01*
X141478478Y-103580691D01*
X141600691Y-103458478D01*
X141744394Y-103362459D01*
X141904072Y-103296318D01*
X142073584Y-103262600D01*
X142246416Y-103262600D01*
X142415928Y-103296318D01*
X142415928Y-103296318D01*
G37*
G36*
X140415928Y-103296318D02*
G01*
X140575606Y-103362459D01*
X140719309Y-103458478D01*
X140841522Y-103580691D01*
X140937541Y-103724394D01*
X141003682Y-103884072D01*
X141037400Y-104053585D01*
X141037400Y-104226415D01*
X141003682Y-104395928D01*
X140937541Y-104555606D01*
X140841522Y-104699309D01*
X140719309Y-104821522D01*
X140575606Y-104917541D01*
X140415928Y-104983682D01*
X140246416Y-105017400D01*
X140073584Y-105017400D01*
X139904072Y-104983682D01*
X139744394Y-104917541D01*
X139600691Y-104821522D01*
X139478478Y-104699309D01*
X139382459Y-104555606D01*
X139316318Y-104395928D01*
X139282600Y-104226415D01*
X139282600Y-104053585D01*
X139316318Y-103884072D01*
X139382459Y-103724394D01*
X139478478Y-103580691D01*
X139600691Y-103458478D01*
X139744394Y-103362459D01*
X139904072Y-103296318D01*
X140073584Y-103262600D01*
X140246416Y-103262600D01*
X140415928Y-103296318D01*
X140415928Y-103296318D01*
G37*
G36*
X138415928Y-103296318D02*
G01*
X138575606Y-103362459D01*
X138719309Y-103458478D01*
X138841522Y-103580691D01*
X138937541Y-103724394D01*
X139003682Y-103884072D01*
X139037400Y-104053585D01*
X139037400Y-104226415D01*
X139003682Y-104395928D01*
X138937541Y-104555606D01*
X138841522Y-104699309D01*
X138719309Y-104821522D01*
X138575606Y-104917541D01*
X138415928Y-104983682D01*
X138246416Y-105017400D01*
X138073584Y-105017400D01*
X137904072Y-104983682D01*
X137744394Y-104917541D01*
X137600691Y-104821522D01*
X137478478Y-104699309D01*
X137382459Y-104555606D01*
X137316318Y-104395928D01*
X137282600Y-104226415D01*
X137282600Y-104053585D01*
X137316318Y-103884072D01*
X137382459Y-103724394D01*
X137478478Y-103580691D01*
X137600691Y-103458478D01*
X137744394Y-103362459D01*
X137904072Y-103296318D01*
X138073584Y-103262600D01*
X138246416Y-103262600D01*
X138415928Y-103296318D01*
X138415928Y-103296318D01*
G37*
G36*
X121843650Y-99993414D02*
G01*
X122107970Y-100102899D01*
X122345851Y-100261847D01*
X122548153Y-100464149D01*
X122707101Y-100702030D01*
X122816586Y-100966350D01*
X122872400Y-101246951D01*
X122872400Y-101533049D01*
X122816586Y-101813650D01*
X122707101Y-102077970D01*
X122548153Y-102315851D01*
X122345851Y-102518153D01*
X122107970Y-102677101D01*
X121843650Y-102786586D01*
X121563049Y-102842400D01*
X121276951Y-102842400D01*
X120996350Y-102786586D01*
X120732030Y-102677101D01*
X120494149Y-102518153D01*
X120291847Y-102315851D01*
X120132899Y-102077970D01*
X120023414Y-101813650D01*
X119967600Y-101533049D01*
X119967600Y-101246951D01*
X120023414Y-100966350D01*
X120132899Y-100702030D01*
X120291847Y-100464149D01*
X120494149Y-100261847D01*
X120732030Y-100102899D01*
X120996350Y-99993414D01*
X121276951Y-99937600D01*
X121563049Y-99937600D01*
X121843650Y-99993414D01*
X121843650Y-99993414D01*
G37*
G36*
X138083650Y-99993414D02*
G01*
X138347970Y-100102899D01*
X138585851Y-100261847D01*
X138788153Y-100464149D01*
X138947101Y-100702030D01*
X139056586Y-100966350D01*
X139112400Y-101246951D01*
X139112400Y-101533049D01*
X139056586Y-101813650D01*
X138947101Y-102077970D01*
X138788153Y-102315851D01*
X138585851Y-102518153D01*
X138347970Y-102677101D01*
X138083650Y-102786586D01*
X137803049Y-102842400D01*
X137516951Y-102842400D01*
X137236350Y-102786586D01*
X136972030Y-102677101D01*
X136734149Y-102518153D01*
X136531847Y-102315851D01*
X136372899Y-102077970D01*
X136263414Y-101813650D01*
X136207600Y-101533049D01*
X136207600Y-101246951D01*
X136263414Y-100966350D01*
X136372899Y-100702030D01*
X136531847Y-100464149D01*
X136734149Y-100261847D01*
X136972030Y-100102899D01*
X137236350Y-99993414D01*
X137516951Y-99937600D01*
X137803049Y-99937600D01*
X138083650Y-99993414D01*
X138083650Y-99993414D01*
G37*
G36*
X114843650Y-99993414D02*
G01*
X115107970Y-100102899D01*
X115345851Y-100261847D01*
X115548153Y-100464149D01*
X115707101Y-100702030D01*
X115816586Y-100966350D01*
X115872400Y-101246951D01*
X115872400Y-101533049D01*
X115816586Y-101813650D01*
X115707101Y-102077970D01*
X115548153Y-102315851D01*
X115345851Y-102518153D01*
X115107970Y-102677101D01*
X114843650Y-102786586D01*
X114563049Y-102842400D01*
X114276951Y-102842400D01*
X113996350Y-102786586D01*
X113732030Y-102677101D01*
X113494149Y-102518153D01*
X113291847Y-102315851D01*
X113132899Y-102077970D01*
X113023414Y-101813650D01*
X112967600Y-101533049D01*
X112967600Y-101246951D01*
X113023414Y-100966350D01*
X113132899Y-100702030D01*
X113291847Y-100464149D01*
X113494149Y-100261847D01*
X113732030Y-100102899D01*
X113996350Y-99993414D01*
X114276951Y-99937600D01*
X114563049Y-99937600D01*
X114843650Y-99993414D01*
X114843650Y-99993414D01*
G37*
G36*
X145083650Y-99993414D02*
G01*
X145347970Y-100102899D01*
X145585851Y-100261847D01*
X145788153Y-100464149D01*
X145947101Y-100702030D01*
X146056586Y-100966350D01*
X146112400Y-101246951D01*
X146112400Y-101533049D01*
X146056586Y-101813650D01*
X145947101Y-102077970D01*
X145788153Y-102315851D01*
X145585851Y-102518153D01*
X145347970Y-102677101D01*
X145083650Y-102786586D01*
X144803049Y-102842400D01*
X144516951Y-102842400D01*
X144236350Y-102786586D01*
X143972030Y-102677101D01*
X143734149Y-102518153D01*
X143531847Y-102315851D01*
X143372899Y-102077970D01*
X143263414Y-101813650D01*
X143207600Y-101533049D01*
X143207600Y-101246951D01*
X143263414Y-100966350D01*
X143372899Y-100702030D01*
X143531847Y-100464149D01*
X143734149Y-100261847D01*
X143972030Y-100102899D01*
X144236350Y-99993414D01*
X144516951Y-99937600D01*
X144803049Y-99937600D01*
X145083650Y-99993414D01*
X145083650Y-99993414D01*
G37*
G36*
X125176000Y-99547801D02*
G01*
X125177464Y-99562667D01*
X125181800Y-99576961D01*
X125188842Y-99590135D01*
X125198318Y-99601682D01*
X125209865Y-99611158D01*
X125223039Y-99618200D01*
X125237333Y-99622536D01*
X125252199Y-99624000D01*
X125891000Y-99624000D01*
X125891000Y-99876000D01*
X125252199Y-99876000D01*
X125237333Y-99877464D01*
X125223039Y-99881800D01*
X125209865Y-99888842D01*
X125198318Y-99898318D01*
X125188842Y-99909865D01*
X125181800Y-99923039D01*
X125177464Y-99937333D01*
X125176000Y-99952199D01*
X125176000Y-100166000D01*
X124824000Y-100166000D01*
X124824000Y-99952199D01*
X124822536Y-99937333D01*
X124818200Y-99923039D01*
X124811158Y-99909865D01*
X124801682Y-99898318D01*
X124790135Y-99888842D01*
X124776961Y-99881800D01*
X124762667Y-99877464D01*
X124747801Y-99876000D01*
X124109000Y-99876000D01*
X124109000Y-99624000D01*
X124747801Y-99624000D01*
X124762667Y-99622536D01*
X124776961Y-99618200D01*
X124790135Y-99611158D01*
X124801682Y-99601682D01*
X124811158Y-99590135D01*
X124818200Y-99576961D01*
X124822536Y-99562667D01*
X124824000Y-99547801D01*
X124824000Y-99534000D01*
X125176000Y-99534000D01*
X125176000Y-99547801D01*
X125176000Y-99547801D01*
G37*
G36*
X124691000Y-99376000D02*
G01*
X124109000Y-99376000D01*
X124109000Y-99124000D01*
X124691000Y-99124000D01*
X124691000Y-99376000D01*
X124691000Y-99376000D01*
G37*
G36*
X125891000Y-99376000D02*
G01*
X125309000Y-99376000D01*
X125309000Y-99124000D01*
X125891000Y-99124000D01*
X125891000Y-99376000D01*
X125891000Y-99376000D01*
G37*
G36*
X125891000Y-98876000D02*
G01*
X125309000Y-98876000D01*
X125309000Y-98624000D01*
X125891000Y-98624000D01*
X125891000Y-98876000D01*
X125891000Y-98876000D01*
G37*
G36*
X124691000Y-98876000D02*
G01*
X124109000Y-98876000D01*
X124109000Y-98624000D01*
X124691000Y-98624000D01*
X124691000Y-98876000D01*
X124691000Y-98876000D01*
G37*
G36*
X125176000Y-98047801D02*
G01*
X125177464Y-98062667D01*
X125181800Y-98076961D01*
X125188842Y-98090135D01*
X125198318Y-98101682D01*
X125209865Y-98111158D01*
X125223039Y-98118200D01*
X125237333Y-98122536D01*
X125252199Y-98124000D01*
X125891000Y-98124000D01*
X125891000Y-98376000D01*
X125252199Y-98376000D01*
X125237333Y-98377464D01*
X125223039Y-98381800D01*
X125209865Y-98388842D01*
X125198318Y-98398318D01*
X125188842Y-98409865D01*
X125181800Y-98423039D01*
X125177464Y-98437333D01*
X125176000Y-98452199D01*
X125176000Y-98466000D01*
X124824000Y-98466000D01*
X124824000Y-98452199D01*
X124822536Y-98437333D01*
X124818200Y-98423039D01*
X124811158Y-98409865D01*
X124801682Y-98398318D01*
X124790135Y-98388842D01*
X124776961Y-98381800D01*
X124762667Y-98377464D01*
X124747801Y-98376000D01*
X124109000Y-98376000D01*
X124109000Y-98124000D01*
X124747801Y-98124000D01*
X124762667Y-98122536D01*
X124776961Y-98118200D01*
X124790135Y-98111158D01*
X124801682Y-98101682D01*
X124811158Y-98090135D01*
X124818200Y-98076961D01*
X124822536Y-98062667D01*
X124824000Y-98047801D01*
X124824000Y-97834000D01*
X125176000Y-97834000D01*
X125176000Y-98047801D01*
X125176000Y-98047801D01*
G37*
G36*
X138083650Y-95333414D02*
G01*
X138347970Y-95442899D01*
X138585851Y-95601847D01*
X138788153Y-95804149D01*
X138947101Y-96042030D01*
X139056586Y-96306350D01*
X139112400Y-96586951D01*
X139112400Y-96873049D01*
X139056586Y-97153650D01*
X138947101Y-97417970D01*
X138788153Y-97655851D01*
X138585851Y-97858153D01*
X138347970Y-98017101D01*
X138083650Y-98126586D01*
X137803049Y-98182400D01*
X137516951Y-98182400D01*
X137236350Y-98126586D01*
X136972030Y-98017101D01*
X136734149Y-97858153D01*
X136531847Y-97655851D01*
X136372899Y-97417970D01*
X136263414Y-97153650D01*
X136207600Y-96873049D01*
X136207600Y-96586951D01*
X136263414Y-96306350D01*
X136372899Y-96042030D01*
X136531847Y-95804149D01*
X136734149Y-95601847D01*
X136972030Y-95442899D01*
X137236350Y-95333414D01*
X137516951Y-95277600D01*
X137803049Y-95277600D01*
X138083650Y-95333414D01*
X138083650Y-95333414D01*
G37*
G36*
X121843650Y-95333414D02*
G01*
X122107970Y-95442899D01*
X122345851Y-95601847D01*
X122548153Y-95804149D01*
X122707101Y-96042030D01*
X122816586Y-96306350D01*
X122872400Y-96586951D01*
X122872400Y-96873049D01*
X122816586Y-97153650D01*
X122707101Y-97417970D01*
X122548153Y-97655851D01*
X122345851Y-97858153D01*
X122107970Y-98017101D01*
X121843650Y-98126586D01*
X121563049Y-98182400D01*
X121276951Y-98182400D01*
X120996350Y-98126586D01*
X120732030Y-98017101D01*
X120494149Y-97858153D01*
X120291847Y-97655851D01*
X120132899Y-97417970D01*
X120023414Y-97153650D01*
X119967600Y-96873049D01*
X119967600Y-96586951D01*
X120023414Y-96306350D01*
X120132899Y-96042030D01*
X120291847Y-95804149D01*
X120494149Y-95601847D01*
X120732030Y-95442899D01*
X120996350Y-95333414D01*
X121276951Y-95277600D01*
X121563049Y-95277600D01*
X121843650Y-95333414D01*
X121843650Y-95333414D01*
G37*
G36*
X114843650Y-95333414D02*
G01*
X115107970Y-95442899D01*
X115345851Y-95601847D01*
X115548153Y-95804149D01*
X115707101Y-96042030D01*
X115816586Y-96306350D01*
X115872400Y-96586951D01*
X115872400Y-96873049D01*
X115816586Y-97153650D01*
X115707101Y-97417970D01*
X115548153Y-97655851D01*
X115345851Y-97858153D01*
X115107970Y-98017101D01*
X114843650Y-98126586D01*
X114563049Y-98182400D01*
X114276951Y-98182400D01*
X113996350Y-98126586D01*
X113732030Y-98017101D01*
X113494149Y-97858153D01*
X113291847Y-97655851D01*
X113132899Y-97417970D01*
X113023414Y-97153650D01*
X112967600Y-96873049D01*
X112967600Y-96586951D01*
X113023414Y-96306350D01*
X113132899Y-96042030D01*
X113291847Y-95804149D01*
X113494149Y-95601847D01*
X113732030Y-95442899D01*
X113996350Y-95333414D01*
X114276951Y-95277600D01*
X114563049Y-95277600D01*
X114843650Y-95333414D01*
X114843650Y-95333414D01*
G37*
G36*
X145083650Y-95333414D02*
G01*
X145347970Y-95442899D01*
X145585851Y-95601847D01*
X145788153Y-95804149D01*
X145947101Y-96042030D01*
X146056586Y-96306350D01*
X146112400Y-96586951D01*
X146112400Y-96873049D01*
X146056586Y-97153650D01*
X145947101Y-97417970D01*
X145788153Y-97655851D01*
X145585851Y-97858153D01*
X145347970Y-98017101D01*
X145083650Y-98126586D01*
X144803049Y-98182400D01*
X144516951Y-98182400D01*
X144236350Y-98126586D01*
X143972030Y-98017101D01*
X143734149Y-97858153D01*
X143531847Y-97655851D01*
X143372899Y-97417970D01*
X143263414Y-97153650D01*
X143207600Y-96873049D01*
X143207600Y-96586951D01*
X143263414Y-96306350D01*
X143372899Y-96042030D01*
X143531847Y-95804149D01*
X143734149Y-95601847D01*
X143972030Y-95442899D01*
X144236350Y-95333414D01*
X144516951Y-95277600D01*
X144803049Y-95277600D01*
X145083650Y-95333414D01*
X145083650Y-95333414D01*
G37*
G36*
X127632432Y-94828210D02*
G01*
X127683613Y-94843736D01*
X127730782Y-94868949D01*
X127772123Y-94902877D01*
X127806051Y-94944218D01*
X127831264Y-94991387D01*
X127846790Y-95042568D01*
X127852400Y-95099533D01*
X127852400Y-96000467D01*
X127846790Y-96057432D01*
X127831264Y-96108613D01*
X127806051Y-96155782D01*
X127772123Y-96197123D01*
X127730782Y-96231051D01*
X127683613Y-96256264D01*
X127632432Y-96271790D01*
X127575467Y-96277400D01*
X126424533Y-96277400D01*
X126367568Y-96271790D01*
X126316387Y-96256264D01*
X126269218Y-96231051D01*
X126227877Y-96197123D01*
X126193949Y-96155782D01*
X126168736Y-96108613D01*
X126153210Y-96057432D01*
X126147600Y-96000467D01*
X126147600Y-95099533D01*
X126153210Y-95042568D01*
X126168736Y-94991387D01*
X126193949Y-94944218D01*
X126227877Y-94902877D01*
X126269218Y-94868949D01*
X126316387Y-94843736D01*
X126367568Y-94828210D01*
X126424533Y-94822600D01*
X127575467Y-94822600D01*
X127632432Y-94828210D01*
X127632432Y-94828210D01*
G37*
G36*
X125632432Y-94828210D02*
G01*
X125683613Y-94843736D01*
X125730782Y-94868949D01*
X125772123Y-94902877D01*
X125806051Y-94944218D01*
X125831264Y-94991387D01*
X125846790Y-95042568D01*
X125852400Y-95099533D01*
X125852400Y-96000467D01*
X125846790Y-96057432D01*
X125831264Y-96108613D01*
X125806051Y-96155782D01*
X125772123Y-96197123D01*
X125730782Y-96231051D01*
X125683613Y-96256264D01*
X125632432Y-96271790D01*
X125575467Y-96277400D01*
X124424533Y-96277400D01*
X124367568Y-96271790D01*
X124316387Y-96256264D01*
X124269218Y-96231051D01*
X124227877Y-96197123D01*
X124193949Y-96155782D01*
X124168736Y-96108613D01*
X124153210Y-96057432D01*
X124147600Y-96000467D01*
X124147600Y-95099533D01*
X124153210Y-95042568D01*
X124168736Y-94991387D01*
X124193949Y-94944218D01*
X124227877Y-94902877D01*
X124269218Y-94868949D01*
X124316387Y-94843736D01*
X124367568Y-94828210D01*
X124424533Y-94822600D01*
X125575467Y-94822600D01*
X125632432Y-94828210D01*
X125632432Y-94828210D01*
G37*
G36*
X115175928Y-93136318D02*
G01*
X115335606Y-93202459D01*
X115479309Y-93298478D01*
X115601522Y-93420691D01*
X115697541Y-93564394D01*
X115697541Y-93564395D01*
X115763682Y-93724072D01*
X115797400Y-93893584D01*
X115797400Y-94066416D01*
X115766587Y-94221323D01*
X115763682Y-94235928D01*
X115697541Y-94395606D01*
X115601522Y-94539309D01*
X115479309Y-94661522D01*
X115335606Y-94757541D01*
X115178540Y-94822600D01*
X115175928Y-94823682D01*
X115006416Y-94857400D01*
X114833584Y-94857400D01*
X114664072Y-94823682D01*
X114661460Y-94822600D01*
X114504394Y-94757541D01*
X114360691Y-94661522D01*
X114238478Y-94539309D01*
X114142459Y-94395606D01*
X114076318Y-94235928D01*
X114073413Y-94221323D01*
X114042600Y-94066416D01*
X114042600Y-93893584D01*
X114076318Y-93724072D01*
X114142459Y-93564395D01*
X114142459Y-93564394D01*
X114238478Y-93420691D01*
X114360691Y-93298478D01*
X114504394Y-93202459D01*
X114664072Y-93136318D01*
X114833584Y-93102600D01*
X115006416Y-93102600D01*
X115175928Y-93136318D01*
X115175928Y-93136318D01*
G37*
G36*
X144415928Y-93136318D02*
G01*
X144575606Y-93202459D01*
X144719309Y-93298478D01*
X144841522Y-93420691D01*
X144937541Y-93564394D01*
X144937541Y-93564395D01*
X145003682Y-93724072D01*
X145037400Y-93893584D01*
X145037400Y-94066416D01*
X145006587Y-94221323D01*
X145003682Y-94235928D01*
X144937541Y-94395606D01*
X144841522Y-94539309D01*
X144719309Y-94661522D01*
X144575606Y-94757541D01*
X144418540Y-94822600D01*
X144415928Y-94823682D01*
X144246416Y-94857400D01*
X144073584Y-94857400D01*
X143904072Y-94823682D01*
X143901460Y-94822600D01*
X143744394Y-94757541D01*
X143600691Y-94661522D01*
X143478478Y-94539309D01*
X143382459Y-94395606D01*
X143316318Y-94235928D01*
X143313413Y-94221323D01*
X143282600Y-94066416D01*
X143282600Y-93893584D01*
X143316318Y-93724072D01*
X143382459Y-93564395D01*
X143382459Y-93564394D01*
X143478478Y-93420691D01*
X143600691Y-93298478D01*
X143744394Y-93202459D01*
X143904072Y-93136318D01*
X144073584Y-93102600D01*
X144246416Y-93102600D01*
X144415928Y-93136318D01*
X144415928Y-93136318D01*
G37*
G36*
X142415928Y-93136318D02*
G01*
X142575606Y-93202459D01*
X142719309Y-93298478D01*
X142841522Y-93420691D01*
X142937541Y-93564394D01*
X142937541Y-93564395D01*
X143003682Y-93724072D01*
X143037400Y-93893584D01*
X143037400Y-94066416D01*
X143006587Y-94221323D01*
X143003682Y-94235928D01*
X142937541Y-94395606D01*
X142841522Y-94539309D01*
X142719309Y-94661522D01*
X142575606Y-94757541D01*
X142418540Y-94822600D01*
X142415928Y-94823682D01*
X142246416Y-94857400D01*
X142073584Y-94857400D01*
X141904072Y-94823682D01*
X141901460Y-94822600D01*
X141744394Y-94757541D01*
X141600691Y-94661522D01*
X141478478Y-94539309D01*
X141382459Y-94395606D01*
X141316318Y-94235928D01*
X141313413Y-94221323D01*
X141282600Y-94066416D01*
X141282600Y-93893584D01*
X141316318Y-93724072D01*
X141382459Y-93564395D01*
X141382459Y-93564394D01*
X141478478Y-93420691D01*
X141600691Y-93298478D01*
X141744394Y-93202459D01*
X141904072Y-93136318D01*
X142073584Y-93102600D01*
X142246416Y-93102600D01*
X142415928Y-93136318D01*
X142415928Y-93136318D01*
G37*
G36*
X140415928Y-93136318D02*
G01*
X140575606Y-93202459D01*
X140719309Y-93298478D01*
X140841522Y-93420691D01*
X140937541Y-93564394D01*
X140937541Y-93564395D01*
X141003682Y-93724072D01*
X141037400Y-93893584D01*
X141037400Y-94066416D01*
X141006587Y-94221323D01*
X141003682Y-94235928D01*
X140937541Y-94395606D01*
X140841522Y-94539309D01*
X140719309Y-94661522D01*
X140575606Y-94757541D01*
X140418540Y-94822600D01*
X140415928Y-94823682D01*
X140246416Y-94857400D01*
X140073584Y-94857400D01*
X139904072Y-94823682D01*
X139901460Y-94822600D01*
X139744394Y-94757541D01*
X139600691Y-94661522D01*
X139478478Y-94539309D01*
X139382459Y-94395606D01*
X139316318Y-94235928D01*
X139313413Y-94221323D01*
X139282600Y-94066416D01*
X139282600Y-93893584D01*
X139316318Y-93724072D01*
X139382459Y-93564395D01*
X139382459Y-93564394D01*
X139478478Y-93420691D01*
X139600691Y-93298478D01*
X139744394Y-93202459D01*
X139904072Y-93136318D01*
X140073584Y-93102600D01*
X140246416Y-93102600D01*
X140415928Y-93136318D01*
X140415928Y-93136318D01*
G37*
G36*
X138415928Y-93136318D02*
G01*
X138575606Y-93202459D01*
X138719309Y-93298478D01*
X138841522Y-93420691D01*
X138937541Y-93564394D01*
X138937541Y-93564395D01*
X139003682Y-93724072D01*
X139037400Y-93893584D01*
X139037400Y-94066416D01*
X139006587Y-94221323D01*
X139003682Y-94235928D01*
X138937541Y-94395606D01*
X138841522Y-94539309D01*
X138719309Y-94661522D01*
X138575606Y-94757541D01*
X138418540Y-94822600D01*
X138415928Y-94823682D01*
X138246416Y-94857400D01*
X138073584Y-94857400D01*
X137904072Y-94823682D01*
X137901460Y-94822600D01*
X137744394Y-94757541D01*
X137600691Y-94661522D01*
X137478478Y-94539309D01*
X137382459Y-94395606D01*
X137316318Y-94235928D01*
X137313413Y-94221323D01*
X137282600Y-94066416D01*
X137282600Y-93893584D01*
X137316318Y-93724072D01*
X137382459Y-93564395D01*
X137382459Y-93564394D01*
X137478478Y-93420691D01*
X137600691Y-93298478D01*
X137744394Y-93202459D01*
X137904072Y-93136318D01*
X138073584Y-93102600D01*
X138246416Y-93102600D01*
X138415928Y-93136318D01*
X138415928Y-93136318D01*
G37*
G36*
X121175928Y-93136318D02*
G01*
X121335606Y-93202459D01*
X121479309Y-93298478D01*
X121601522Y-93420691D01*
X121697541Y-93564394D01*
X121697541Y-93564395D01*
X121763682Y-93724072D01*
X121797400Y-93893584D01*
X121797400Y-94066416D01*
X121766587Y-94221323D01*
X121763682Y-94235928D01*
X121697541Y-94395606D01*
X121601522Y-94539309D01*
X121479309Y-94661522D01*
X121335606Y-94757541D01*
X121178540Y-94822600D01*
X121175928Y-94823682D01*
X121006416Y-94857400D01*
X120833584Y-94857400D01*
X120664072Y-94823682D01*
X120661460Y-94822600D01*
X120504394Y-94757541D01*
X120360691Y-94661522D01*
X120238478Y-94539309D01*
X120142459Y-94395606D01*
X120076318Y-94235928D01*
X120073413Y-94221323D01*
X120042600Y-94066416D01*
X120042600Y-93893584D01*
X120076318Y-93724072D01*
X120142459Y-93564395D01*
X120142459Y-93564394D01*
X120238478Y-93420691D01*
X120360691Y-93298478D01*
X120504394Y-93202459D01*
X120664072Y-93136318D01*
X120833584Y-93102600D01*
X121006416Y-93102600D01*
X121175928Y-93136318D01*
X121175928Y-93136318D01*
G37*
G36*
X119175928Y-93136318D02*
G01*
X119335606Y-93202459D01*
X119479309Y-93298478D01*
X119601522Y-93420691D01*
X119697541Y-93564394D01*
X119697541Y-93564395D01*
X119763682Y-93724072D01*
X119797400Y-93893584D01*
X119797400Y-94066416D01*
X119766587Y-94221323D01*
X119763682Y-94235928D01*
X119697541Y-94395606D01*
X119601522Y-94539309D01*
X119479309Y-94661522D01*
X119335606Y-94757541D01*
X119178540Y-94822600D01*
X119175928Y-94823682D01*
X119006416Y-94857400D01*
X118833584Y-94857400D01*
X118664072Y-94823682D01*
X118661460Y-94822600D01*
X118504394Y-94757541D01*
X118360691Y-94661522D01*
X118238478Y-94539309D01*
X118142459Y-94395606D01*
X118076318Y-94235928D01*
X118073413Y-94221323D01*
X118042600Y-94066416D01*
X118042600Y-93893584D01*
X118076318Y-93724072D01*
X118142459Y-93564395D01*
X118142459Y-93564394D01*
X118238478Y-93420691D01*
X118360691Y-93298478D01*
X118504394Y-93202459D01*
X118664072Y-93136318D01*
X118833584Y-93102600D01*
X119006416Y-93102600D01*
X119175928Y-93136318D01*
X119175928Y-93136318D01*
G37*
G36*
X117175928Y-93136318D02*
G01*
X117335606Y-93202459D01*
X117479309Y-93298478D01*
X117601522Y-93420691D01*
X117697541Y-93564394D01*
X117697541Y-93564395D01*
X117763682Y-93724072D01*
X117797400Y-93893584D01*
X117797400Y-94066416D01*
X117766587Y-94221323D01*
X117763682Y-94235928D01*
X117697541Y-94395606D01*
X117601522Y-94539309D01*
X117479309Y-94661522D01*
X117335606Y-94757541D01*
X117178540Y-94822600D01*
X117175928Y-94823682D01*
X117006416Y-94857400D01*
X116833584Y-94857400D01*
X116664072Y-94823682D01*
X116661460Y-94822600D01*
X116504394Y-94757541D01*
X116360691Y-94661522D01*
X116238478Y-94539309D01*
X116142459Y-94395606D01*
X116076318Y-94235928D01*
X116073413Y-94221323D01*
X116042600Y-94066416D01*
X116042600Y-93893584D01*
X116076318Y-93724072D01*
X116142459Y-93564395D01*
X116142459Y-93564394D01*
X116238478Y-93420691D01*
X116360691Y-93298478D01*
X116504394Y-93202459D01*
X116664072Y-93136318D01*
X116833584Y-93102600D01*
X117006416Y-93102600D01*
X117175928Y-93136318D01*
X117175928Y-93136318D01*
G37*
G36*
X127632432Y-92778210D02*
G01*
X127683613Y-92793736D01*
X127730782Y-92818949D01*
X127772123Y-92852877D01*
X127806051Y-92894218D01*
X127831264Y-92941387D01*
X127846790Y-92992568D01*
X127852400Y-93049533D01*
X127852400Y-93950467D01*
X127846790Y-94007432D01*
X127831264Y-94058613D01*
X127806051Y-94105782D01*
X127772123Y-94147123D01*
X127730782Y-94181051D01*
X127683613Y-94206264D01*
X127632432Y-94221790D01*
X127575467Y-94227400D01*
X126424533Y-94227400D01*
X126367568Y-94221790D01*
X126316387Y-94206264D01*
X126269218Y-94181051D01*
X126227877Y-94147123D01*
X126193949Y-94105782D01*
X126168736Y-94058613D01*
X126153210Y-94007432D01*
X126147600Y-93950467D01*
X126147600Y-93049533D01*
X126153210Y-92992568D01*
X126168736Y-92941387D01*
X126193949Y-92894218D01*
X126227877Y-92852877D01*
X126269218Y-92818949D01*
X126316387Y-92793736D01*
X126367568Y-92778210D01*
X126424533Y-92772600D01*
X127575467Y-92772600D01*
X127632432Y-92778210D01*
X127632432Y-92778210D01*
G37*
G36*
X125632432Y-92778210D02*
G01*
X125683613Y-92793736D01*
X125730782Y-92818949D01*
X125772123Y-92852877D01*
X125806051Y-92894218D01*
X125831264Y-92941387D01*
X125846790Y-92992568D01*
X125852400Y-93049533D01*
X125852400Y-93950467D01*
X125846790Y-94007432D01*
X125831264Y-94058613D01*
X125806051Y-94105782D01*
X125772123Y-94147123D01*
X125730782Y-94181051D01*
X125683613Y-94206264D01*
X125632432Y-94221790D01*
X125575467Y-94227400D01*
X124424533Y-94227400D01*
X124367568Y-94221790D01*
X124316387Y-94206264D01*
X124269218Y-94181051D01*
X124227877Y-94147123D01*
X124193949Y-94105782D01*
X124168736Y-94058613D01*
X124153210Y-94007432D01*
X124147600Y-93950467D01*
X124147600Y-93049533D01*
X124153210Y-92992568D01*
X124168736Y-92941387D01*
X124193949Y-92894218D01*
X124227877Y-92852877D01*
X124269218Y-92818949D01*
X124316387Y-92793736D01*
X124367568Y-92778210D01*
X124424533Y-92772600D01*
X125575467Y-92772600D01*
X125632432Y-92778210D01*
X125632432Y-92778210D01*
G37*
G36*
X121843650Y-89833414D02*
G01*
X122107970Y-89942899D01*
X122345851Y-90101847D01*
X122548153Y-90304149D01*
X122707101Y-90542030D01*
X122816586Y-90806350D01*
X122872400Y-91086951D01*
X122872400Y-91373049D01*
X122816586Y-91653650D01*
X122707101Y-91917970D01*
X122548153Y-92155851D01*
X122345851Y-92358153D01*
X122107970Y-92517101D01*
X121843650Y-92626586D01*
X121563049Y-92682400D01*
X121276951Y-92682400D01*
X120996350Y-92626586D01*
X120732030Y-92517101D01*
X120494149Y-92358153D01*
X120291847Y-92155851D01*
X120132899Y-91917970D01*
X120023414Y-91653650D01*
X119967600Y-91373049D01*
X119967600Y-91086951D01*
X120023414Y-90806350D01*
X120132899Y-90542030D01*
X120291847Y-90304149D01*
X120494149Y-90101847D01*
X120732030Y-89942899D01*
X120996350Y-89833414D01*
X121276951Y-89777600D01*
X121563049Y-89777600D01*
X121843650Y-89833414D01*
X121843650Y-89833414D01*
G37*
G36*
X114843650Y-89833414D02*
G01*
X115107970Y-89942899D01*
X115345851Y-90101847D01*
X115548153Y-90304149D01*
X115707101Y-90542030D01*
X115816586Y-90806350D01*
X115872400Y-91086951D01*
X115872400Y-91373049D01*
X115816586Y-91653650D01*
X115707101Y-91917970D01*
X115548153Y-92155851D01*
X115345851Y-92358153D01*
X115107970Y-92517101D01*
X114843650Y-92626586D01*
X114563049Y-92682400D01*
X114276951Y-92682400D01*
X113996350Y-92626586D01*
X113732030Y-92517101D01*
X113494149Y-92358153D01*
X113291847Y-92155851D01*
X113132899Y-91917970D01*
X113023414Y-91653650D01*
X112967600Y-91373049D01*
X112967600Y-91086951D01*
X113023414Y-90806350D01*
X113132899Y-90542030D01*
X113291847Y-90304149D01*
X113494149Y-90101847D01*
X113732030Y-89942899D01*
X113996350Y-89833414D01*
X114276951Y-89777600D01*
X114563049Y-89777600D01*
X114843650Y-89833414D01*
X114843650Y-89833414D01*
G37*
G36*
X145083650Y-89833414D02*
G01*
X145347970Y-89942899D01*
X145585851Y-90101847D01*
X145788153Y-90304149D01*
X145947101Y-90542030D01*
X146056586Y-90806350D01*
X146112400Y-91086951D01*
X146112400Y-91373049D01*
X146056586Y-91653650D01*
X145947101Y-91917970D01*
X145788153Y-92155851D01*
X145585851Y-92358153D01*
X145347970Y-92517101D01*
X145083650Y-92626586D01*
X144803049Y-92682400D01*
X144516951Y-92682400D01*
X144236350Y-92626586D01*
X143972030Y-92517101D01*
X143734149Y-92358153D01*
X143531847Y-92155851D01*
X143372899Y-91917970D01*
X143263414Y-91653650D01*
X143207600Y-91373049D01*
X143207600Y-91086951D01*
X143263414Y-90806350D01*
X143372899Y-90542030D01*
X143531847Y-90304149D01*
X143734149Y-90101847D01*
X143972030Y-89942899D01*
X144236350Y-89833414D01*
X144516951Y-89777600D01*
X144803049Y-89777600D01*
X145083650Y-89833414D01*
X145083650Y-89833414D01*
G37*
G36*
X138083650Y-89833414D02*
G01*
X138347970Y-89942899D01*
X138585851Y-90101847D01*
X138788153Y-90304149D01*
X138947101Y-90542030D01*
X139056586Y-90806350D01*
X139112400Y-91086951D01*
X139112400Y-91373049D01*
X139056586Y-91653650D01*
X138947101Y-91917970D01*
X138788153Y-92155851D01*
X138585851Y-92358153D01*
X138347970Y-92517101D01*
X138083650Y-92626586D01*
X137803049Y-92682400D01*
X137516951Y-92682400D01*
X137236350Y-92626586D01*
X136972030Y-92517101D01*
X136734149Y-92358153D01*
X136531847Y-92155851D01*
X136372899Y-91917970D01*
X136263414Y-91653650D01*
X136207600Y-91373049D01*
X136207600Y-91086951D01*
X136263414Y-90806350D01*
X136372899Y-90542030D01*
X136531847Y-90304149D01*
X136734149Y-90101847D01*
X136972030Y-89942899D01*
X137236350Y-89833414D01*
X137516951Y-89777600D01*
X137803049Y-89777600D01*
X138083650Y-89833414D01*
X138083650Y-89833414D01*
G37*
M02*
