G04 #@! TF.GenerationSoftware,KiCad,Pcbnew,(5.1.0)-1*
G04 #@! TF.CreationDate,2020-02-18T23:46:36-06:00*
G04 #@! TF.ProjectId,USBMuxV1,5553424d-7578-4563-912e-6b696361645f,rev?*
G04 #@! TF.SameCoordinates,Original*
G04 #@! TF.FileFunction,Copper,L4,Bot*
G04 #@! TF.FilePolarity,Positive*
%FSLAX46Y46*%
G04 Gerber Fmt 4.6, Leading zero omitted, Abs format (unit mm)*
G04 Created by KiCad (PCBNEW (5.1.0)-1) date 2020-02-18 23:46:36*
%MOMM*%
%LPD*%
G04 APERTURE LIST*
%ADD10C,0.100000*%
%ADD11C,2.000000*%
%ADD12O,1.100000X1.300000*%
%ADD13R,0.580000X0.250000*%
%ADD14R,0.350000X0.630000*%
%ADD15R,1.250000X1.250000*%
%ADD16C,1.250000*%
%ADD17C,1.450000*%
%ADD18C,2.600000*%
%ADD19C,1.150000*%
%ADD20C,0.800000*%
%ADD21C,0.200000*%
%ADD22C,0.500000*%
%ADD23C,0.250000*%
%ADD24C,0.150000*%
G04 APERTURE END LIST*
D10*
G36*
X135949009Y-136002408D02*
G01*
X135997545Y-136009607D01*
X136045142Y-136021530D01*
X136091342Y-136038060D01*
X136135698Y-136059039D01*
X136177785Y-136084265D01*
X136217197Y-136113495D01*
X136253553Y-136146447D01*
X136286505Y-136182803D01*
X136315735Y-136222215D01*
X136340961Y-136264302D01*
X136361940Y-136308658D01*
X136378470Y-136354858D01*
X136390393Y-136402455D01*
X136397592Y-136450991D01*
X136400000Y-136500000D01*
X136400000Y-137500000D01*
X136397592Y-137549009D01*
X136390393Y-137597545D01*
X136378470Y-137645142D01*
X136361940Y-137691342D01*
X136340961Y-137735698D01*
X136315735Y-137777785D01*
X136286505Y-137817197D01*
X136253553Y-137853553D01*
X136217197Y-137886505D01*
X136177785Y-137915735D01*
X136135698Y-137940961D01*
X136091342Y-137961940D01*
X136045142Y-137978470D01*
X135997545Y-137990393D01*
X135949009Y-137997592D01*
X135900000Y-138000000D01*
X134900000Y-138000000D01*
X134850991Y-137997592D01*
X134802455Y-137990393D01*
X134754858Y-137978470D01*
X134708658Y-137961940D01*
X134664302Y-137940961D01*
X134622215Y-137915735D01*
X134582803Y-137886505D01*
X134546447Y-137853553D01*
X134513495Y-137817197D01*
X134484265Y-137777785D01*
X134459039Y-137735698D01*
X134438060Y-137691342D01*
X134421530Y-137645142D01*
X134409607Y-137597545D01*
X134402408Y-137549009D01*
X134400000Y-137500000D01*
X134400000Y-136500000D01*
X134402408Y-136450991D01*
X134409607Y-136402455D01*
X134421530Y-136354858D01*
X134438060Y-136308658D01*
X134459039Y-136264302D01*
X134484265Y-136222215D01*
X134513495Y-136182803D01*
X134546447Y-136146447D01*
X134582803Y-136113495D01*
X134622215Y-136084265D01*
X134664302Y-136059039D01*
X134708658Y-136038060D01*
X134754858Y-136021530D01*
X134802455Y-136009607D01*
X134850991Y-136002408D01*
X134900000Y-136000000D01*
X135900000Y-136000000D01*
X135949009Y-136002408D01*
X135949009Y-136002408D01*
G37*
D11*
X135400000Y-137000000D03*
D10*
G36*
X143149009Y-136002408D02*
G01*
X143197545Y-136009607D01*
X143245142Y-136021530D01*
X143291342Y-136038060D01*
X143335698Y-136059039D01*
X143377785Y-136084265D01*
X143417197Y-136113495D01*
X143453553Y-136146447D01*
X143486505Y-136182803D01*
X143515735Y-136222215D01*
X143540961Y-136264302D01*
X143561940Y-136308658D01*
X143578470Y-136354858D01*
X143590393Y-136402455D01*
X143597592Y-136450991D01*
X143600000Y-136500000D01*
X143600000Y-137500000D01*
X143597592Y-137549009D01*
X143590393Y-137597545D01*
X143578470Y-137645142D01*
X143561940Y-137691342D01*
X143540961Y-137735698D01*
X143515735Y-137777785D01*
X143486505Y-137817197D01*
X143453553Y-137853553D01*
X143417197Y-137886505D01*
X143377785Y-137915735D01*
X143335698Y-137940961D01*
X143291342Y-137961940D01*
X143245142Y-137978470D01*
X143197545Y-137990393D01*
X143149009Y-137997592D01*
X143100000Y-138000000D01*
X142100000Y-138000000D01*
X142050991Y-137997592D01*
X142002455Y-137990393D01*
X141954858Y-137978470D01*
X141908658Y-137961940D01*
X141864302Y-137940961D01*
X141822215Y-137915735D01*
X141782803Y-137886505D01*
X141746447Y-137853553D01*
X141713495Y-137817197D01*
X141684265Y-137777785D01*
X141659039Y-137735698D01*
X141638060Y-137691342D01*
X141621530Y-137645142D01*
X141609607Y-137597545D01*
X141602408Y-137549009D01*
X141600000Y-137500000D01*
X141600000Y-136500000D01*
X141602408Y-136450991D01*
X141609607Y-136402455D01*
X141621530Y-136354858D01*
X141638060Y-136308658D01*
X141659039Y-136264302D01*
X141684265Y-136222215D01*
X141713495Y-136182803D01*
X141746447Y-136146447D01*
X141782803Y-136113495D01*
X141822215Y-136084265D01*
X141864302Y-136059039D01*
X141908658Y-136038060D01*
X141954858Y-136021530D01*
X142002455Y-136009607D01*
X142050991Y-136002408D01*
X142100000Y-136000000D01*
X143100000Y-136000000D01*
X143149009Y-136002408D01*
X143149009Y-136002408D01*
G37*
D11*
X142600000Y-137000000D03*
D12*
X136600000Y-134000000D03*
X141400000Y-134000000D03*
D13*
X134600000Y-98250000D03*
X134600000Y-98750000D03*
X134600000Y-99250000D03*
X134600000Y-99750000D03*
X133400000Y-98250000D03*
X133400000Y-98750000D03*
X133400000Y-99250000D03*
X133400000Y-99750000D03*
D14*
X134000000Y-98150000D03*
X134000000Y-99850000D03*
D13*
X134600000Y-118750000D03*
X134600000Y-119250000D03*
X134600000Y-119750000D03*
X134600000Y-120250000D03*
X133400000Y-118750000D03*
X133400000Y-119250000D03*
X133400000Y-119750000D03*
X133400000Y-120250000D03*
D14*
X134000000Y-118650000D03*
X134000000Y-120350000D03*
D15*
X130000000Y-134000000D03*
D16*
X128000000Y-134000000D03*
X126000000Y-134000000D03*
X124000000Y-134000000D03*
X122000000Y-134000000D03*
X120000000Y-134000000D03*
X118000000Y-134000000D03*
X116000000Y-134000000D03*
X116000000Y-132000000D03*
X118000000Y-132000000D03*
X120000000Y-132000000D03*
X122000000Y-132000000D03*
X124000000Y-132000000D03*
X126000000Y-132000000D03*
X128000000Y-132000000D03*
X130000000Y-132000000D03*
D17*
X120920000Y-93980000D03*
X118920000Y-93980000D03*
X116920000Y-93980000D03*
X114920000Y-93980000D03*
D18*
X114420000Y-96730000D03*
X121420000Y-96730000D03*
X121420000Y-91230000D03*
X114420000Y-91230000D03*
D17*
X120920000Y-104140000D03*
X118920000Y-104140000D03*
X116920000Y-104140000D03*
X114920000Y-104140000D03*
D18*
X114420000Y-106890000D03*
X121420000Y-106890000D03*
X121420000Y-101390000D03*
X114420000Y-101390000D03*
D17*
X120920000Y-114300000D03*
X118920000Y-114300000D03*
X116920000Y-114300000D03*
X114920000Y-114300000D03*
D18*
X114420000Y-117050000D03*
X121420000Y-117050000D03*
X121420000Y-111550000D03*
X114420000Y-111550000D03*
D17*
X121000000Y-124460000D03*
X119000000Y-124460000D03*
X117000000Y-124460000D03*
X115000000Y-124460000D03*
D18*
X114500000Y-127210000D03*
X121500000Y-127210000D03*
X121500000Y-121710000D03*
X114500000Y-121710000D03*
D17*
X138160000Y-93980000D03*
X140160000Y-93980000D03*
X142160000Y-93980000D03*
X144160000Y-93980000D03*
D18*
X144660000Y-91230000D03*
X137660000Y-91230000D03*
X137660000Y-96730000D03*
X144660000Y-96730000D03*
D17*
X138160000Y-104140000D03*
X140160000Y-104140000D03*
X142160000Y-104140000D03*
X144160000Y-104140000D03*
D18*
X144660000Y-101390000D03*
X137660000Y-101390000D03*
X137660000Y-106890000D03*
X144660000Y-106890000D03*
D17*
X138160000Y-114300000D03*
X140160000Y-114300000D03*
X142160000Y-114300000D03*
X144160000Y-114300000D03*
D18*
X144660000Y-111550000D03*
X137660000Y-111550000D03*
X137660000Y-117050000D03*
X144660000Y-117050000D03*
D17*
X138160000Y-124460000D03*
X140160000Y-124460000D03*
X142160000Y-124460000D03*
X144160000Y-124460000D03*
D18*
X144660000Y-121710000D03*
X137660000Y-121710000D03*
X137660000Y-127210000D03*
X144660000Y-127210000D03*
D10*
G36*
X134474505Y-115426204D02*
G01*
X134498773Y-115429804D01*
X134522572Y-115435765D01*
X134545671Y-115444030D01*
X134567850Y-115454520D01*
X134588893Y-115467132D01*
X134608599Y-115481747D01*
X134626777Y-115498223D01*
X134643253Y-115516401D01*
X134657868Y-115536107D01*
X134670480Y-115557150D01*
X134680970Y-115579329D01*
X134689235Y-115602428D01*
X134695196Y-115626227D01*
X134698796Y-115650495D01*
X134700000Y-115674999D01*
X134700000Y-116325001D01*
X134698796Y-116349505D01*
X134695196Y-116373773D01*
X134689235Y-116397572D01*
X134680970Y-116420671D01*
X134670480Y-116442850D01*
X134657868Y-116463893D01*
X134643253Y-116483599D01*
X134626777Y-116501777D01*
X134608599Y-116518253D01*
X134588893Y-116532868D01*
X134567850Y-116545480D01*
X134545671Y-116555970D01*
X134522572Y-116564235D01*
X134498773Y-116570196D01*
X134474505Y-116573796D01*
X134450001Y-116575000D01*
X133549999Y-116575000D01*
X133525495Y-116573796D01*
X133501227Y-116570196D01*
X133477428Y-116564235D01*
X133454329Y-116555970D01*
X133432150Y-116545480D01*
X133411107Y-116532868D01*
X133391401Y-116518253D01*
X133373223Y-116501777D01*
X133356747Y-116483599D01*
X133342132Y-116463893D01*
X133329520Y-116442850D01*
X133319030Y-116420671D01*
X133310765Y-116397572D01*
X133304804Y-116373773D01*
X133301204Y-116349505D01*
X133300000Y-116325001D01*
X133300000Y-115674999D01*
X133301204Y-115650495D01*
X133304804Y-115626227D01*
X133310765Y-115602428D01*
X133319030Y-115579329D01*
X133329520Y-115557150D01*
X133342132Y-115536107D01*
X133356747Y-115516401D01*
X133373223Y-115498223D01*
X133391401Y-115481747D01*
X133411107Y-115467132D01*
X133432150Y-115454520D01*
X133454329Y-115444030D01*
X133477428Y-115435765D01*
X133501227Y-115429804D01*
X133525495Y-115426204D01*
X133549999Y-115425000D01*
X134450001Y-115425000D01*
X134474505Y-115426204D01*
X134474505Y-115426204D01*
G37*
D19*
X134000000Y-116000000D03*
D10*
G36*
X134474505Y-113376204D02*
G01*
X134498773Y-113379804D01*
X134522572Y-113385765D01*
X134545671Y-113394030D01*
X134567850Y-113404520D01*
X134588893Y-113417132D01*
X134608599Y-113431747D01*
X134626777Y-113448223D01*
X134643253Y-113466401D01*
X134657868Y-113486107D01*
X134670480Y-113507150D01*
X134680970Y-113529329D01*
X134689235Y-113552428D01*
X134695196Y-113576227D01*
X134698796Y-113600495D01*
X134700000Y-113624999D01*
X134700000Y-114275001D01*
X134698796Y-114299505D01*
X134695196Y-114323773D01*
X134689235Y-114347572D01*
X134680970Y-114370671D01*
X134670480Y-114392850D01*
X134657868Y-114413893D01*
X134643253Y-114433599D01*
X134626777Y-114451777D01*
X134608599Y-114468253D01*
X134588893Y-114482868D01*
X134567850Y-114495480D01*
X134545671Y-114505970D01*
X134522572Y-114514235D01*
X134498773Y-114520196D01*
X134474505Y-114523796D01*
X134450001Y-114525000D01*
X133549999Y-114525000D01*
X133525495Y-114523796D01*
X133501227Y-114520196D01*
X133477428Y-114514235D01*
X133454329Y-114505970D01*
X133432150Y-114495480D01*
X133411107Y-114482868D01*
X133391401Y-114468253D01*
X133373223Y-114451777D01*
X133356747Y-114433599D01*
X133342132Y-114413893D01*
X133329520Y-114392850D01*
X133319030Y-114370671D01*
X133310765Y-114347572D01*
X133304804Y-114323773D01*
X133301204Y-114299505D01*
X133300000Y-114275001D01*
X133300000Y-113624999D01*
X133301204Y-113600495D01*
X133304804Y-113576227D01*
X133310765Y-113552428D01*
X133319030Y-113529329D01*
X133329520Y-113507150D01*
X133342132Y-113486107D01*
X133356747Y-113466401D01*
X133373223Y-113448223D01*
X133391401Y-113431747D01*
X133411107Y-113417132D01*
X133432150Y-113404520D01*
X133454329Y-113394030D01*
X133477428Y-113385765D01*
X133501227Y-113379804D01*
X133525495Y-113376204D01*
X133549999Y-113375000D01*
X134450001Y-113375000D01*
X134474505Y-113376204D01*
X134474505Y-113376204D01*
G37*
D19*
X134000000Y-113950000D03*
D10*
G36*
X134474505Y-94926204D02*
G01*
X134498773Y-94929804D01*
X134522572Y-94935765D01*
X134545671Y-94944030D01*
X134567850Y-94954520D01*
X134588893Y-94967132D01*
X134608599Y-94981747D01*
X134626777Y-94998223D01*
X134643253Y-95016401D01*
X134657868Y-95036107D01*
X134670480Y-95057150D01*
X134680970Y-95079329D01*
X134689235Y-95102428D01*
X134695196Y-95126227D01*
X134698796Y-95150495D01*
X134700000Y-95174999D01*
X134700000Y-95825001D01*
X134698796Y-95849505D01*
X134695196Y-95873773D01*
X134689235Y-95897572D01*
X134680970Y-95920671D01*
X134670480Y-95942850D01*
X134657868Y-95963893D01*
X134643253Y-95983599D01*
X134626777Y-96001777D01*
X134608599Y-96018253D01*
X134588893Y-96032868D01*
X134567850Y-96045480D01*
X134545671Y-96055970D01*
X134522572Y-96064235D01*
X134498773Y-96070196D01*
X134474505Y-96073796D01*
X134450001Y-96075000D01*
X133549999Y-96075000D01*
X133525495Y-96073796D01*
X133501227Y-96070196D01*
X133477428Y-96064235D01*
X133454329Y-96055970D01*
X133432150Y-96045480D01*
X133411107Y-96032868D01*
X133391401Y-96018253D01*
X133373223Y-96001777D01*
X133356747Y-95983599D01*
X133342132Y-95963893D01*
X133329520Y-95942850D01*
X133319030Y-95920671D01*
X133310765Y-95897572D01*
X133304804Y-95873773D01*
X133301204Y-95849505D01*
X133300000Y-95825001D01*
X133300000Y-95174999D01*
X133301204Y-95150495D01*
X133304804Y-95126227D01*
X133310765Y-95102428D01*
X133319030Y-95079329D01*
X133329520Y-95057150D01*
X133342132Y-95036107D01*
X133356747Y-95016401D01*
X133373223Y-94998223D01*
X133391401Y-94981747D01*
X133411107Y-94967132D01*
X133432150Y-94954520D01*
X133454329Y-94944030D01*
X133477428Y-94935765D01*
X133501227Y-94929804D01*
X133525495Y-94926204D01*
X133549999Y-94925000D01*
X134450001Y-94925000D01*
X134474505Y-94926204D01*
X134474505Y-94926204D01*
G37*
D19*
X134000000Y-95500000D03*
D10*
G36*
X134474505Y-92876204D02*
G01*
X134498773Y-92879804D01*
X134522572Y-92885765D01*
X134545671Y-92894030D01*
X134567850Y-92904520D01*
X134588893Y-92917132D01*
X134608599Y-92931747D01*
X134626777Y-92948223D01*
X134643253Y-92966401D01*
X134657868Y-92986107D01*
X134670480Y-93007150D01*
X134680970Y-93029329D01*
X134689235Y-93052428D01*
X134695196Y-93076227D01*
X134698796Y-93100495D01*
X134700000Y-93124999D01*
X134700000Y-93775001D01*
X134698796Y-93799505D01*
X134695196Y-93823773D01*
X134689235Y-93847572D01*
X134680970Y-93870671D01*
X134670480Y-93892850D01*
X134657868Y-93913893D01*
X134643253Y-93933599D01*
X134626777Y-93951777D01*
X134608599Y-93968253D01*
X134588893Y-93982868D01*
X134567850Y-93995480D01*
X134545671Y-94005970D01*
X134522572Y-94014235D01*
X134498773Y-94020196D01*
X134474505Y-94023796D01*
X134450001Y-94025000D01*
X133549999Y-94025000D01*
X133525495Y-94023796D01*
X133501227Y-94020196D01*
X133477428Y-94014235D01*
X133454329Y-94005970D01*
X133432150Y-93995480D01*
X133411107Y-93982868D01*
X133391401Y-93968253D01*
X133373223Y-93951777D01*
X133356747Y-93933599D01*
X133342132Y-93913893D01*
X133329520Y-93892850D01*
X133319030Y-93870671D01*
X133310765Y-93847572D01*
X133304804Y-93823773D01*
X133301204Y-93799505D01*
X133300000Y-93775001D01*
X133300000Y-93124999D01*
X133301204Y-93100495D01*
X133304804Y-93076227D01*
X133310765Y-93052428D01*
X133319030Y-93029329D01*
X133329520Y-93007150D01*
X133342132Y-92986107D01*
X133356747Y-92966401D01*
X133373223Y-92948223D01*
X133391401Y-92931747D01*
X133411107Y-92917132D01*
X133432150Y-92904520D01*
X133454329Y-92894030D01*
X133477428Y-92885765D01*
X133501227Y-92879804D01*
X133525495Y-92876204D01*
X133549999Y-92875000D01*
X134450001Y-92875000D01*
X134474505Y-92876204D01*
X134474505Y-92876204D01*
G37*
D19*
X134000000Y-93450000D03*
D10*
G36*
X132474505Y-92926204D02*
G01*
X132498773Y-92929804D01*
X132522572Y-92935765D01*
X132545671Y-92944030D01*
X132567850Y-92954520D01*
X132588893Y-92967132D01*
X132608599Y-92981747D01*
X132626777Y-92998223D01*
X132643253Y-93016401D01*
X132657868Y-93036107D01*
X132670480Y-93057150D01*
X132680970Y-93079329D01*
X132689235Y-93102428D01*
X132695196Y-93126227D01*
X132698796Y-93150495D01*
X132700000Y-93174999D01*
X132700000Y-93825001D01*
X132698796Y-93849505D01*
X132695196Y-93873773D01*
X132689235Y-93897572D01*
X132680970Y-93920671D01*
X132670480Y-93942850D01*
X132657868Y-93963893D01*
X132643253Y-93983599D01*
X132626777Y-94001777D01*
X132608599Y-94018253D01*
X132588893Y-94032868D01*
X132567850Y-94045480D01*
X132545671Y-94055970D01*
X132522572Y-94064235D01*
X132498773Y-94070196D01*
X132474505Y-94073796D01*
X132450001Y-94075000D01*
X131549999Y-94075000D01*
X131525495Y-94073796D01*
X131501227Y-94070196D01*
X131477428Y-94064235D01*
X131454329Y-94055970D01*
X131432150Y-94045480D01*
X131411107Y-94032868D01*
X131391401Y-94018253D01*
X131373223Y-94001777D01*
X131356747Y-93983599D01*
X131342132Y-93963893D01*
X131329520Y-93942850D01*
X131319030Y-93920671D01*
X131310765Y-93897572D01*
X131304804Y-93873773D01*
X131301204Y-93849505D01*
X131300000Y-93825001D01*
X131300000Y-93174999D01*
X131301204Y-93150495D01*
X131304804Y-93126227D01*
X131310765Y-93102428D01*
X131319030Y-93079329D01*
X131329520Y-93057150D01*
X131342132Y-93036107D01*
X131356747Y-93016401D01*
X131373223Y-92998223D01*
X131391401Y-92981747D01*
X131411107Y-92967132D01*
X131432150Y-92954520D01*
X131454329Y-92944030D01*
X131477428Y-92935765D01*
X131501227Y-92929804D01*
X131525495Y-92926204D01*
X131549999Y-92925000D01*
X132450001Y-92925000D01*
X132474505Y-92926204D01*
X132474505Y-92926204D01*
G37*
D19*
X132000000Y-93500000D03*
D10*
G36*
X132474505Y-94976204D02*
G01*
X132498773Y-94979804D01*
X132522572Y-94985765D01*
X132545671Y-94994030D01*
X132567850Y-95004520D01*
X132588893Y-95017132D01*
X132608599Y-95031747D01*
X132626777Y-95048223D01*
X132643253Y-95066401D01*
X132657868Y-95086107D01*
X132670480Y-95107150D01*
X132680970Y-95129329D01*
X132689235Y-95152428D01*
X132695196Y-95176227D01*
X132698796Y-95200495D01*
X132700000Y-95224999D01*
X132700000Y-95875001D01*
X132698796Y-95899505D01*
X132695196Y-95923773D01*
X132689235Y-95947572D01*
X132680970Y-95970671D01*
X132670480Y-95992850D01*
X132657868Y-96013893D01*
X132643253Y-96033599D01*
X132626777Y-96051777D01*
X132608599Y-96068253D01*
X132588893Y-96082868D01*
X132567850Y-96095480D01*
X132545671Y-96105970D01*
X132522572Y-96114235D01*
X132498773Y-96120196D01*
X132474505Y-96123796D01*
X132450001Y-96125000D01*
X131549999Y-96125000D01*
X131525495Y-96123796D01*
X131501227Y-96120196D01*
X131477428Y-96114235D01*
X131454329Y-96105970D01*
X131432150Y-96095480D01*
X131411107Y-96082868D01*
X131391401Y-96068253D01*
X131373223Y-96051777D01*
X131356747Y-96033599D01*
X131342132Y-96013893D01*
X131329520Y-95992850D01*
X131319030Y-95970671D01*
X131310765Y-95947572D01*
X131304804Y-95923773D01*
X131301204Y-95899505D01*
X131300000Y-95875001D01*
X131300000Y-95224999D01*
X131301204Y-95200495D01*
X131304804Y-95176227D01*
X131310765Y-95152428D01*
X131319030Y-95129329D01*
X131329520Y-95107150D01*
X131342132Y-95086107D01*
X131356747Y-95066401D01*
X131373223Y-95048223D01*
X131391401Y-95031747D01*
X131411107Y-95017132D01*
X131432150Y-95004520D01*
X131454329Y-94994030D01*
X131477428Y-94985765D01*
X131501227Y-94979804D01*
X131525495Y-94976204D01*
X131549999Y-94975000D01*
X132450001Y-94975000D01*
X132474505Y-94976204D01*
X132474505Y-94976204D01*
G37*
D19*
X132000000Y-95550000D03*
D10*
G36*
X132474505Y-115476204D02*
G01*
X132498773Y-115479804D01*
X132522572Y-115485765D01*
X132545671Y-115494030D01*
X132567850Y-115504520D01*
X132588893Y-115517132D01*
X132608599Y-115531747D01*
X132626777Y-115548223D01*
X132643253Y-115566401D01*
X132657868Y-115586107D01*
X132670480Y-115607150D01*
X132680970Y-115629329D01*
X132689235Y-115652428D01*
X132695196Y-115676227D01*
X132698796Y-115700495D01*
X132700000Y-115724999D01*
X132700000Y-116375001D01*
X132698796Y-116399505D01*
X132695196Y-116423773D01*
X132689235Y-116447572D01*
X132680970Y-116470671D01*
X132670480Y-116492850D01*
X132657868Y-116513893D01*
X132643253Y-116533599D01*
X132626777Y-116551777D01*
X132608599Y-116568253D01*
X132588893Y-116582868D01*
X132567850Y-116595480D01*
X132545671Y-116605970D01*
X132522572Y-116614235D01*
X132498773Y-116620196D01*
X132474505Y-116623796D01*
X132450001Y-116625000D01*
X131549999Y-116625000D01*
X131525495Y-116623796D01*
X131501227Y-116620196D01*
X131477428Y-116614235D01*
X131454329Y-116605970D01*
X131432150Y-116595480D01*
X131411107Y-116582868D01*
X131391401Y-116568253D01*
X131373223Y-116551777D01*
X131356747Y-116533599D01*
X131342132Y-116513893D01*
X131329520Y-116492850D01*
X131319030Y-116470671D01*
X131310765Y-116447572D01*
X131304804Y-116423773D01*
X131301204Y-116399505D01*
X131300000Y-116375001D01*
X131300000Y-115724999D01*
X131301204Y-115700495D01*
X131304804Y-115676227D01*
X131310765Y-115652428D01*
X131319030Y-115629329D01*
X131329520Y-115607150D01*
X131342132Y-115586107D01*
X131356747Y-115566401D01*
X131373223Y-115548223D01*
X131391401Y-115531747D01*
X131411107Y-115517132D01*
X131432150Y-115504520D01*
X131454329Y-115494030D01*
X131477428Y-115485765D01*
X131501227Y-115479804D01*
X131525495Y-115476204D01*
X131549999Y-115475000D01*
X132450001Y-115475000D01*
X132474505Y-115476204D01*
X132474505Y-115476204D01*
G37*
D19*
X132000000Y-116050000D03*
D10*
G36*
X132474505Y-113426204D02*
G01*
X132498773Y-113429804D01*
X132522572Y-113435765D01*
X132545671Y-113444030D01*
X132567850Y-113454520D01*
X132588893Y-113467132D01*
X132608599Y-113481747D01*
X132626777Y-113498223D01*
X132643253Y-113516401D01*
X132657868Y-113536107D01*
X132670480Y-113557150D01*
X132680970Y-113579329D01*
X132689235Y-113602428D01*
X132695196Y-113626227D01*
X132698796Y-113650495D01*
X132700000Y-113674999D01*
X132700000Y-114325001D01*
X132698796Y-114349505D01*
X132695196Y-114373773D01*
X132689235Y-114397572D01*
X132680970Y-114420671D01*
X132670480Y-114442850D01*
X132657868Y-114463893D01*
X132643253Y-114483599D01*
X132626777Y-114501777D01*
X132608599Y-114518253D01*
X132588893Y-114532868D01*
X132567850Y-114545480D01*
X132545671Y-114555970D01*
X132522572Y-114564235D01*
X132498773Y-114570196D01*
X132474505Y-114573796D01*
X132450001Y-114575000D01*
X131549999Y-114575000D01*
X131525495Y-114573796D01*
X131501227Y-114570196D01*
X131477428Y-114564235D01*
X131454329Y-114555970D01*
X131432150Y-114545480D01*
X131411107Y-114532868D01*
X131391401Y-114518253D01*
X131373223Y-114501777D01*
X131356747Y-114483599D01*
X131342132Y-114463893D01*
X131329520Y-114442850D01*
X131319030Y-114420671D01*
X131310765Y-114397572D01*
X131304804Y-114373773D01*
X131301204Y-114349505D01*
X131300000Y-114325001D01*
X131300000Y-113674999D01*
X131301204Y-113650495D01*
X131304804Y-113626227D01*
X131310765Y-113602428D01*
X131319030Y-113579329D01*
X131329520Y-113557150D01*
X131342132Y-113536107D01*
X131356747Y-113516401D01*
X131373223Y-113498223D01*
X131391401Y-113481747D01*
X131411107Y-113467132D01*
X131432150Y-113454520D01*
X131454329Y-113444030D01*
X131477428Y-113435765D01*
X131501227Y-113429804D01*
X131525495Y-113426204D01*
X131549999Y-113425000D01*
X132450001Y-113425000D01*
X132474505Y-113426204D01*
X132474505Y-113426204D01*
G37*
D19*
X132000000Y-114000000D03*
D20*
X125000000Y-101000000D03*
X124874990Y-121500000D03*
X134000000Y-101000000D03*
X134000000Y-121500000D03*
X134000000Y-117500000D03*
X134000000Y-97000000D03*
X125000000Y-117500000D03*
X130250000Y-108000000D03*
X125000000Y-97000000D03*
X134250000Y-105000000D03*
X134250000Y-109500000D03*
X130350000Y-119250000D03*
X129875010Y-98500009D03*
X128300000Y-119199999D03*
X130336501Y-120336501D03*
X128300000Y-120399994D03*
X128500000Y-99700000D03*
X131700000Y-120600000D03*
X131700000Y-118300000D03*
X126600000Y-97600000D03*
X126300000Y-121900000D03*
X126300000Y-117900000D03*
X125000000Y-122800000D03*
X126100000Y-112300000D03*
X127200000Y-100800000D03*
X127000000Y-92100000D03*
X133000000Y-121200000D03*
X131999998Y-112700000D03*
X132100000Y-100600000D03*
X132100000Y-92099996D03*
D21*
X134000000Y-101000000D02*
X134000000Y-100500000D01*
X134000000Y-99850000D02*
X134000000Y-100500000D01*
X134000000Y-100500000D02*
X134000000Y-100750000D01*
X134000000Y-120350000D02*
X134000000Y-121500000D01*
D22*
X137630000Y-93450000D02*
X138160000Y-93980000D01*
X134000000Y-93450000D02*
X137630000Y-93450000D01*
X137810000Y-113950000D02*
X138160000Y-114300000D01*
X134000000Y-113950000D02*
X137810000Y-113950000D01*
D21*
X134000000Y-118650000D02*
X134000000Y-117750000D01*
X134000000Y-116275000D02*
X134000000Y-117750000D01*
X134000000Y-98150000D02*
X134000000Y-97250000D01*
X134000000Y-97250000D02*
X134000000Y-97000000D01*
X134000000Y-97000000D02*
X134000000Y-95500000D01*
D22*
X133950000Y-116050000D02*
X134000000Y-116000000D01*
X132000000Y-116050000D02*
X133950000Y-116050000D01*
X133950000Y-95550000D02*
X134000000Y-95500000D01*
X132000000Y-95550000D02*
X133950000Y-95550000D01*
D23*
X133400000Y-119250000D02*
X130350000Y-119250000D01*
X130300000Y-119300000D02*
X130350000Y-119250000D01*
X133400000Y-98750000D02*
X130125001Y-98750000D01*
X130125001Y-98750000D02*
X129875010Y-98500009D01*
X133400000Y-119750000D02*
X130923002Y-119750000D01*
X130923002Y-119750000D02*
X130336501Y-120336501D01*
X130336501Y-120336501D02*
X130273002Y-120400000D01*
X128950000Y-99250000D02*
X128899999Y-99300001D01*
X128899999Y-99300001D02*
X128500000Y-99700000D01*
X133400000Y-99250000D02*
X128950000Y-99250000D01*
D24*
X133225000Y-97800000D02*
X133400000Y-97975000D01*
X129000996Y-97800000D02*
X133225000Y-97800000D01*
X133400000Y-97975000D02*
X133400000Y-98250000D01*
X127800000Y-99000996D02*
X129000996Y-97800000D01*
X126000000Y-134000000D02*
X125000000Y-133000000D01*
X125000000Y-131500000D02*
X129100000Y-127400000D01*
X129100000Y-127400000D02*
X129100000Y-101600000D01*
X127800000Y-100300000D02*
X127800000Y-99000996D01*
X125000000Y-133000000D02*
X125000000Y-131500000D01*
X129100000Y-101600000D02*
X127800000Y-100300000D01*
X132960000Y-118750000D02*
X132510000Y-118300000D01*
X133400000Y-118750000D02*
X132960000Y-118750000D01*
X132510000Y-118300000D02*
X131700000Y-118300000D01*
X131700000Y-126800000D02*
X131700000Y-123800000D01*
X131700000Y-123800000D02*
X131700000Y-120600000D01*
X127000000Y-131500000D02*
X131700000Y-126800000D01*
X128000000Y-134000000D02*
X127000000Y-133000000D01*
X127000000Y-133000000D02*
X127000000Y-131500000D01*
X126000000Y-98200000D02*
X126600000Y-97600000D01*
X126000000Y-101500000D02*
X126000000Y-98200000D01*
X123000000Y-131300000D02*
X126975001Y-127324999D01*
X126975001Y-127324999D02*
X126975001Y-102475001D01*
X123000000Y-133000000D02*
X123000000Y-131300000D01*
X124000000Y-134000000D02*
X123000000Y-133000000D01*
X126975001Y-102475001D02*
X126000000Y-101500000D01*
X126300000Y-121900000D02*
X126300000Y-117900000D01*
X124000000Y-132000000D02*
X124000000Y-131000000D01*
X124000000Y-131000000D02*
X127500000Y-127500000D01*
X127500000Y-127500000D02*
X127500000Y-104000000D01*
X127500000Y-104000000D02*
X127500000Y-101100000D01*
X127500000Y-101100000D02*
X127200000Y-100800000D01*
X127200000Y-100800000D02*
X127200000Y-100500000D01*
X127200000Y-100500000D02*
X127400000Y-100300000D01*
X127400000Y-100300000D02*
X127400000Y-92500000D01*
X127400000Y-92500000D02*
X127000000Y-92100000D01*
X132750000Y-120250000D02*
X133400000Y-120250000D01*
X132400000Y-120600000D02*
X132750000Y-120250000D01*
X132400000Y-126716117D02*
X132400000Y-120600000D01*
X128000000Y-132000000D02*
X128000000Y-131116117D01*
X128000000Y-131116117D02*
X132400000Y-126716117D01*
D23*
X133400000Y-120625000D02*
X133000000Y-121025000D01*
X133400000Y-120250000D02*
X133400000Y-120625000D01*
X133000000Y-121025000D02*
X133000000Y-121200000D01*
X131999998Y-113999998D02*
X132000000Y-114000000D01*
X131999998Y-112700000D02*
X131999998Y-113999998D01*
X133400000Y-100125000D02*
X132925000Y-100600000D01*
X133400000Y-99750000D02*
X133400000Y-100125000D01*
X132925000Y-100600000D02*
X132100000Y-100600000D01*
X132100000Y-93400000D02*
X132000000Y-93500000D01*
X132100000Y-92099996D02*
X132100000Y-93400000D01*
D24*
X130250000Y-99750000D02*
X133400000Y-99750000D01*
X129550011Y-100449989D02*
X130250000Y-99750000D01*
X129550011Y-127549989D02*
X129550011Y-100449989D01*
X126000000Y-132000000D02*
X126000000Y-131100000D01*
X126000000Y-131100000D02*
X129550011Y-127549989D01*
D23*
X141000000Y-95000000D02*
X140160000Y-94160000D01*
X140160000Y-94160000D02*
X140160000Y-93980000D01*
X141000000Y-98000000D02*
X141000000Y-95000000D01*
X134600000Y-98250000D02*
X134750000Y-98250000D01*
X134750000Y-98250000D02*
X134799990Y-98299990D01*
X134799990Y-98299990D02*
X135436400Y-98299990D01*
X135636410Y-98500000D02*
X140500000Y-98500000D01*
X135436400Y-98299990D02*
X135636410Y-98500000D01*
X140500000Y-98500000D02*
X141000000Y-98000000D01*
X142160000Y-94340000D02*
X142160000Y-93980000D01*
X135250000Y-98750000D02*
X135500000Y-99000000D01*
X134600000Y-98750000D02*
X135250000Y-98750000D01*
X135500000Y-99000000D02*
X141000000Y-99000000D01*
X141000000Y-99000000D02*
X141500000Y-98500000D01*
X141500000Y-98500000D02*
X141500000Y-95000000D01*
X141500000Y-95000000D02*
X142160000Y-94340000D01*
X141500000Y-105250000D02*
X142160000Y-104590000D01*
X135000000Y-100150000D02*
X135000000Y-108000000D01*
X142160000Y-104590000D02*
X142160000Y-104140000D01*
X134600000Y-99750000D02*
X135000000Y-100150000D01*
X135000000Y-108000000D02*
X136500000Y-109500000D01*
X140500000Y-109500000D02*
X141500000Y-108500000D01*
X136500000Y-109500000D02*
X140500000Y-109500000D01*
X141500000Y-108500000D02*
X141500000Y-105250000D01*
X140160000Y-104410000D02*
X140160000Y-104140000D01*
X141000000Y-108250000D02*
X141000000Y-105250000D01*
X141000000Y-105250000D02*
X140160000Y-104410000D01*
X134600000Y-99250000D02*
X135100002Y-99250000D01*
X135500000Y-99649998D02*
X135500000Y-107863590D01*
X135100002Y-99250000D02*
X135500000Y-99649998D01*
X135500000Y-107863590D02*
X136636410Y-109000000D01*
X136636410Y-109000000D02*
X140250000Y-109000000D01*
X140250000Y-109000000D02*
X141000000Y-108250000D01*
X142160000Y-114590000D02*
X142160000Y-114300000D01*
X135613590Y-119250000D02*
X135813600Y-119450010D01*
X134600000Y-119250000D02*
X135613590Y-119250000D01*
X135813600Y-119450010D02*
X140549990Y-119450010D01*
X140549990Y-119450010D02*
X141500000Y-118500000D01*
X141500000Y-118500000D02*
X141500000Y-115250000D01*
X141500000Y-115250000D02*
X142160000Y-114590000D01*
X140160000Y-114660000D02*
X140160000Y-114300000D01*
X135750000Y-118750000D02*
X136000000Y-119000000D01*
X136000000Y-119000000D02*
X140250000Y-119000000D01*
X134600000Y-118750000D02*
X135750000Y-118750000D01*
X140250000Y-119000000D02*
X140750000Y-118500000D01*
X140750000Y-118500000D02*
X140750000Y-115250000D01*
X140750000Y-115250000D02*
X140160000Y-114660000D01*
X141000000Y-125500000D02*
X140160000Y-124660000D01*
X135140000Y-119750000D02*
X135500000Y-120110000D01*
X141000000Y-129000000D02*
X141000000Y-125500000D01*
X134600000Y-119750000D02*
X135140000Y-119750000D01*
X140160000Y-124660000D02*
X140160000Y-124460000D01*
X135500000Y-120110000D02*
X135500000Y-128500000D01*
X135500000Y-128500000D02*
X136500000Y-129500000D01*
X136500000Y-129500000D02*
X140500000Y-129500000D01*
X140500000Y-129500000D02*
X141000000Y-129000000D01*
X142160000Y-124840000D02*
X142160000Y-124460000D01*
X141500000Y-125500000D02*
X142160000Y-124840000D01*
X141500000Y-129250000D02*
X141500000Y-125500000D01*
X134750000Y-120250000D02*
X135000000Y-120500000D01*
X134600000Y-120250000D02*
X134750000Y-120250000D01*
X135000000Y-128750000D02*
X136250000Y-130000000D01*
X135000000Y-120500000D02*
X135000000Y-128750000D01*
X136250000Y-130000000D02*
X140750000Y-130000000D01*
X140750000Y-130000000D02*
X141500000Y-129250000D01*
M02*
