M48
; DRILL file {KiCad (5.1.0)-1} date 02/18/20 23:47:03
; FORMAT={-:-/ absolute / metric / decimal}
; #@! TF.CreationDate,2020-02-18T23:47:03-06:00
; #@! TF.GenerationSoftware,Kicad,Pcbnew,(5.1.0)-1
FMAT,2
METRIC
T1C0.400
T2C0.650
T3C0.850
T4C0.950
T5C1.000
T6C1.650
%
G90
G05
T1
X124.875Y-121.5
X125.0Y-97.0
X125.0Y-101.0
X125.0Y-117.5
X125.0Y-122.8
X126.1Y-112.3
X126.3Y-117.9
X126.3Y-121.9
X126.6Y-97.6
X127.0Y-92.1
X127.2Y-100.8
X128.3Y-119.2
X128.3Y-120.4
X128.5Y-99.7
X129.875Y-98.5
X130.25Y-108.0
X130.337Y-120.337
X130.35Y-119.25
X131.7Y-118.3
X131.7Y-120.6
X132.0Y-112.7
X132.1Y-92.1
X132.1Y-100.6
X133.0Y-121.2
X134.0Y-97.0
X134.0Y-101.0
X134.0Y-117.5
X134.0Y-121.5
X134.25Y-105.0
X134.25Y-109.5
T3
X116.0Y-132.0
X116.0Y-134.0
X118.0Y-132.0
X118.0Y-134.0
X120.0Y-132.0
X120.0Y-134.0
X122.0Y-132.0
X122.0Y-134.0
X124.0Y-132.0
X124.0Y-134.0
X126.0Y-132.0
X126.0Y-134.0
X128.0Y-132.0
X128.0Y-134.0
X130.0Y-132.0
X130.0Y-134.0
T4
X138.16Y-124.46
X140.16Y-124.46
X142.16Y-124.46
X144.16Y-124.46
X115.0Y-124.46
X117.0Y-124.46
X119.0Y-124.46
X121.0Y-124.46
X138.16Y-104.14
X140.16Y-104.14
X142.16Y-104.14
X144.16Y-104.14
X138.16Y-114.3
X140.16Y-114.3
X142.16Y-114.3
X144.16Y-114.3
X114.92Y-104.14
X116.92Y-104.14
X118.92Y-104.14
X120.92Y-104.14
X138.16Y-93.98
X140.16Y-93.98
X142.16Y-93.98
X144.16Y-93.98
X114.92Y-114.3
X116.92Y-114.3
X118.92Y-114.3
X120.92Y-114.3
X114.92Y-93.98
X116.92Y-93.98
X118.92Y-93.98
X120.92Y-93.98
T6
X137.66Y-111.55
X137.66Y-117.05
X144.66Y-111.55
X144.66Y-117.05
X114.42Y-101.39
X114.42Y-106.89
X121.42Y-101.39
X121.42Y-106.89
X137.66Y-91.23
X137.66Y-96.73
X144.66Y-91.23
X144.66Y-96.73
X114.42Y-111.55
X114.42Y-117.05
X121.42Y-111.55
X121.42Y-117.05
X114.42Y-91.23
X114.42Y-96.73
X121.42Y-91.23
X121.42Y-96.73
X137.66Y-121.71
X137.66Y-127.21
X144.66Y-121.71
X144.66Y-127.21
X114.5Y-121.71
X114.5Y-127.21
X121.5Y-121.71
X121.5Y-127.21
X137.66Y-101.39
X137.66Y-106.89
X144.66Y-101.39
X144.66Y-106.89
T2
G00X136.6Y-133.9
M15
G01X136.6Y-134.1
M16
G05
G00X141.4Y-133.9
M15
G01X141.4Y-134.1
M16
G05
T5
G00X135.4Y-136.75
M15
G01X135.4Y-137.25
M16
G05
G00X142.6Y-136.75
M15
G01X142.6Y-137.25
M16
G05
T0
M30
