G04 #@! TF.GenerationSoftware,KiCad,Pcbnew,(5.1.0)-1*
G04 #@! TF.CreationDate,2020-02-18T23:46:36-06:00*
G04 #@! TF.ProjectId,USBMuxV1,5553424d-7578-4563-912e-6b696361645f,rev?*
G04 #@! TF.SameCoordinates,Original*
G04 #@! TF.FileFunction,Legend,Top*
G04 #@! TF.FilePolarity,Positive*
%FSLAX46Y46*%
G04 Gerber Fmt 4.6, Leading zero omitted, Abs format (unit mm)*
G04 Created by KiCad (PCBNEW (5.1.0)-1) date 2020-02-18 23:46:36*
%MOMM*%
%LPD*%
G04 APERTURE LIST*
%ADD10C,0.120000*%
%ADD11C,0.127000*%
%ADD12C,0.150000*%
%ADD13C,0.015000*%
G04 APERTURE END LIST*
D10*
X142250000Y-133750000D02*
X144000000Y-133750000D01*
X144000000Y-133750000D02*
X144000000Y-138250000D01*
X144000000Y-138250000D02*
X134000000Y-138250000D01*
X134000000Y-138250000D02*
X134000000Y-133750000D01*
X134000000Y-133750000D02*
X135750000Y-133750000D01*
D11*
X124220709Y-97750000D02*
G75*
G03X124220709Y-97750000I-70709J0D01*
G01*
X124220709Y-118250000D02*
G75*
G03X124220709Y-118250000I-70709J0D01*
G01*
D10*
X125710000Y-94786252D02*
X125710000Y-94263748D01*
X124290000Y-94786252D02*
X124290000Y-94263748D01*
X125710000Y-115286252D02*
X125710000Y-114763748D01*
X124290000Y-115286252D02*
X124290000Y-114763748D01*
X113000000Y-136000000D02*
X113000000Y-130000000D01*
X133000000Y-136000000D02*
X133000000Y-130000000D01*
X113000000Y-129500000D02*
X133000000Y-129500000D01*
X113000000Y-138500000D02*
X113000000Y-136000000D01*
X113000000Y-129500000D02*
X113000000Y-130000000D01*
X133000000Y-129500000D02*
X133000000Y-130000000D01*
X113000000Y-138500000D02*
X115000000Y-138500000D01*
X115000000Y-138500000D02*
X115000000Y-136500000D01*
X115000000Y-136500000D02*
X118000000Y-136500000D01*
X118000000Y-136500000D02*
X118000000Y-138500000D01*
X118000000Y-138500000D02*
X123000000Y-138500000D01*
X123000000Y-138500000D02*
X128000000Y-138500000D01*
X128000000Y-138500000D02*
X128000000Y-136500000D01*
X128000000Y-136500000D02*
X131000000Y-136500000D01*
X131000000Y-136500000D02*
X131000000Y-138500000D01*
X131000000Y-138500000D02*
X133000000Y-138500000D01*
X133000000Y-138500000D02*
X133000000Y-136000000D01*
X132500000Y-135500000D02*
G75*
G03X132500000Y-135500000I-500000J0D01*
G01*
X122920000Y-89480000D02*
X122920000Y-98480000D01*
X112420000Y-89480000D02*
X122920000Y-89480000D01*
X112420000Y-98480000D02*
X112420000Y-89480000D01*
X122920000Y-98480000D02*
X112420000Y-98480000D01*
X122920000Y-99640000D02*
X122920000Y-108640000D01*
X112420000Y-99640000D02*
X122920000Y-99640000D01*
X112420000Y-108640000D02*
X112420000Y-99640000D01*
X122920000Y-108640000D02*
X112420000Y-108640000D01*
X122920000Y-109800000D02*
X122920000Y-118800000D01*
X112420000Y-109800000D02*
X122920000Y-109800000D01*
X112420000Y-118800000D02*
X112420000Y-109800000D01*
X122920000Y-118800000D02*
X112420000Y-118800000D01*
X123000000Y-119960000D02*
X123000000Y-128960000D01*
X112500000Y-119960000D02*
X123000000Y-119960000D01*
X112500000Y-128960000D02*
X112500000Y-119960000D01*
X123000000Y-128960000D02*
X112500000Y-128960000D01*
X136160000Y-98480000D02*
X136160000Y-89480000D01*
X146660000Y-98480000D02*
X136160000Y-98480000D01*
X146660000Y-89480000D02*
X146660000Y-98480000D01*
X136160000Y-89480000D02*
X146660000Y-89480000D01*
X136160000Y-108640000D02*
X136160000Y-99640000D01*
X146660000Y-108640000D02*
X136160000Y-108640000D01*
X146660000Y-99640000D02*
X146660000Y-108640000D01*
X136160000Y-99640000D02*
X146660000Y-99640000D01*
X136160000Y-118800000D02*
X136160000Y-109800000D01*
X146660000Y-118800000D02*
X136160000Y-118800000D01*
X146660000Y-109800000D02*
X146660000Y-118800000D01*
X136160000Y-109800000D02*
X146660000Y-109800000D01*
X136160000Y-128960000D02*
X136160000Y-119960000D01*
X146660000Y-128960000D02*
X136160000Y-128960000D01*
X146660000Y-119960000D02*
X146660000Y-128960000D01*
X136160000Y-119960000D02*
X146660000Y-119960000D01*
X147460000Y-133475000D02*
X147460000Y-130615000D01*
X147460000Y-130615000D02*
X145540000Y-130615000D01*
X145540000Y-130615000D02*
X145540000Y-133475000D01*
X142963748Y-130790000D02*
X143486252Y-130790000D01*
X142963748Y-132210000D02*
X143486252Y-132210000D01*
X127710000Y-94786252D02*
X127710000Y-94263748D01*
X126290000Y-94786252D02*
X126290000Y-94263748D01*
X126290000Y-115286252D02*
X126290000Y-114763748D01*
X127710000Y-115286252D02*
X127710000Y-114763748D01*
X134050000Y-105640000D02*
X132250000Y-105640000D01*
X132250000Y-108860000D02*
X134700000Y-108860000D01*
D12*
X144916666Y-136702380D02*
X144916666Y-137416666D01*
X144869047Y-137559523D01*
X144773809Y-137654761D01*
X144630952Y-137702380D01*
X144535714Y-137702380D01*
X145916666Y-137702380D02*
X145345238Y-137702380D01*
X145630952Y-137702380D02*
X145630952Y-136702380D01*
X145535714Y-136845238D01*
X145440476Y-136940476D01*
X145345238Y-136988095D01*
D13*
X123597552Y-97390428D02*
X123597552Y-97552404D01*
X123607080Y-97571460D01*
X123616608Y-97580988D01*
X123635664Y-97590516D01*
X123673776Y-97590516D01*
X123692832Y-97580988D01*
X123702360Y-97571460D01*
X123711888Y-97552404D01*
X123711888Y-97390428D01*
X123797640Y-97409484D02*
X123807168Y-97399956D01*
X123826224Y-97390428D01*
X123873864Y-97390428D01*
X123892920Y-97399956D01*
X123902448Y-97409484D01*
X123911976Y-97428540D01*
X123911976Y-97447596D01*
X123902448Y-97476180D01*
X123788112Y-97590516D01*
X123911976Y-97590516D01*
X124832545Y-117562622D02*
X124832545Y-117724598D01*
X124842073Y-117743654D01*
X124851601Y-117753182D01*
X124870657Y-117762710D01*
X124908769Y-117762710D01*
X124927825Y-117753182D01*
X124937353Y-117743654D01*
X124946881Y-117724598D01*
X124946881Y-117562622D01*
X125023105Y-117562622D02*
X125146969Y-117562622D01*
X125080273Y-117638846D01*
X125108857Y-117638846D01*
X125127913Y-117648374D01*
X125137441Y-117657902D01*
X125146969Y-117676958D01*
X125146969Y-117724598D01*
X125137441Y-117743654D01*
X125127913Y-117753182D01*
X125108857Y-117762710D01*
X125051689Y-117762710D01*
X125032633Y-117753182D01*
X125023105Y-117743654D01*
D12*
X124833333Y-92357142D02*
X124785714Y-92404761D01*
X124642857Y-92452380D01*
X124547619Y-92452380D01*
X124404761Y-92404761D01*
X124309523Y-92309523D01*
X124261904Y-92214285D01*
X124214285Y-92023809D01*
X124214285Y-91880952D01*
X124261904Y-91690476D01*
X124309523Y-91595238D01*
X124404761Y-91500000D01*
X124547619Y-91452380D01*
X124642857Y-91452380D01*
X124785714Y-91500000D01*
X124833333Y-91547619D01*
X125785714Y-92452380D02*
X125214285Y-92452380D01*
X125500000Y-92452380D02*
X125500000Y-91452380D01*
X125404761Y-91595238D01*
X125309523Y-91690476D01*
X125214285Y-91738095D01*
X124833333Y-112857142D02*
X124785714Y-112904761D01*
X124642857Y-112952380D01*
X124547619Y-112952380D01*
X124404761Y-112904761D01*
X124309523Y-112809523D01*
X124261904Y-112714285D01*
X124214285Y-112523809D01*
X124214285Y-112380952D01*
X124261904Y-112190476D01*
X124309523Y-112095238D01*
X124404761Y-112000000D01*
X124547619Y-111952380D01*
X124642857Y-111952380D01*
X124785714Y-112000000D01*
X124833333Y-112047619D01*
X125214285Y-112047619D02*
X125261904Y-112000000D01*
X125357142Y-111952380D01*
X125595238Y-111952380D01*
X125690476Y-112000000D01*
X125738095Y-112047619D01*
X125785714Y-112142857D01*
X125785714Y-112238095D01*
X125738095Y-112380952D01*
X125166666Y-112952380D01*
X125785714Y-112952380D01*
X111236666Y-131182380D02*
X111236666Y-131896666D01*
X111189047Y-132039523D01*
X111093809Y-132134761D01*
X110950952Y-132182380D01*
X110855714Y-132182380D01*
X112141428Y-131182380D02*
X111950952Y-131182380D01*
X111855714Y-131230000D01*
X111808095Y-131277619D01*
X111712857Y-131420476D01*
X111665238Y-131610952D01*
X111665238Y-131991904D01*
X111712857Y-132087142D01*
X111760476Y-132134761D01*
X111855714Y-132182380D01*
X112046190Y-132182380D01*
X112141428Y-132134761D01*
X112189047Y-132087142D01*
X112236666Y-131991904D01*
X112236666Y-131753809D01*
X112189047Y-131658571D01*
X112141428Y-131610952D01*
X112046190Y-131563333D01*
X111855714Y-131563333D01*
X111760476Y-131610952D01*
X111712857Y-131658571D01*
X111665238Y-131753809D01*
X123666666Y-89952380D02*
X123666666Y-90666666D01*
X123619047Y-90809523D01*
X123523809Y-90904761D01*
X123380952Y-90952380D01*
X123285714Y-90952380D01*
X124095238Y-90047619D02*
X124142857Y-90000000D01*
X124238095Y-89952380D01*
X124476190Y-89952380D01*
X124571428Y-90000000D01*
X124619047Y-90047619D01*
X124666666Y-90142857D01*
X124666666Y-90238095D01*
X124619047Y-90380952D01*
X124047619Y-90952380D01*
X124666666Y-90952380D01*
X122666666Y-98512380D02*
X122666666Y-99226666D01*
X122619047Y-99369523D01*
X122523809Y-99464761D01*
X122380952Y-99512380D01*
X122285714Y-99512380D01*
X123047619Y-98512380D02*
X123666666Y-98512380D01*
X123333333Y-98893333D01*
X123476190Y-98893333D01*
X123571428Y-98940952D01*
X123619047Y-98988571D01*
X123666666Y-99083809D01*
X123666666Y-99321904D01*
X123619047Y-99417142D01*
X123571428Y-99464761D01*
X123476190Y-99512380D01*
X123190476Y-99512380D01*
X123095238Y-99464761D01*
X123047619Y-99417142D01*
X122666666Y-108672380D02*
X122666666Y-109386666D01*
X122619047Y-109529523D01*
X122523809Y-109624761D01*
X122380952Y-109672380D01*
X122285714Y-109672380D01*
X123571428Y-109005714D02*
X123571428Y-109672380D01*
X123333333Y-108624761D02*
X123095238Y-109339047D01*
X123714285Y-109339047D01*
X122476666Y-118832380D02*
X122476666Y-119546666D01*
X122429047Y-119689523D01*
X122333809Y-119784761D01*
X122190952Y-119832380D01*
X122095714Y-119832380D01*
X123429047Y-118832380D02*
X122952857Y-118832380D01*
X122905238Y-119308571D01*
X122952857Y-119260952D01*
X123048095Y-119213333D01*
X123286190Y-119213333D01*
X123381428Y-119260952D01*
X123429047Y-119308571D01*
X123476666Y-119403809D01*
X123476666Y-119641904D01*
X123429047Y-119737142D01*
X123381428Y-119784761D01*
X123286190Y-119832380D01*
X123048095Y-119832380D01*
X122952857Y-119784761D01*
X122905238Y-119737142D01*
X134666666Y-89952380D02*
X134666666Y-90666666D01*
X134619047Y-90809523D01*
X134523809Y-90904761D01*
X134380952Y-90952380D01*
X134285714Y-90952380D01*
X135047619Y-89952380D02*
X135714285Y-89952380D01*
X135285714Y-90952380D01*
X135746666Y-98512380D02*
X135746666Y-99226666D01*
X135699047Y-99369523D01*
X135603809Y-99464761D01*
X135460952Y-99512380D01*
X135365714Y-99512380D01*
X136365714Y-98940952D02*
X136270476Y-98893333D01*
X136222857Y-98845714D01*
X136175238Y-98750476D01*
X136175238Y-98702857D01*
X136222857Y-98607619D01*
X136270476Y-98560000D01*
X136365714Y-98512380D01*
X136556190Y-98512380D01*
X136651428Y-98560000D01*
X136699047Y-98607619D01*
X136746666Y-98702857D01*
X136746666Y-98750476D01*
X136699047Y-98845714D01*
X136651428Y-98893333D01*
X136556190Y-98940952D01*
X136365714Y-98940952D01*
X136270476Y-98988571D01*
X136222857Y-99036190D01*
X136175238Y-99131428D01*
X136175238Y-99321904D01*
X136222857Y-99417142D01*
X136270476Y-99464761D01*
X136365714Y-99512380D01*
X136556190Y-99512380D01*
X136651428Y-99464761D01*
X136699047Y-99417142D01*
X136746666Y-99321904D01*
X136746666Y-99131428D01*
X136699047Y-99036190D01*
X136651428Y-98988571D01*
X136556190Y-98940952D01*
X135746666Y-108672380D02*
X135746666Y-109386666D01*
X135699047Y-109529523D01*
X135603809Y-109624761D01*
X135460952Y-109672380D01*
X135365714Y-109672380D01*
X136270476Y-109672380D02*
X136460952Y-109672380D01*
X136556190Y-109624761D01*
X136603809Y-109577142D01*
X136699047Y-109434285D01*
X136746666Y-109243809D01*
X136746666Y-108862857D01*
X136699047Y-108767619D01*
X136651428Y-108720000D01*
X136556190Y-108672380D01*
X136365714Y-108672380D01*
X136270476Y-108720000D01*
X136222857Y-108767619D01*
X136175238Y-108862857D01*
X136175238Y-109100952D01*
X136222857Y-109196190D01*
X136270476Y-109243809D01*
X136365714Y-109291428D01*
X136556190Y-109291428D01*
X136651428Y-109243809D01*
X136699047Y-109196190D01*
X136746666Y-109100952D01*
X135270476Y-118832380D02*
X135270476Y-119546666D01*
X135222857Y-119689523D01*
X135127619Y-119784761D01*
X134984761Y-119832380D01*
X134889523Y-119832380D01*
X136270476Y-119832380D02*
X135699047Y-119832380D01*
X135984761Y-119832380D02*
X135984761Y-118832380D01*
X135889523Y-118975238D01*
X135794285Y-119070476D01*
X135699047Y-119118095D01*
X136889523Y-118832380D02*
X136984761Y-118832380D01*
X137080000Y-118880000D01*
X137127619Y-118927619D01*
X137175238Y-119022857D01*
X137222857Y-119213333D01*
X137222857Y-119451428D01*
X137175238Y-119641904D01*
X137127619Y-119737142D01*
X137080000Y-119784761D01*
X136984761Y-119832380D01*
X136889523Y-119832380D01*
X136794285Y-119784761D01*
X136746666Y-119737142D01*
X136699047Y-119641904D01*
X136651428Y-119451428D01*
X136651428Y-119213333D01*
X136699047Y-119022857D01*
X136746666Y-118927619D01*
X136794285Y-118880000D01*
X136889523Y-118832380D01*
X145761904Y-135452380D02*
X145761904Y-134452380D01*
X146000000Y-134452380D01*
X146142857Y-134500000D01*
X146238095Y-134595238D01*
X146285714Y-134690476D01*
X146333333Y-134880952D01*
X146333333Y-135023809D01*
X146285714Y-135214285D01*
X146238095Y-135309523D01*
X146142857Y-135404761D01*
X146000000Y-135452380D01*
X145761904Y-135452380D01*
X147285714Y-135452380D02*
X146714285Y-135452380D01*
X147000000Y-135452380D02*
X147000000Y-134452380D01*
X146904761Y-134595238D01*
X146809523Y-134690476D01*
X146714285Y-134738095D01*
X141202380Y-131666666D02*
X140726190Y-132000000D01*
X141202380Y-132238095D02*
X140202380Y-132238095D01*
X140202380Y-131857142D01*
X140250000Y-131761904D01*
X140297619Y-131714285D01*
X140392857Y-131666666D01*
X140535714Y-131666666D01*
X140630952Y-131714285D01*
X140678571Y-131761904D01*
X140726190Y-131857142D01*
X140726190Y-132238095D01*
X141202380Y-130714285D02*
X141202380Y-131285714D01*
X141202380Y-131000000D02*
X140202380Y-131000000D01*
X140345238Y-131095238D01*
X140440476Y-131190476D01*
X140488095Y-131285714D01*
X126833333Y-92452380D02*
X126500000Y-91976190D01*
X126261904Y-92452380D02*
X126261904Y-91452380D01*
X126642857Y-91452380D01*
X126738095Y-91500000D01*
X126785714Y-91547619D01*
X126833333Y-91642857D01*
X126833333Y-91785714D01*
X126785714Y-91880952D01*
X126738095Y-91928571D01*
X126642857Y-91976190D01*
X126261904Y-91976190D01*
X127214285Y-91547619D02*
X127261904Y-91500000D01*
X127357142Y-91452380D01*
X127595238Y-91452380D01*
X127690476Y-91500000D01*
X127738095Y-91547619D01*
X127785714Y-91642857D01*
X127785714Y-91738095D01*
X127738095Y-91880952D01*
X127166666Y-92452380D01*
X127785714Y-92452380D01*
X126833333Y-112977380D02*
X126500000Y-112501190D01*
X126261904Y-112977380D02*
X126261904Y-111977380D01*
X126642857Y-111977380D01*
X126738095Y-112025000D01*
X126785714Y-112072619D01*
X126833333Y-112167857D01*
X126833333Y-112310714D01*
X126785714Y-112405952D01*
X126738095Y-112453571D01*
X126642857Y-112501190D01*
X126261904Y-112501190D01*
X127166666Y-111977380D02*
X127785714Y-111977380D01*
X127452380Y-112358333D01*
X127595238Y-112358333D01*
X127690476Y-112405952D01*
X127738095Y-112453571D01*
X127785714Y-112548809D01*
X127785714Y-112786904D01*
X127738095Y-112882142D01*
X127690476Y-112929761D01*
X127595238Y-112977380D01*
X127309523Y-112977380D01*
X127214285Y-112929761D01*
X127166666Y-112882142D01*
X132388095Y-109602380D02*
X132388095Y-110411904D01*
X132435714Y-110507142D01*
X132483333Y-110554761D01*
X132578571Y-110602380D01*
X132769047Y-110602380D01*
X132864285Y-110554761D01*
X132911904Y-110507142D01*
X132959523Y-110411904D01*
X132959523Y-109602380D01*
X133959523Y-110602380D02*
X133388095Y-110602380D01*
X133673809Y-110602380D02*
X133673809Y-109602380D01*
X133578571Y-109745238D01*
X133483333Y-109840476D01*
X133388095Y-109888095D01*
M02*
